<?xml version="1.0" encoding="UTF-8" standalone="no"?>
<svg
   version="1.1"
   width="633.22424"
   height="574.32214"
   viewBox="0 0 633.22424 574.32213"
   id="svg107"
   sodipodi:docname="bloonarius.svg"
   inkscape:version="1.4.2 (f4327f4, 2025-05-13)"
   xmlns:inkscape="http://www.inkscape.org/namespaces/inkscape"
   xmlns:sodipodi="http://sodipodi.sourceforge.net/DTD/sodipodi-0.dtd"
   xmlns="http://www.w3.org/2000/svg"
   xmlns:svg="http://www.w3.org/2000/svg">
  <sodipodi:namedview
     id="namedview107"
     pagecolor="#ffffff"
     bordercolor="#000000"
     borderopacity="0.25"
     inkscape:showpageshadow="2"
     inkscape:pageopacity="0.0"
     inkscape:pagecheckerboard="0"
     inkscape:deskcolor="#d1d1d1"
     inkscape:zoom="0.68157206"
     inkscape:cx="333.78716"
     inkscape:cy="373.40146"
     inkscape:window-width="2560"
     inkscape:window-height="1346"
     inkscape:window-x="2869"
     inkscape:window-y="450"
     inkscape:window-maximized="1"
     inkscape:current-layer="svg107" />
  <defs
     id="defs36">
    <linearGradient
       x1="174.63924"
       y1="176.95303"
       x2="174.63924"
       y2="209.3336"
       gradientUnits="userSpaceOnUse"
       id="color-1">
      <stop
         offset="0"
         stop-color="#e3e3e3"
         id="stop1" />
      <stop
         offset="1"
         stop-color="#808080"
         id="stop2" />
    </linearGradient>
    <linearGradient
       x1="174.63924"
       y1="176.95303"
       x2="174.63924"
       y2="209.3336"
       gradientUnits="userSpaceOnUse"
       id="color-2">
      <stop
         offset="0"
         stop-color="#808080"
         id="stop3" />
      <stop
         offset="1"
         stop-color="#e2e2e2"
         id="stop4" />
    </linearGradient>
    <linearGradient
       x1="174.63924"
       y1="149.06055"
       x2="174.63924"
       y2="181.44112"
       gradientUnits="userSpaceOnUse"
       id="color-3">
      <stop
         offset="0"
         stop-color="#e3e3e3"
         id="stop5" />
      <stop
         offset="1"
         stop-color="#808080"
         id="stop6" />
    </linearGradient>
    <linearGradient
       x1="174.63924"
       y1="149.06055"
       x2="174.63924"
       y2="181.44112"
       gradientUnits="userSpaceOnUse"
       id="color-4">
      <stop
         offset="0"
         stop-color="#808080"
         id="stop7" />
      <stop
         offset="1"
         stop-color="#e2e2e2"
         id="stop8" />
    </linearGradient>
    <linearGradient
       x1="179.43982"
       y1="168.64967"
       x2="179.43982"
       y2="189.63376"
       gradientUnits="userSpaceOnUse"
       id="color-5">
      <stop
         offset="0"
         stop-color="#e3e3e3"
         id="stop9" />
      <stop
         offset="1"
         stop-color="#808080"
         id="stop10" />
    </linearGradient>
    <linearGradient
       x1="179.43982"
       y1="168.64967"
       x2="179.43982"
       y2="189.63376"
       gradientUnits="userSpaceOnUse"
       id="color-6">
      <stop
         offset="0"
         stop-color="#808080"
         id="stop11" />
      <stop
         offset="1"
         stop-color="#e2e2e2"
         id="stop12" />
    </linearGradient>
    <linearGradient
       x1="260.51028"
       y1="232.4883"
       x2="260.51028"
       y2="248.41618"
       gradientUnits="userSpaceOnUse"
       id="color-7">
      <stop
         offset="0"
         stop-color="#e3e3e3"
         id="stop13" />
      <stop
         offset="1"
         stop-color="#808080"
         id="stop14" />
    </linearGradient>
    <linearGradient
       x1="260.51028"
       y1="232.4883"
       x2="260.51028"
       y2="248.41618"
       gradientUnits="userSpaceOnUse"
       id="color-8">
      <stop
         offset="0"
         stop-color="#808080"
         id="stop15" />
      <stop
         offset="1"
         stop-color="#e2e2e2"
         id="stop16" />
    </linearGradient>
    <linearGradient
       x1="260.51028"
       y1="218.7681"
       x2="260.51028"
       y2="234.69598"
       gradientUnits="userSpaceOnUse"
       id="color-9">
      <stop
         offset="0"
         stop-color="#e3e3e3"
         id="stop17" />
      <stop
         offset="1"
         stop-color="#808080"
         id="stop18" />
    </linearGradient>
    <linearGradient
       x1="260.51028"
       y1="218.7681"
       x2="260.51028"
       y2="234.69598"
       gradientUnits="userSpaceOnUse"
       id="color-10">
      <stop
         offset="0"
         stop-color="#808080"
         id="stop19" />
      <stop
         offset="1"
         stop-color="#e2e2e2"
         id="stop20" />
    </linearGradient>
    <linearGradient
       x1="257.44327"
       y1="228.40392"
       x2="257.44327"
       y2="238.72591"
       gradientUnits="userSpaceOnUse"
       id="color-11">
      <stop
         offset="0"
         stop-color="#e3e3e3"
         id="stop21" />
      <stop
         offset="1"
         stop-color="#808080"
         id="stop22" />
    </linearGradient>
    <linearGradient
       x1="257.44327"
       y1="228.40392"
       x2="257.44327"
       y2="238.72591"
       gradientUnits="userSpaceOnUse"
       id="color-12">
      <stop
         offset="0"
         stop-color="#808080"
         id="stop23" />
      <stop
         offset="1"
         stop-color="#e2e2e2"
         id="stop24" />
    </linearGradient>
    <linearGradient
       x1="264.40063"
       y1="126.48854"
       x2="264.40063"
       y2="142.41643"
       gradientUnits="userSpaceOnUse"
       id="color-13">
      <stop
         offset="0"
         stop-color="#e3e3e3"
         id="stop25" />
      <stop
         offset="1"
         stop-color="#808080"
         id="stop26" />
    </linearGradient>
    <linearGradient
       x1="264.40063"
       y1="126.48854"
       x2="264.40063"
       y2="142.41643"
       gradientUnits="userSpaceOnUse"
       id="color-14">
      <stop
         offset="0"
         stop-color="#808080"
         id="stop27" />
      <stop
         offset="1"
         stop-color="#e2e2e2"
         id="stop28" />
    </linearGradient>
    <linearGradient
       x1="264.40063"
       y1="112.76833"
       x2="264.40063"
       y2="128.69621"
       gradientUnits="userSpaceOnUse"
       id="color-15">
      <stop
         offset="0"
         stop-color="#e3e3e3"
         id="stop29" />
      <stop
         offset="1"
         stop-color="#808080"
         id="stop30" />
    </linearGradient>
    <linearGradient
       x1="264.40063"
       y1="112.76833"
       x2="264.40063"
       y2="128.69621"
       gradientUnits="userSpaceOnUse"
       id="color-16">
      <stop
         offset="0"
         stop-color="#808080"
         id="stop31" />
      <stop
         offset="1"
         stop-color="#e2e2e2"
         id="stop32" />
    </linearGradient>
    <linearGradient
       x1="261.33359"
       y1="122.40415"
       x2="261.33359"
       y2="132.72615"
       gradientUnits="userSpaceOnUse"
       id="color-17">
      <stop
         offset="0"
         stop-color="#e3e3e3"
         id="stop33" />
      <stop
         offset="1"
         stop-color="#808080"
         id="stop34" />
    </linearGradient>
    <linearGradient
       x1="261.33359"
       y1="122.40415"
       x2="261.33359"
       y2="132.72615"
       gradientUnits="userSpaceOnUse"
       id="color-18">
      <stop
         offset="0"
         stop-color="#808080"
         id="stop35" />
      <stop
         offset="1"
         stop-color="#e2e2e2"
         id="stop36" />
    </linearGradient>
  </defs>
  <g
     transform="matrix(4,0,0,4,-622.06506,-433.33935)"
     id="g107">
    <g
       data-paper-data="{&quot;isPaintingLayer&quot;:true}"
       fill-rule="nonzero"
       stroke-linejoin="miter"
       stroke-miterlimit="10"
       stroke-dasharray="none"
       stroke-dashoffset="0"
       style="mix-blend-mode:normal"
       id="g106">
      <g
         data-paper-data="{&quot;index&quot;:null}"
         stroke-width="3"
         stroke-linecap="butt"
         id="g38">
        <path
           d="m 171.35674,193.14333 c 0,-6.22521 1.46963,-11.27172 3.28248,-11.27172 1.81288,0 3.28248,5.0465 3.28248,11.27172 0,6.22521 -1.46963,11.27174 -3.28248,11.27174 -1.81288,0 -3.28248,-5.04653 -3.28248,-11.27174 z"
           data-paper-data="{&quot;index&quot;:null}"
           fill="url(#color-1)"
           stroke="url(#color-2)"
           id="path36"
           style="fill:url(#color-1);stroke:url(#color-2)" />
        <path
           d="m 171.35674,165.25081 c 0,-6.22521 1.46963,-11.27172 3.28248,-11.27172 1.81285,0 3.28248,5.0465 3.28248,11.27172 0,6.22521 -1.46963,11.27172 -3.28248,11.27172 -1.81285,0 -3.28248,-5.0465 -3.28248,-11.27172 z"
           data-paper-data="{&quot;index&quot;:null}"
           fill="url(#color-3)"
           stroke="url(#color-4)"
           id="path37"
           style="fill:url(#color-3);stroke:url(#color-4)" />
        <path
           d="m 170.36585,179.1417 c 0,-4.0342 4.06255,-7.3046 9.07398,-7.3046 5.01139,0 13.05471,3.61507 13.05471,7.64929 0,4.0342 -8.04328,6.9599 -13.05471,6.9599 -5.01139,0 -9.07398,-3.27038 -9.07398,-7.3046 z"
           data-paper-data="{&quot;index&quot;:null}"
           fill="url(#color-5)"
           stroke="url(#color-6)"
           id="path38"
           style="fill:url(#color-5);stroke:url(#color-6)" />
      </g>
      <g
         stroke-width="1.5"
         stroke-linecap="butt"
         id="g41">
        <path
           d="m 260.51029,245.99679 c -1.15821,0 -2.09713,-2.48236 -2.09713,-5.54453 0,-3.06216 0.93891,-5.54452 2.09713,-5.54452 1.15821,0 2.09713,2.48236 2.09713,5.54452 0,3.06216 -0.93891,5.54453 -2.09713,5.54453 z"
           data-paper-data="{&quot;index&quot;:null}"
           fill="url(#color-7)"
           stroke="url(#color-8)"
           id="path39"
           style="fill:url(#color-7);stroke:url(#color-8)" />
        <path
           d="m 260.51029,232.27655 c -1.15821,0 -2.09713,-2.48236 -2.09713,-5.54452 0,-3.06216 0.93893,-5.54452 2.09713,-5.54452 1.15821,0 2.09713,2.48236 2.09713,5.54452 0,3.06216 -0.93893,5.54452 -2.09713,5.54452 z"
           data-paper-data="{&quot;index&quot;:null}"
           fill="url(#color-9)"
           stroke="url(#color-10)"
           id="path40"
           style="fill:url(#color-9);stroke:url(#color-10)" />
        <path
           d="m 257.44326,237.15801 c -3.20173,0 -8.34046,-1.43915 -8.34046,-3.42356 0,-1.98442 5.13875,-3.76265 8.34046,-3.76265 3.20173,0 5.79723,1.60869 5.79723,3.5931 0,1.98442 -2.59553,3.5931 -5.79723,3.5931 z"
           data-paper-data="{&quot;index&quot;:null}"
           fill="url(#color-11)"
           stroke="url(#color-12)"
           id="path41"
           style="fill:url(#color-11);stroke:url(#color-12)" />
      </g>
      <g
         stroke-width="1.5"
         stroke-linecap="butt"
         id="g44">
        <path
           d="m 264.40063,139.99702 c -1.15821,0 -2.09713,-2.48236 -2.09713,-5.54453 0,-3.06216 0.93891,-5.54452 2.09713,-5.54452 1.15821,0 2.09713,2.48236 2.09713,5.54452 0,3.06216 -0.93891,5.54453 -2.09713,5.54453 z"
           data-paper-data="{&quot;index&quot;:null}"
           fill="url(#color-13)"
           stroke="url(#color-14)"
           id="path42"
           style="fill:url(#color-13);stroke:url(#color-14)" />
        <path
           d="m 264.40063,126.27678 c -1.15821,0 -2.09713,-2.48236 -2.09713,-5.54452 0,-3.06216 0.93893,-5.54452 2.09713,-5.54452 1.15821,0 2.09713,2.48236 2.09713,5.54452 0,3.06216 -0.93893,5.54452 -2.09713,5.54452 z"
           data-paper-data="{&quot;index&quot;:null}"
           fill="url(#color-15)"
           stroke="url(#color-16)"
           id="path43"
           style="fill:url(#color-15);stroke:url(#color-16)" />
        <path
           d="m 261.3336,131.15825 c -3.20173,0 -8.34046,-1.43915 -8.34046,-3.42356 0,-1.98442 5.13875,-3.76265 8.34046,-3.76265 3.20173,0 5.79723,1.60869 5.79723,3.5931 0,1.98442 -2.59553,3.5931 -5.79723,3.5931 z"
           data-paper-data="{&quot;index&quot;:null}"
           fill="url(#color-17)"
           stroke="url(#color-18)"
           id="path44"
           style="fill:url(#color-17);stroke:url(#color-18)" />
      </g>
      <path
         d="m 217.53254,217.55547 c 0,0 -5.45334,-22.94775 -5.88789,-38.1666 -0.4632,-16.22178 7.47279,-37.60245 7.47279,-37.60245 0,0 24.98716,-5.37471 36.57708,-6.40321 10.60457,-0.94106 30.26936,0.47118 30.26936,0.47118 0,0 7.8093,17.68406 8.02186,45.67202 0.22302,29.36368 -10.78821,44.02284 -10.78821,44.02284 0,0 -19.55594,1.114 -30.54292,-0.47664 -4.71666,-0.68286 -12.09222,-0.62355 -18.76301,-2.41258 -8.96815,-2.40515 -16.35907,-5.10455 -16.35907,-5.10455 z"
         data-paper-data="{&quot;index&quot;:null}"
         fill="#96d802"
         stroke="#9c0009"
         stroke-width="0"
         stroke-linecap="round"
         id="path45" />
      <path
         d="m 197.70411,206.3492 c 0,0 -4.0444,-16.57023 -4.3916,-28.37397 -0.37008,-12.58161 6.10935,-27.76215 6.10935,-27.76215 l 10.33259,-3.97266 c 0,0 -6.03521,10.86 -5.87384,32.56768 0.1693,22.7747 5.22999,35.57789 5.22999,35.57789 z"
         data-paper-data="{&quot;index&quot;:null}"
         fill="#96d802"
         stroke="#9c0009"
         stroke-width="0"
         stroke-linecap="round"
         id="path46" />
      <path
         d="M 311.9834,181.7295 181.91377,177.99341"
         fill="none"
         stroke="#004027"
         stroke-width="2.5"
         stroke-linecap="round"
         id="path47" />
      <path
         d="m 182.3315,178.24152 c 0,0 28.92973,-9.23466 66.82239,-8.47027 52.22243,1.05345 63.24801,4.05536 63.24801,4.05536"
         fill="none"
         stroke="#004027"
         stroke-width="2.5"
         stroke-linecap="round"
         id="path48" />
      <path
         d="m 182.4096,177.98002 c 0,0 29.60895,-20.44177 67.5016,-19.67739 52.22243,1.05345 61.03959,6.43223 61.03959,6.43223"
         fill="none"
         stroke="#004027"
         stroke-width="2.5"
         stroke-linecap="round"
         id="path49" />
      <path
         d="m 182.14811,178.39774 c 0,0 21.79794,-29.95083 66.48278,-29.86567 52.22243,1.05345 61.20958,7.79106 61.20958,7.79106"
         fill="none"
         stroke="#004027"
         stroke-width="2.5"
         stroke-linecap="round"
         id="path50" />
      <path
         d="m 181.8866,178.13624 c 0,0 13.98692,-31.64888 67.162,-38.3559 51.20361,-2.68226 57.81426,7.45146 57.81426,7.45146"
         fill="none"
         stroke="#004027"
         stroke-width="2.5"
         stroke-linecap="round"
         id="path51" />
      <path
         d="m 311.67754,188.84368 c 0,0 -10.46196,2.53607 -62.68255,1.39467 -37.89131,-0.8282 -66.40756,-11.27007 -66.40756,-11.27007"
         data-paper-data="{&quot;index&quot;:null}"
         fill="none"
         stroke="#004027"
         stroke-width="2.5"
         stroke-linecap="round"
         id="path52" />
      <path
         d="m 310.55356,197.73311 c 0,0 -9.04887,4.79762 -61.26945,3.65623 -37.89131,-0.8282 -66.61535,-22.49581 -66.61535,-22.49581"
         data-paper-data="{&quot;index&quot;:null}"
         fill="none"
         stroke="#004027"
         stroke-width="2.5"
         stroke-linecap="round"
         id="path53" />
      <path
         d="m 308.56671,205.91334 c 0,0 -8.75167,6.32555 -60.97226,5.18415 -44.64897,-1.79216 -65.1694,-32.6323 -65.1694,-32.6323"
         data-paper-data="{&quot;index&quot;:null}"
         fill="none"
         stroke="#004027"
         stroke-width="2.5"
         stroke-linecap="round"
         id="path54" />
      <path
         d="m 305.72039,214.843 c 0,0 -7.03054,9.84705 -58.07626,5.01605 -52.84636,-8.93503 -65.49134,-41.14358 -65.49134,-41.14358"
         data-paper-data="{&quot;index&quot;:null}"
         fill="none"
         stroke="#004027"
         stroke-width="2.5"
         stroke-linecap="round"
         id="path55" />
      <path
         d="m 243.44392,117.83741 c 2.21288,-0.0241 5.87505,-0.48421 8.59337,-0.23119 3.234,0.30102 5.25357,1.55422 5.25357,1.55422 l 0.173,15.87149 -29.36225,0.32006 -0.17301,-15.87149 c 0,0 10.5753,-1.58923 15.51533,-1.64307 z"
         data-paper-data="{&quot;index&quot;:null}"
         fill="#96d802"
         stroke="#9c0009"
         stroke-width="0"
         stroke-linecap="butt"
         id="path56" />
      <path
         d="m 226.81142,241.97787 -0.173,-15.87149 29.36225,-0.32006 0.173,15.87149 c 0,0 -1.99177,1.29693 -5.21844,1.66837 -2.71216,0.31221 -6.38348,-0.0679 -8.59637,-0.0438 -4.94003,0.0538 -15.54746,-1.30448 -15.54746,-1.30448 z"
         fill="#96d802"
         stroke="#9c0009"
         stroke-width="0"
         stroke-linecap="butt"
         id="path57" />
      <path
         d="m 254.72436,180.21784 c 0.0322,2.9556 -7.07256,5.4293 -15.86894,5.52518 -8.79639,0.0959 -15.95339,-2.22236 -15.98561,-5.17795 -0.0322,-2.95559 7.07255,-5.4293 15.86894,-5.52518 8.79639,-0.0959 15.9534,2.22236 15.98561,5.17795 z"
         fill="#e65419"
         stroke="#9c0009"
         stroke-width="2.5"
         stroke-linecap="butt"
         id="path58" />
      <path
         d="m 290.57288,180.82564 c 0.0235,2.15167 -5.14882,3.95253 -11.55258,4.02232 -6.40377,0.0698 -11.61407,-1.61788 -11.63752,-3.76955 -0.0235,-2.15167 5.14882,-3.95252 11.55259,-4.02232 6.40377,-0.0698 11.61407,1.61788 11.63752,3.76955 z"
         fill="#e65419"
         stroke="#9c0009"
         stroke-width="2.5"
         stroke-linecap="butt"
         id="path59" />
      <path
         d="m 207.66139,146.466 c 0,0 -5.43831,-11.84663 -7.12019,-17.99411 -1.65384,-6.04506 -5.246,-18.01247 -2.88836,-18.58866 14.26381,-3.48598 48.91435,25.96651 48.91435,25.96651 0,0 -13.59958,1.80615 -20.08979,3.57715 -6.47837,1.76777 -18.81602,7.03913 -18.81602,7.03913 z"
         fill="#e65419"
         stroke="#9c0009"
         stroke-width="2.5"
         stroke-linecap="round"
         id="path60" />
      <path
         d="m 225.1539,220.24354 c 6.52726,1.6291 19.89085,4.88858 19.89085,4.88858 0,0 -33.72817,28.4506 -48.06457,25.27638 -2.36965,-0.52466 0.9608,-12.56753 2.48247,-18.64721 1.54746,-6.18268 6.72625,-18.14505 6.72625,-18.14505 0,0 12.44963,5.00118 18.96499,6.6273 z"
         data-paper-data="{&quot;index&quot;:null}"
         fill="#e65419"
         stroke="#9c0009"
         stroke-width="2.5"
         stroke-linecap="round"
         id="path61" />
      <path
         d="m 184.85514,167.70086 c 0,0 -4.01397,-6.65237 -5.54069,-10.34309 -1.5013,-3.62923 -4.4403,-16.32455 -3.01947,-16.86728 8.59604,-3.28353 23.11499,11.25481 23.11499,11.25481 0,0 -5.98447,4.13909 -8.45663,6.84917 -2.37559,2.60422 -6.0982,9.10639 -6.0982,9.10639 z"
         fill="#e65419"
         stroke="#9c0009"
         stroke-width="2.5"
         stroke-linecap="round"
         id="path62" />
      <path
         d="m 189.77015,198.85172 c 2.53066,2.65554 8.60391,6.66319 8.60391,6.66319 0,0 -14.19859,14.85139 -22.86417,11.756 -1.43232,-0.51163 1.22925,-13.268 2.65108,-16.92909 1.44591,-3.72312 5.31393,-10.46141 5.31393,-10.46141 0,0 3.86345,6.41947 6.29525,8.97129 z"
         data-paper-data="{&quot;index&quot;:null}"
         fill="#e65419"
         stroke="#9c0009"
         stroke-width="2.5"
         stroke-linecap="round"
         id="path63" />
      <path
         d="m 283.25471,135.44982 17.78681,2.13576 c 0,0 11.17795,10.28883 11.5247,42.09916 0.30178,27.68541 -10.58841,43.79623 -10.58841,43.79623 l -19.47988,2.83319 c 0,0 11.77582,-16.36199 11.44396,-46.71735 -0.40875,-37.38931 -10.68718,-44.14699 -10.68718,-44.14699 z"
         fill="#e65419"
         stroke="#9c0009"
         stroke-width="2.5"
         stroke-linecap="round"
         id="path64" />
      <path
         d="m 218.70967,218.39852 -12.50861,-5.20896 c 0,0 -4.07673,-19.53555 -4.4469,-33.4467 -0.39457,-14.8279 6.05546,-32.70527 6.05546,-32.70527 l 12.13469,-4.94836 c 0,0 -7.82382,13.07332 -7.62022,38.65571 0.21362,26.83987 6.38557,37.65357 6.38557,37.65357 z"
         data-paper-data="{&quot;index&quot;:null}"
         fill="#e65419"
         stroke="#9c0009"
         stroke-width="2.5"
         stroke-linecap="round"
         id="path65" />
      <path
         d="m 199.48884,206.79383 c 0,0 -7.80606,-4.73983 -12.62407,-11.71482 -3.68546,-5.3354 -4.66142,-12.47236 -4.8038,-16.84438 -0.15445,-4.74311 2.5478,-12.8331 6.62125,-17.80121 5.1608,-6.2943 11.97861,-8.9814 11.97861,-8.9814 0,0 -3.79585,8.58656 -3.66888,27.13891 0.13322,19.46426 2.49689,28.2029 2.49689,28.2029 z"
         data-paper-data="{&quot;index&quot;:null}"
         fill="#e65419"
         stroke="#9c0009"
         stroke-width="2.5"
         stroke-linecap="round"
         id="path66" />
      <path
         d="m 209.98706,146.10233 -10.13385,5.35216"
         fill="none"
         stroke="#9c0009"
         stroke-width="2.5"
         stroke-linecap="round"
         id="path67" />
      <path
         d="m 198.10784,205.05531 10.29571,9.49755"
         fill="none"
         stroke="#9c0009"
         stroke-width="2.5"
         stroke-linecap="round"
         id="path68" />
      <path
         d="m 282.78857,226.26389 c 0,0 -13.56252,0.90485 -20.09271,0.63249 -6.3824,-0.26619 -18.65521,-2.24857 -18.65521,-2.24857"
         fill="none"
         stroke="#9c0009"
         stroke-width="2.5"
         stroke-linecap="round"
         id="path69" />
      <path
         d="m 245.68998,135.52097 c 0,0 12.96311,-1.20636 19.4875,-1.22842 6.3821,-0.0216 19.2414,1.09748 19.2414,1.09748"
         fill="none"
         stroke="#9c0009"
         stroke-width="2.5"
         stroke-linecap="round"
         id="path70" />
      <path
         d="m 251.02227,117.11691 c 0,0 5.79153,-0.80745 7.58631,1.37333 0.86996,1.05707 1.49738,4.74837 1.59322,8.70661 0.13486,5.57016 -0.40896,7.31168 -0.40896,7.31168 l -9.11727,0.72217 c 0,0 -0.66547,-4.10905 -0.70055,-7.32778 -0.0403,-3.70164 1.04725,-10.78601 1.04725,-10.78601 z"
         fill="#e65419"
         stroke="#9c0009"
         stroke-width="2.5"
         stroke-linecap="round"
         id="path71" />
      <path
         d="m 248.03997,232.76197 c -0.0351,-3.21873 0.67963,-7.07075 0.67963,-7.07075 l 9.13529,0.93132 c 0,0 0.43823,1.05062 0.42483,6.62241 -0.01,3.95939 -0.55635,7.6635 -1.40306,8.73927 -1.74682,2.21939 -7.55457,1.53837 -7.55457,1.53837 0,0 -1.24178,-7.05899 -1.28212,-10.76062 z"
         data-paper-data="{&quot;index&quot;:null}"
         fill="#e65419"
         stroke="#9c0009"
         stroke-width="2.5"
         stroke-linecap="round"
         id="path72" />
      <path
         d="m 228.06738,121.73521 c 0,0 -3.36073,-2.31067 4.03831,-3.53849 7.39904,-1.22781 20.08126,-1.09251 20.08126,-1.09251"
         fill="none"
         stroke="#9c0009"
         stroke-width="2.5"
         stroke-linecap="round"
         id="path73" />
      <path
         d="m 250.77578,243.30823 c 0,0 -12.67625,0.41172 -20.1003,-0.65452 -7.42405,-1.06623 -4.11448,-3.44962 -4.11448,-3.44962"
         data-paper-data="{&quot;index&quot;:null}"
         fill="none"
         stroke="#9c0009"
         stroke-width="2.5"
         stroke-linecap="round"
         id="path74" />
      <path
         d="m 237.15081,126.8779 0.7783,-8.74465"
         fill="none"
         stroke="#9c0009"
         stroke-width="2.5"
         stroke-linecap="round"
         id="path75" />
      <path
         d="m 232.59008,124.43197 0.80369,-6.41527"
         fill="none"
         stroke="#9c0009"
         stroke-width="2.5"
         stroke-linecap="round"
         id="path76" />
      <path
         d="m 234.07282,233.74306 0.96872,8.7256"
         data-paper-data="{&quot;index&quot;:null}"
         fill="none"
         stroke="#9c0009"
         stroke-width="2.5"
         stroke-linecap="round"
         id="path77" />
      <path
         d="m 230.65953,242.29494 -0.78611,-5.33019"
         data-paper-data="{&quot;index&quot;:null}"
         fill="none"
         stroke="#9c0009"
         stroke-width="2.5"
         stroke-linecap="round"
         id="path78" />
      <path
         d="m 205.89331,153.97532 c 0,0 3.40557,-2.07096 5.22516,-3.06137 1.88369,-1.0253 5.89133,-2.98937 5.89133,-2.98937"
         fill="none"
         stroke="#9c0009"
         stroke-width="2.5"
         stroke-linecap="round"
         id="path79" />
      <path
         d="m 204.34544,160.02607 c 0,0 3.33119,-2.34888 5.10859,-3.29682 1.73967,-0.92782 5.44504,-2.33178 5.44504,-2.33178"
         fill="none"
         stroke="#9c0009"
         stroke-width="2.5"
         stroke-linecap="round"
         id="path80" />
      <path
         d="m 215.88408,210.54278 c 0,0 -4.30285,-2.24337 -6.24692,-3.50819 -1.94903,-1.26805 -5.43243,-4.09042 -5.43243,-4.09042"
         fill="none"
         stroke="#9c0009"
         stroke-width="2.5"
         stroke-linecap="round"
         id="path81" />
      <path
         d="m 214.33621,203.22561 c 0,0 -3.2739,-1.54264 -5.47654,-2.66732 -1.81563,-0.92707 -5.2178,-3.24272 -5.2178,-3.24272"
         fill="none"
         stroke="#9c0009"
         stroke-width="2.5"
         stroke-linecap="round"
         id="path82" />
      <path
         d="m 212.92906,194.50127 c 0,0 -3.0656,-1.22639 -4.71079,-1.96005 -1.81004,-0.80717 -5.70213,-2.68355 -5.70213,-2.68355"
         fill="none"
         stroke="#9c0009"
         stroke-width="2.5"
         stroke-linecap="round"
         id="path83" />
      <path
         d="m 202.37543,184.51049 9.2872,1.97001"
         fill="none"
         stroke="#9c0009"
         stroke-width="2.5"
         stroke-linecap="round"
         id="path84" />
      <path
         d="m 208.28547,179.30404 3.51787,-0.14071"
         fill="none"
         stroke="#9c0009"
         stroke-width="2.5"
         stroke-linecap="round"
         id="path85" />
      <path
         d="m 202.23472,173.53472 c 0,0 3.61073,-0.90041 5.31168,-1.19201 1.57226,-0.26953 4.53837,-0.49657 4.53837,-0.49657"
         fill="none"
         stroke="#9c0009"
         stroke-width="2.5"
         stroke-linecap="round"
         id="path86" />
      <path
         d="m 202.79757,167.34326 c 0,0 3.80541,-1.66989 5.60166,-2.32528 1.6647,-0.6074 4.81126,-1.47403 4.81126,-1.47403"
         fill="none"
         stroke="#9c0009"
         stroke-width="2.5"
         stroke-linecap="round"
         id="path87" />
      <path
         d="m 183.24653,172.37807 c 0,0 4.41791,-6.47583 7.03378,-8.90259 2.51007,-2.32861 8.35713,-5.37572 8.35713,-5.37572"
         fill="none"
         stroke="#9c0009"
         stroke-width="2.5"
         stroke-linecap="round"
         id="path88" />
      <path
         d="m 180.75356,177.40279 c 0,0 7.93886,-7.70049 10.59644,-9.5608 2.20052,-1.54036 6.36027,-4.55012 6.36027,-4.55012"
         fill="none"
         stroke="#9c0009"
         stroke-width="2.5"
         stroke-linecap="round"
         id="path89" />
      <path
         d="m 196.96855,169.41115 -14.46214,7.20264"
         fill="none"
         stroke="#9c0009"
         stroke-width="2.5"
         stroke-linecap="round"
         id="path90" />
      <path
         d="m 197.89571,199.08038 c 0,0 -6.76938,-5.23101 -9.27888,-7.86598 -2.433,-2.55466 -5.55572,-7.71036 -5.55572,-7.71036"
         fill="none"
         stroke="#9c0009"
         stroke-width="2.5"
         stroke-linecap="round"
         id="path91" />
      <path
         d="m 197.71027,194.07369 c 0,0 -4.51947,-3.42692 -6.72413,-5.57199 -2.35891,-2.29515 -6.99789,-7.77916 -6.99789,-7.77916"
         fill="none"
         stroke="#9c0009"
         stroke-width="2.5"
         stroke-linecap="round"
         id="path92" />
      <path
         d="m 184.84874,179.63979 12.30524,8.31463"
         fill="none"
         stroke="#9c0009"
         stroke-width="2.5"
         stroke-linecap="round"
         id="path93" />
      <path
         d="m 196.96855,182.94774 -10.94052,-5.37755 10.75509,-3.52322"
         fill="none"
         stroke="#9c0009"
         stroke-width="2.5"
         stroke-linecap="round"
         id="path94" />
      <path
         d="m 207.82068,179.32267 c 0.031,2.84428 -27.20561,3.56584 -35.67072,3.65811 -8.46512,0.0923 -15.35259,-2.13868 -15.38359,-4.98296 -0.031,-2.84428 6.8062,-5.22482 15.27132,-5.3171 8.46512,-0.0923 35.752,3.79766 35.783,6.64194 z"
         fill="#e65419"
         stroke="#9c0009"
         stroke-width="2.5"
         stroke-linecap="butt"
         id="path95" />
      <path
         d="m 293.9483,181.02329 17.48828,0.43721"
         fill="none"
         stroke="#9c0009"
         stroke-width="2.5"
         stroke-linecap="round"
         id="path96" />
      <path
         d="m 294.38551,190.20464 16.3224,-0.87442"
         fill="none"
         stroke="#9c0009"
         stroke-width="2.5"
         stroke-linecap="round"
         id="path97" />
      <path
         d="m 292.49094,200.55187 17.92549,-2.76898"
         fill="none"
         stroke="#9c0009"
         stroke-width="2.5"
         stroke-linecap="round"
         id="path98" />
      <path
         d="m 308.52188,206.23557 -18.36271,3.78913"
         fill="none"
         stroke="#9c0009"
         stroke-width="2.5"
         stroke-linecap="round"
         id="path99" />
      <path
         d="m 305.16996,215.27117 -13.69916,2.76897"
         fill="none"
         stroke="#9c0009"
         stroke-width="2.5"
         stroke-linecap="round"
         id="path100" />
      <path
         d="m 291.03359,141.23743 14.13653,3.44914"
         fill="none"
         stroke="#9c0009"
         stroke-width="2.5"
         stroke-linecap="round"
         id="path101" />
      <path
         d="m 291.17933,151.58467 17.63402,3.20618"
         fill="none"
         stroke="#9c0009"
         stroke-width="2.5"
         stroke-linecap="round"
         id="path102" />
      <path
         d="m 292.49094,161.05749 18.07124,2.91471"
         fill="none"
         stroke="#9c0009"
         stroke-width="2.5"
         stroke-linecap="round"
         id="path103" />
      <path
         d="m 293.80257,171.40473 17.63402,2.18604"
         fill="none"
         stroke="#9c0009"
         stroke-width="2.5"
         stroke-linecap="round"
         id="path104" />
      <path
         d="m 281.171,224.62231 c -6.0552,0.72505 -11.39464,-1.40373 -11.92599,-4.75479 -0.53135,-3.35106 3.9466,-6.65541 10.0018,-7.38046 6.0552,-0.72505 11.39464,1.40373 11.92599,4.75479 0.53135,3.35106 -3.9466,6.6554 -10.0018,7.38046 z"
         data-paper-data="{&quot;index&quot;:null}"
         fill="#ffffff"
         stroke="#004027"
         stroke-width="2.5"
         stroke-linecap="butt"
         id="path105" />
      <path
         d="m 292.29476,144.65126 c -0.45818,3.36185 -5.74995,5.60653 -11.81951,5.01363 -6.06956,-0.59289 -10.61849,-3.79885 -10.1603,-7.1607 0.45818,-3.36185 5.74996,-5.60651 11.81951,-5.01362 6.06956,0.59289 10.61848,3.79885 10.16029,7.16069 z"
         fill="#ffffff"
         stroke="#004027"
         stroke-width="2.5"
         stroke-linecap="butt"
         id="path106" />
    </g>
  </g>
</svg>
