<?xml version="1.0" encoding="UTF-8" standalone="no"?>
<svg version="1.1" width="541.26953" height="365.37067" viewBox="0 0 108.25391 73.074133" id="svg58" sodipodi:docname="ddt.svg" inkscape:version="1.4 (86a8ad7, 2024-10-11)" xmlns:inkscape="http://www.inkscape.org/namespaces/inkscape" xmlns:sodipodi="http://sodipodi.sourceforge.net/DTD/sodipodi-0.dtd" xmlns="http://www.w3.org/2000/svg" xmlns:svg="http://www.w3.org/2000/svg">
  <sodipodi:namedview id="namedview58" pagecolor="#ffffff" bordercolor="#000000" borderopacity="0.25" inkscape:showpageshadow="2" inkscape:pageopacity="0.0" inkscape:pagecheckerboard="0" inkscape:deskcolor="#d1d1d1" inkscape:zoom="1.2778194" inkscape:cx="312.2507" inkscape:cy="130.3001" inkscape:window-width="1920" inkscape:window-height="986" inkscape:window-x="-11" inkscape:window-y="-11" inkscape:window-maximized="1" inkscape:current-layer="svg58" />
  <defs id="defs40">
    <linearGradient x1="188.45901" y1="179.22728" x2="188.45901" y2="196.95238" gradientUnits="userSpaceOnUse" id="color-1">
      <stop offset="0" stop-color="#e3e3e3" id="stop1" />
      <stop offset="1" stop-color="#808080" id="stop2" />
    </linearGradient>
    <linearGradient x1="188.45901" y1="179.22728" x2="188.45901" y2="196.95238" gradientUnits="userSpaceOnUse" id="color-2">
      <stop offset="0" stop-color="#808080" id="stop3" />
      <stop offset="1" stop-color="#e2e2e2" id="stop4" />
    </linearGradient>
    <linearGradient x1="188.45901" y1="163.95895" x2="188.45901" y2="181.68407" gradientUnits="userSpaceOnUse" id="color-3">
      <stop offset="0" stop-color="#e3e3e3" id="stop5" />
      <stop offset="1" stop-color="#808080" id="stop6" />
    </linearGradient>
    <linearGradient x1="188.45901" y1="163.95895" x2="188.45901" y2="181.68407" gradientUnits="userSpaceOnUse" id="color-4">
      <stop offset="0" stop-color="#808080" id="stop7" />
      <stop offset="1" stop-color="#e2e2e2" id="stop8" />
    </linearGradient>
    <linearGradient x1="191.87209" y1="174.68204" x2="191.87209" y2="186.1687" gradientUnits="userSpaceOnUse" id="color-5">
      <stop offset="0" stop-color="#e3e3e3" id="stop9" />
      <stop offset="1" stop-color="#808080" id="stop10" />
    </linearGradient>
    <linearGradient x1="191.87209" y1="174.68204" x2="191.87209" y2="186.1687" gradientUnits="userSpaceOnUse" id="color-6">
      <stop offset="0" stop-color="#808080" id="stop11" />
      <stop offset="1" stop-color="#e2e2e2" id="stop12" />
    </linearGradient>
    <radialGradient cx="232.09236" cy="179.26462" r="24.87385" gradientUnits="userSpaceOnUse" id="color-7">
      <stop offset="0" stop-color="#717171" id="stop13" />
      <stop offset="1" stop-color="#191919" id="stop14" />
    </radialGradient>
    <radialGradient cx="200.88512" cy="179.50848" r="17.138769" gradientUnits="userSpaceOnUse" id="color-8">
      <stop offset="0" stop-color="#717171" id="stop15" />
      <stop offset="1" stop-color="#191919" id="stop16" />
    </radialGradient>
    <radialGradient cx="244.72701" cy="181.0956" r="42.752609" gradientUnits="userSpaceOnUse" id="color-9">
      <stop offset="0" stop-color="#717171" id="stop17" />
      <stop offset="1" stop-color="#191919" id="stop18" />
    </radialGradient>
    <linearGradient x1="232.60664" y1="179.44977" x2="242.52351" y2="182.6788" gradientUnits="userSpaceOnUse" id="color-10">
      <stop offset="0" stop-color="#353535" id="stop19" />
      <stop offset="1" stop-color="#171717" id="stop20" />
    </linearGradient>
    <linearGradient x1="261.69656" y1="191.65126" x2="265.43356" y2="201.47328" gradientUnits="userSpaceOnUse" id="color-11">
      <stop offset="0" stop-color="#353535" id="stop21" />
      <stop offset="1" stop-color="#171717" id="stop22" />
    </linearGradient>
    <linearGradient x1="261.71078" y1="180.68797" x2="272.2197" y2="180.68797" gradientUnits="userSpaceOnUse" id="color-12">
      <stop offset="0" stop-color="#353535" id="stop23" />
      <stop offset="1" stop-color="#171717" id="stop24" />
    </linearGradient>
    <linearGradient x1="257.6243" y1="155.04543" x2="257.6243" y2="168.62981" gradientUnits="userSpaceOnUse" id="color-13">
      <stop offset="0" stop-color="#171717" id="stop25" />
      <stop offset="1" stop-color="#353535" id="stop26" />
    </linearGradient>
    <linearGradient x1="224.76086" y1="180.05719" x2="224.76086" y2="201.26724" gradientUnits="userSpaceOnUse" id="color-14">
      <stop offset="0" stop-color="#2e2e2e" id="stop27" />
      <stop offset="1" stop-color="#060606" id="stop28" />
    </linearGradient>
    <linearGradient x1="230.1759" y1="157.16685" x2="230.1759" y2="170.81345" gradientUnits="userSpaceOnUse" id="color-15">
      <stop offset="0" stop-color="#0e0e0e" id="stop29" />
      <stop offset="1" stop-color="#2f2f2f" id="stop30" />
    </linearGradient>
    <radialGradient cx="243.10512" cy="180.10339" r="49.06871" gradientUnits="userSpaceOnUse" id="color-16">
      <stop offset="0" stop-color="#717171" stop-opacity="0" id="stop31" />
      <stop offset="1" stop-color="#717171" stop-opacity="0" id="stop32" />
    </radialGradient>
    <radialGradient cx="281.85428" cy="180.25595" r="15.71479" gradientUnits="userSpaceOnUse" id="color-17">
      <stop offset="0" stop-color="#fbfbfb" id="stop33" />
      <stop offset="1" stop-color="#9d9d9d" id="stop34" />
    </radialGradient>
    <radialGradient cx="246.70404" cy="180.20786" r="25.49353" gradientUnits="userSpaceOnUse" id="color-18">
      <stop offset="0" stop-color="#fbfbfb" id="stop35" />
      <stop offset="1" stop-color="#9d9d9d" id="stop36" />
    </radialGradient>
    <radialGradient cx="205.22269" cy="180.29192" r="13.08049" gradientUnits="userSpaceOnUse" id="color-19">
      <stop offset="0" stop-color="#fbfbfb" id="stop37" />
      <stop offset="1" stop-color="#9d9d9d" id="stop38" />
    </radialGradient>
    <radialGradient cx="204.60068" cy="179.79369" r="11.24553" gradientUnits="userSpaceOnUse" id="color-20">
      <stop offset="0" stop-color="#717171" id="stop39" />
      <stop offset="1" stop-color="#191919" id="stop40" />
    </radialGradient>
  </defs>
  <g transform="translate(-184.67074,-143.3124)" id="g58">
    <g fill-rule="nonzero" stroke-linejoin="miter" stroke-miterlimit="10" stroke-dasharray="none" stroke-dashoffset="0" id="g57">
      <g id="g56">
        <path d="m 186.12524,188.08984 c 0,-3.40768 1.04486,-6.17013 2.33376,-6.17013 1.28891,0 2.33376,2.76245 2.33376,6.17013 0,3.40768 -1.04486,6.17014 -2.33376,6.17014 -1.28891,0 -2.33376,-2.76246 -2.33376,-6.17014 z" fill="url(#color-1)" stroke="url(#color-2)" stroke-width="1.5" stroke-linecap="butt" id="path40" style="fill:url(#color-1);stroke:url(#color-2)" />
        <path d="m 186.12524,172.8215 c 0,-3.40768 1.04486,-6.17013 2.33376,-6.17013 1.28889,0 2.33376,2.76245 2.33376,6.17013 0,3.40768 -1.04486,6.17013 -2.33376,6.17013 -1.28889,0 -2.33376,-2.76245 -2.33376,-6.17013 z" fill="url(#color-3)" stroke="url(#color-4)" stroke-width="1.5" stroke-linecap="butt" id="path41" style="fill:url(#color-3);stroke:url(#color-4)" />
        <path d="m 185.42074,180.42536 c 0,-2.20832 2.88836,-3.99853 6.45136,-3.99853 3.56297,0 9.28155,1.97888 9.28155,4.18721 0,2.20832 -5.71856,3.80985 -9.28155,3.80985 -3.56297,0 -6.45136,-1.7902 -6.45136,-3.99853 z" fill="url(#color-5)" stroke="url(#color-6)" stroke-width="1.5" stroke-linecap="butt" id="path42" style="fill:url(#color-5);stroke:url(#color-6)" />
        <path d="m 217.50277,213.50327 c 0,-4.41759 5.91075,-18.68457 6.03646,-33.46782 0.11276,-13.2596 -5.55811,-26.9677 -5.55811,-33.80508 0,-2.9196 3.87796,-2.62718 6.33381,-0.67848 9.22198,7.31756 29.90098,24.9241 29.90098,35.08917 0,9.38593 -19.55487,25.53787 -29.49723,33.14353 -3.38909,2.59256 -7.2159,2.42993 -7.2159,-0.2813 z" fill="url(#color-7)" stroke="#000000" stroke-width="1.5" stroke-linecap="butt" id="path43" style="fill:url(#color-7)" />
        <path d="m 190.83249,197.3707 c 0,-0.77827 -0.60596,-2.32969 0.57802,-4.09241 2.32206,-3.45711 7.2671,-8.25974 7.32447,-13.36767 0.0555,-4.9452 -5.14863,-9.44851 -7.37367,-13.23782 -0.88741,-1.51129 -0.19922,-3.38118 -0.19922,-4.3982 0,-1.52315 2.67202,-1.37059 4.36417,-0.35396 6.3542,3.81755 24.97114,6.27064 25.46876,18.49309 0.40494,9.94608 -18.34001,13.13589 -25.19057,17.10374 -2.33517,1.35253 -4.97196,1.2677 -4.97196,-0.14675 z" fill="url(#color-8)" stroke="#000000" stroke-width="1.5" stroke-linecap="butt" id="path44" style="fill:url(#color-8)" />
        <path d="m 247.23833,154.91761 c 20.47423,0 45.18647,18.50617 44.79712,25.29434 -0.44052,7.68037 -24.44245,25.18389 -44.9167,25.18389 -20.47424,0 -52.54176,-23.75492 -53.2161,-24.60908 -0.0546,-1.16275 32.86144,-25.86914 53.33568,-25.86914 z" fill="url(#color-9)" stroke="#000000" stroke-width="1.5" stroke-linecap="butt" id="path45" style="fill:url(#color-9)" />
        <path d="m 231.00282,175.60111 c 0.55785,-0.31854 5.108,0.98932 6.56733,0.23228 1.4859,-0.77082 2.93301,-2.7678 4.0782,-2.52511 2.34149,0.49622 2.73369,4.44929 2.73369,4.44929 l -3.85954,9.8374 c 0,0 -2.32807,2.296 -4.17964,2.15005 -0.9332,-0.0736 -3.27067,-3.30589 -3.55063,-3.78858 -0.56739,-0.97822 4.04305,-1.74066 4.11862,-4.05062 0.037,-1.13029 -2.86667,-0.64326 -4.69378,-1.54325 -2.28675,-1.12641 -2.48563,-4.03551 -1.21424,-4.76147 z" fill="url(#color-10)" stroke="#000000" stroke-width="0" stroke-linecap="round" id="path46" style="fill:url(#color-10)" />
        <path d="m 262.66903,191.23597 c 1.01695,1.80101 0.56895,4.71743 1.78483,4.64847 2.4849,-0.14094 3.18453,-4.77137 4.25259,-4.23188 0.52702,0.2662 4.06836,2.51135 4.17208,3.44215 0.2058,1.8468 -2.20485,4.23907 -2.20485,4.23907 l -10.48938,4.13671 c 0,0 -4.26614,-0.28015 -4.86192,-2.60679 -0.29139,-1.13792 1.82049,-2.64106 2.61129,-4.14827 0.77665,-1.48026 -0.75096,-5.99181 -0.4227,-6.55849 0.74814,-1.2915 3.88528,-1.17505 5.15806,1.07903 z" fill="url(#color-11)" stroke="#000000" stroke-width="0" stroke-linecap="round" id="path47" style="fill:url(#color-11)" />
        <path d="m 261.99793,184.22931 c -1.69293,-2.08414 4.61774,-1.19031 5.44613,-3.80421 0.75191,-2.37259 -2.32766,-6.14702 -1.44362,-6.95342 0.43621,-0.3979 1.99824,-2.24433 2.90508,-2.01028 1.79927,0.46438 3.17794,3.56816 3.17794,3.56816 l 0.13625,11.27479 c 0,0 -1.7789,3.88767 -4.16532,3.61714 -1.16717,-0.1323 0.55915,-2.26391 -0.56833,-3.53898 -1.10733,-1.25227 -5.07524,-1.64488 -5.48815,-2.1532 z" fill="url(#color-12)" stroke="#000000" stroke-width="0" stroke-linecap="round" id="path48" style="fill:url(#color-12)" />
        <path d="m 263.08475,158.09069 c 0,0 -4.71059,0.74221 -5.7857,3.26468 -0.97587,2.2896 1.72775,6.34183 0.77048,7.05978 -1.40951,1.05713 -5.90569,-2.13378 -5.90569,-2.13378 l 0.94508,-11.23594 9.97583,3.04525 z" fill="url(#color-13)" stroke="#000000" stroke-width="0" stroke-linecap="round" id="path49" style="fill:url(#color-13)" />
        <path d="m 216.56196,180.29885 c 1.67408,-0.66963 7.48972,-0.0172 8.49798,2.83658 0.75807,2.14569 -3.39813,6.34944 -1.86993,7.65084 0.79547,0.67741 5.36424,-0.57263 7.5374,-0.28717 2.35365,0.30916 2.31817,2.16043 3.10467,3.15426 1.73797,2.19613 -4.09146,7.61389 -4.09146,7.61389 l -14.03701,-6.55061 c 0,0 -1.17454,-13.60463 0.85836,-14.41779 z" fill="url(#color-14)" stroke="#000000" stroke-width="0" stroke-linecap="round" id="path50" style="fill:url(#color-14)" />
        <path d="m 221.55889,162.78165 c 0,0 4.53757,-2.71119 7.07074,-3.62679 2.64048,-0.95439 8.46356,-1.98802 8.46356,-1.98802 0,0 3.95783,6.91504 2.21986,9.11118 -1.51268,1.91145 -8.61076,-0.97708 -10.26775,0.434 -3.56076,3.03231 -4.63109,4.92276 -7.56385,3.74965 -2.03289,-0.81315 0.0774,-7.68002 0.0774,-7.68002 z" fill="url(#color-15)" stroke="#000000" stroke-width="0" stroke-linecap="round" id="path51" style="fill:url(#color-15)" />
        <path d="m 247.37217,154.86428 c 20.47423,0 45.18647,18.50617 44.79712,25.29434 -0.44052,7.68037 -24.44245,25.18389 -44.9167,25.18389 -20.47424,0 -52.54176,-23.75492 -53.2161,-24.60908 -0.0545,-1.16275 32.86144,-25.86914 53.33568,-25.86914 z" fill="url(#color-16)" stroke="#000000" stroke-width="1.5" stroke-linecap="butt" id="path52" style="fill:url(#color-16)" />
        <path d="m 277.32306,164.8333 c 2.94554,2.2421 15.30817,9.29767 14.72081,15.93262 -0.6008,6.78665 -12.01659,13.67314 -14.94076,14.86191 -2.33339,2.44202 -5.51082,-8.71522 -5.45804,-15.83875 0.0543,-7.33658 3.34955,-17.06203 5.678,-14.95578 z" fill="url(#color-17)" stroke="#9e9e9e" stroke-width="1.5" stroke-linecap="butt" id="path53" style="fill:url(#color-17)" />
        <path d="m 242.20982,204.96847 c 0,0 -2.22884,-7.21751 -2.22633,-24.79916 0.002,-16.92481 3.78233,-24.99503 3.78233,-24.99503 0,0 3.07155,-0.53152 4.68628,-0.45181 1.60479,0.0792 4.97249,0.58276 4.97249,0.58276 0,0 -1.76201,12.9503 -1.84453,24.91251 -0.0708,10.26498 1.7442,24.92926 1.7442,24.92926 0,0 -3.89028,0.58356 -5.77801,0.55324 -1.81417,-0.0291 -5.33644,-0.73176 -5.33644,-0.73176 z" fill="url(#color-18)" stroke="#9e9e9e" stroke-width="1.5" stroke-linecap="butt" id="path54" style="fill:url(#color-18)" />
        <path d="m 212.00597,167.44193 c 2.32845,-1.75305 -0.22585,6.87334 -0.1715,12.97967 0.0528,5.92901 2.72484,14.68355 0.39145,12.65102 -2.92417,-0.98943 -14.33997,-6.72114 -14.94076,-12.36976 -0.58737,-5.52235 11.77527,-11.3948 14.72081,-13.26093 z" fill="url(#color-19)" stroke="#9e9e9e" stroke-width="1.5" stroke-linecap="butt" id="path55" style="fill:url(#color-19)" />
        <path d="m 199.22667,183.93957 c -6.99904,-1.54811 -11.96348,-2.70594 -11.96348,-3.79434 0,-1.21437 5.5123,-2.54672 13.26319,-4.24631 2.98358,-0.65422 9.14996,1.77755 9.22713,4.19164 0.0779,2.43796 -5.97041,4.85685 -10.52685,3.849 z" fill="url(#color-20)" stroke="#000000" stroke-width="1.5" stroke-linecap="butt" id="path56" style="fill:url(#color-20)" />
      </g>
    </g>
  </g>
</svg>
