<svg version="1.1" xmlns="http://www.w3.org/2000/svg" xmlns:xlink="http://www.w3.org/1999/xlink" width="108.25309" height="73.07371" viewBox="0,0,108.25309,73.07371"><defs><linearGradient x1="188.45901" y1="179.22728" x2="188.45901" y2="196.95238" gradientUnits="userSpaceOnUse" id="color-1"><stop offset="0" stop-color="#e3e3e3"/><stop offset="1" stop-color="#808080"/></linearGradient><linearGradient x1="188.45901" y1="179.22728" x2="188.45901" y2="196.95238" gradientUnits="userSpaceOnUse" id="color-2"><stop offset="0" stop-color="#808080"/><stop offset="1" stop-color="#e2e2e2"/></linearGradient><linearGradient x1="188.45901" y1="163.95896" x2="188.45901" y2="181.68406" gradientUnits="userSpaceOnUse" id="color-3"><stop offset="0" stop-color="#e3e3e3"/><stop offset="1" stop-color="#808080"/></linearGradient><linearGradient x1="188.45901" y1="163.95896" x2="188.45901" y2="181.68406" gradientUnits="userSpaceOnUse" id="color-4"><stop offset="0" stop-color="#808080"/><stop offset="1" stop-color="#e2e2e2"/></linearGradient><linearGradient x1="191.87209" y1="174.68203" x2="191.87209" y2="186.1687" gradientUnits="userSpaceOnUse" id="color-5"><stop offset="0" stop-color="#e3e3e3"/><stop offset="1" stop-color="#808080"/></linearGradient><linearGradient x1="191.87209" y1="174.68203" x2="191.87209" y2="186.1687" gradientUnits="userSpaceOnUse" id="color-6"><stop offset="0" stop-color="#808080"/><stop offset="1" stop-color="#e2e2e2"/></linearGradient><radialGradient cx="232.09236" cy="179.26462" r="24.87385" gradientUnits="userSpaceOnUse" id="color-7"><stop offset="0" stop-color="#717171"/><stop offset="1" stop-color="#191919"/></radialGradient><radialGradient cx="200.88511" cy="179.50848" r="17.13877" gradientUnits="userSpaceOnUse" id="color-8"><stop offset="0" stop-color="#717171"/><stop offset="1" stop-color="#191919"/></radialGradient><radialGradient cx="244.72701" cy="181.0956" r="42.75261" gradientUnits="userSpaceOnUse" id="color-9"><stop offset="0" stop-color="#717171"/><stop offset="1" stop-color="#191919"/></radialGradient><linearGradient x1="232.60665" y1="179.44977" x2="242.52352" y2="182.6788" gradientUnits="userSpaceOnUse" id="color-10"><stop offset="0" stop-color="#353535"/><stop offset="1" stop-color="#171717"/></linearGradient><linearGradient x1="261.69655" y1="191.65126" x2="265.43356" y2="201.47328" gradientUnits="userSpaceOnUse" id="color-11"><stop offset="0" stop-color="#353535"/><stop offset="1" stop-color="#171717"/></linearGradient><linearGradient x1="261.71077" y1="180.68798" x2="272.2197" y2="180.68798" gradientUnits="userSpaceOnUse" id="color-12"><stop offset="0" stop-color="#353535"/><stop offset="1" stop-color="#171717"/></linearGradient><linearGradient x1="257.62429" y1="155.04543" x2="257.62429" y2="168.62981" gradientUnits="userSpaceOnUse" id="color-13"><stop offset="0" stop-color="#171717"/><stop offset="1" stop-color="#353535"/></linearGradient><linearGradient x1="224.76086" y1="180.05719" x2="224.76086" y2="201.26724" gradientUnits="userSpaceOnUse" id="color-14"><stop offset="0" stop-color="#2e2e2e"/><stop offset="1" stop-color="#060606"/></linearGradient><linearGradient x1="230.1759" y1="157.16685" x2="230.1759" y2="170.81345" gradientUnits="userSpaceOnUse" id="color-15"><stop offset="0" stop-color="#0e0e0e"/><stop offset="1" stop-color="#2f2f2f"/></linearGradient><radialGradient cx="243.10512" cy="180.1034" r="49.06871" gradientUnits="userSpaceOnUse" id="color-16"><stop offset="0" stop-color="#717171" stop-opacity="0"/><stop offset="1" stop-color="#717171" stop-opacity="0"/></radialGradient><radialGradient cx="281.85427" cy="180.25595" r="15.71479" gradientUnits="userSpaceOnUse" id="color-17"><stop offset="0" stop-color="#fbfbfb"/><stop offset="1" stop-color="#9d9d9d"/></radialGradient><radialGradient cx="246.70404" cy="180.20785" r="25.49353" gradientUnits="userSpaceOnUse" id="color-18"><stop offset="0" stop-color="#fbfbfb"/><stop offset="1" stop-color="#9d9d9d"/></radialGradient><radialGradient cx="205.22268" cy="180.29191" r="13.08049" gradientUnits="userSpaceOnUse" id="color-19"><stop offset="0" stop-color="#fbfbfb"/><stop offset="1" stop-color="#9d9d9d"/></radialGradient><radialGradient cx="204.60067" cy="179.79369" r="11.24553" gradientUnits="userSpaceOnUse" id="color-20"><stop offset="0" stop-color="#717171"/><stop offset="1" stop-color="#191919"/></radialGradient></defs><g transform="translate(-184.67074,-143.31263)"><g data-paper-data="{&quot;isPaintingLayer&quot;:true}" fill-rule="nonzero" stroke-linejoin="miter" stroke-miterlimit="10" stroke-dasharray="" stroke-dashoffset="0" style="mix-blend-mode: normal"><g><path d="M186.12524,188.08984c0,-3.40768 1.04486,-6.17013 2.33376,-6.17013c1.28891,0 2.33376,2.76245 2.33376,6.17013c0,3.40768 -1.04486,6.17014 -2.33376,6.17014c-1.28891,0 -2.33376,-2.76246 -2.33376,-6.17014z" fill="url(#color-1)" stroke="url(#color-2)" stroke-width="1.5" stroke-linecap="butt"/><path d="M186.12524,172.8215c0,-3.40768 1.04486,-6.17013 2.33376,-6.17013c1.28889,0 2.33376,2.76245 2.33376,6.17013c0,3.40768 -1.04486,6.17013 -2.33376,6.17013c-1.28889,0 -2.33376,-2.76245 -2.33376,-6.17013z" fill="url(#color-3)" stroke="url(#color-4)" stroke-width="1.5" stroke-linecap="butt"/><path d="M185.42074,180.42536c0,-2.20832 2.88836,-3.99853 6.45136,-3.99853c3.56297,0 9.28155,1.97888 9.28155,4.18721c0,2.20832 -5.71856,3.80985 -9.28155,3.80985c-3.56297,0 -6.45136,-1.7902 -6.45136,-3.99853z" fill="url(#color-5)" stroke="url(#color-6)" stroke-width="1.5" stroke-linecap="butt"/><path d="M217.50277,213.50327c0,-4.41759 5.91075,-18.68457 6.03646,-33.46782c0.11276,-13.2596 -5.55811,-26.9677 -5.55811,-33.80508c0,-2.9196 3.87796,-2.62718 6.33381,-0.67848c9.22198,7.31756 29.90098,24.9241 29.90098,35.08917c0,9.38593 -19.55487,25.53787 -29.49723,33.14353c-3.38909,2.59256 -7.2159,2.42993 -7.2159,-0.2813z" fill="url(#color-7)" stroke="#000000" stroke-width="1.5" stroke-linecap="butt"/><path d="M190.83249,197.3707c0,-0.77827 -0.60596,-2.32969 0.57802,-4.09241c2.32206,-3.45711 7.2671,-8.25974 7.32447,-13.36767c0.05554,-4.9452 -5.14863,-9.44851 -7.37367,-13.23782c-0.88741,-1.51129 -0.19922,-3.38118 -0.19922,-4.3982c0,-1.52315 2.67202,-1.37059 4.36417,-0.35396c6.3542,3.81755 24.97114,6.27064 25.46876,18.49309c0.40494,9.94608 -18.34001,13.13589 -25.19057,17.10374c-2.33517,1.35253 -4.97196,1.2677 -4.97196,-0.14675z" fill="url(#color-8)" stroke="#000000" stroke-width="1.5" stroke-linecap="butt"/><path d="M247.23833,154.91761c20.47423,0 45.18647,18.50617 44.79712,25.29434c-0.44052,7.68037 -24.44245,25.18389 -44.9167,25.18389c-20.47424,0 -52.54176,-23.75492 -53.2161,-24.60908c-0.05455,-1.16275 32.86144,-25.86914 53.33568,-25.86914z" fill="url(#color-9)" stroke="#000000" stroke-width="1.5" stroke-linecap="butt"/><path d="M231.00282,175.60111c0.55785,-0.31854 5.108,0.98932 6.56733,0.23228c1.4859,-0.77082 2.93301,-2.7678 4.0782,-2.52511c2.34149,0.49622 2.73369,4.44929 2.73369,4.44929l-3.85954,9.8374c0,0 -2.32807,2.296 -4.17964,2.15005c-0.9332,-0.07356 -3.27067,-3.30589 -3.55063,-3.78858c-0.56739,-0.97822 4.04305,-1.74066 4.11862,-4.05062c0.03698,-1.13029 -2.86667,-0.64326 -4.69378,-1.54325c-2.28675,-1.12641 -2.48563,-4.03551 -1.21424,-4.76147z" data-paper-data="{&quot;index&quot;:null}" fill="url(#color-10)" stroke="#000000" stroke-width="0" stroke-linecap="round"/><path d="M262.66903,191.23597c1.01695,1.80101 0.56895,4.71743 1.78483,4.64847c2.4849,-0.14094 3.18453,-4.77137 4.25259,-4.23188c0.52702,0.2662 4.06836,2.51135 4.17208,3.44215c0.2058,1.8468 -2.20485,4.23907 -2.20485,4.23907l-10.48938,4.13671c0,0 -4.26614,-0.28015 -4.86192,-2.60679c-0.29139,-1.13792 1.82049,-2.64106 2.61129,-4.14827c0.77665,-1.48026 -0.75096,-5.99181 -0.4227,-6.55849c0.74814,-1.2915 3.88528,-1.17505 5.15806,1.07903z" fill="url(#color-11)" stroke="#000000" stroke-width="0" stroke-linecap="round"/><path d="M261.99793,184.22931c-1.69293,-2.08414 4.61774,-1.19031 5.44613,-3.80421c0.75191,-2.37259 -2.32766,-6.14702 -1.44362,-6.95342c0.43621,-0.3979 1.99824,-2.24433 2.90508,-2.01028c1.79927,0.46438 3.17794,3.56816 3.17794,3.56816l0.13625,11.27479c0,0 -1.7789,3.88767 -4.16532,3.61714c-1.16717,-0.1323 0.55915,-2.26391 -0.56833,-3.53898c-1.10733,-1.25227 -5.07524,-1.64488 -5.48815,-2.1532z" fill="url(#color-12)" stroke="#000000" stroke-width="0" stroke-linecap="round"/><path d="M263.08475,158.09069c0,0 -4.71059,0.74221 -5.7857,3.26468c-0.97587,2.2896 1.72775,6.34183 0.77048,7.05978c-1.40951,1.05713 -5.90569,-2.13378 -5.90569,-2.13378l0.94508,-11.23594l9.97583,3.04525z" fill="url(#color-13)" stroke="#000000" stroke-width="0" stroke-linecap="round"/><path d="M216.56196,180.29885c1.67408,-0.66963 7.48972,-0.01725 8.49798,2.83658c0.75807,2.14569 -3.39813,6.34944 -1.86993,7.65084c0.79547,0.67741 5.36424,-0.57263 7.5374,-0.28717c2.35365,0.30916 2.31817,2.16043 3.10467,3.15426c1.73797,2.19613 -4.09146,7.61389 -4.09146,7.61389l-14.03701,-6.55061c0,0 -1.17454,-13.60463 0.85836,-14.41779z" data-paper-data="{&quot;index&quot;:null}" fill="url(#color-14)" stroke="#000000" stroke-width="0" stroke-linecap="round"/><path d="M221.55889,162.78165c0,0 4.53757,-2.71119 7.07074,-3.62679c2.64048,-0.95439 8.46356,-1.98802 8.46356,-1.98802c0,0 3.95783,6.91504 2.21986,9.11118c-1.51268,1.91145 -8.61076,-0.97708 -10.26775,0.434c-3.56076,3.03231 -4.63109,4.92276 -7.56385,3.74965c-2.03289,-0.81315 0.07744,-7.68002 0.07744,-7.68002z" fill="url(#color-15)" stroke="#000000" stroke-width="0" stroke-linecap="round"/><path d="M247.37217,154.86428c20.47423,0 45.18647,18.50617 44.79712,25.29434c-0.44052,7.68037 -24.44245,25.18389 -44.9167,25.18389c-20.47424,0 -52.54176,-23.75492 -53.2161,-24.60908c-0.05455,-1.16275 32.86144,-25.86914 53.33568,-25.86914z" fill="url(#color-16)" stroke="#000000" stroke-width="1.5" stroke-linecap="butt"/><path d="M277.32306,164.8333c2.94554,2.2421 15.30817,9.29767 14.72081,15.93262c-0.6008,6.78665 -12.01659,13.67314 -14.94076,14.86191c-2.33339,2.44202 -5.51082,-8.71522 -5.45804,-15.83875c0.05435,-7.33658 3.34955,-17.06203 5.678,-14.95578z" fill="url(#color-17)" stroke="#9e9e9e" stroke-width="1.5" stroke-linecap="butt"/><path d="M242.20982,204.96847c0,0 -2.22884,-7.21751 -2.22633,-24.79916c0.00239,-16.92481 3.78233,-24.99503 3.78233,-24.99503c0,0 3.07155,-0.53152 4.68628,-0.45181c1.60479,0.07922 4.97249,0.58276 4.97249,0.58276c0,0 -1.76201,12.9503 -1.84453,24.91251c-0.07082,10.26498 1.7442,24.92926 1.7442,24.92926c0,0 -3.89028,0.58356 -5.77801,0.55324c-1.81417,-0.02914 -5.33644,-0.73176 -5.33644,-0.73176z" data-paper-data="{&quot;index&quot;:null}" fill="url(#color-18)" stroke="#9e9e9e" stroke-width="1.5" stroke-linecap="butt"/><path d="M212.00597,167.44193c2.32845,-1.75305 -0.22585,6.87334 -0.1715,12.97967c0.05278,5.92901 2.72484,14.68355 0.39145,12.65102c-2.92417,-0.98943 -14.33997,-6.72114 -14.94076,-12.36976c-0.58737,-5.52235 11.77527,-11.3948 14.72081,-13.26093z" data-paper-data="{&quot;index&quot;:null}" fill="url(#color-19)" stroke="#9e9e9e" stroke-width="1.5" stroke-linecap="butt"/><path d="M199.22667,183.93957c-6.99904,-1.54811 -11.96348,-2.70594 -11.96348,-3.79434c0,-1.21437 5.5123,-2.54672 13.26319,-4.24631c2.98358,-0.65422 9.14996,1.77755 9.22713,4.19164c0.07794,2.43796 -5.97041,4.85685 -10.52685,3.849z" data-paper-data="{&quot;index&quot;:null}" fill="url(#color-20)" stroke="#000000" stroke-width="1.5" stroke-linecap="butt"/></g></g></g></svg>