<?xml version="1.0" encoding="UTF-8" standalone="no"?>
<svg
   version="1.1"
   width="53"
   height="40"
   viewBox="0,0,53.06878,39.86048"
   id="svg10"
   sodipodi:docname="drone.svg"
   inkscape:version="1.4.2 (f4327f4, 2025-05-13)"
   xmlns:inkscape="http://www.inkscape.org/namespaces/inkscape"
   xmlns:sodipodi="http://sodipodi.sourceforge.net/DTD/sodipodi-0.dtd"
   xmlns="http://www.w3.org/2000/svg"
   xmlns:svg="http://www.w3.org/2000/svg">
  <defs
     id="defs10" />
  <sodipodi:namedview
     id="namedview10"
     pagecolor="#ffffff"
     bordercolor="#000000"
     borderopacity="0.25"
     inkscape:showpageshadow="2"
     inkscape:pageopacity="0.0"
     inkscape:pagecheckerboard="0"
     inkscape:deskcolor="#d1d1d1"
     inkscape:zoom="19.56918"
     inkscape:cx="26.955651"
     inkscape:cy="20.057049"
     inkscape:window-width="2560"
     inkscape:window-height="1346"
     inkscape:window-x="2869"
     inkscape:window-y="273"
     inkscape:window-maximized="1"
     inkscape:current-layer="g9" />
  <g
     transform="translate(-222.87045,-159.85177)"
     id="g10">
    <g
       data-paper-data="{&quot;isPaintingLayer&quot;:true}"
       fill-rule="nonzero"
       stroke-linejoin="miter"
       stroke-miterlimit="10"
       stroke-dasharray=""
       stroke-dashoffset="0"
       style="mix-blend-mode: normal"
       id="g9">
      <path
         d="m 246.0754,179.97332 c 0,4.1744 -4.09676,7.72532 -9.27572,7.66076 -4.10485,-0.0512 -10.99497,-2.00314 -11.06657,-7.50727 -0.0776,-5.96562 6.70588,-7.96776 11.0154,-7.96776 5.17936,0 9.32689,3.63987 9.32689,7.81427 z"
         fill="#ffec00"
         stroke="#ff7b00"
         stroke-width="9"
         stroke-linecap="butt"
         id="path1"
         style="stroke-width:5.29486;stroke-dasharray:none"
         sodipodi:nodetypes="sssss" />
      <g
         id="g8">
        <g
           data-paper-data="{&quot;index&quot;:null}"
           stroke-width="4"
           id="g5">
          <path
             d="M242.93936,191.06844c0,0 -4.6207,-2.18474 -4.6407,-11.50893c-0.01847,-8.61312 4.6407,-10.5808 4.6407,-10.5808h23.01787v22.08973z"
             fill="#d14eff"
             stroke="#a6a6a6"
             stroke-linecap="butt"
             id="path2" />
          <path
             d="M267.48493,168.79309c3.56461,0 6.4543,5.02806 6.4543,11.23049c0,6.20243 -2.88968,11.23049 -6.4543,11.23049c-3.56462,0 -6.45431,-5.02806 -6.45431,-11.23049c0,-6.20243 2.88969,-11.23049 6.45431,-11.23049z"
             fill="#727272"
             stroke="#a6a6a6"
             stroke-linecap="butt"
             id="path3" />
          <path
             d="m 255.56206,185.31398 c 0,0 -1.53555,-2.06679 -1.57619,-5.19599 -0.043,-3.31371 1.39056,-5.38481 1.39056,-5.38481"
             fill="none"
             stroke="#727272"
             stroke-linecap="round"
             id="path4"
             sodipodi:nodetypes="csc" />
          <path
             d="m 248.69383,185.49961 c 0,0 -1.50952,-2.1623 -1.48503,-5.75447 0.0236,-3.46752 1.48503,-5.01196 1.48503,-5.01196"
             fill="none"
             stroke="#727272"
             stroke-linecap="round"
             id="path5"
             sodipodi:nodetypes="csc" />
        </g>
        <g
           id="path6"
           style="opacity:1">
          <path
             style="baseline-shift:baseline;display:inline;overflow:visible;vector-effect:none;fill:#4a5366;enable-background:accumulate;stop-color:#000000;stop-opacity:1"
             d="m 257.89774,180.74742 -15.06434,0.12944 2.75,-0.62944 z"
             id="path11" />
          <path
             style="baseline-shift:baseline;display:inline;overflow:visible;vector-effect:none;fill:#a6a6a6;enable-background:accumulate;stop-color:#000000;stop-opacity:1"
             d="m 245.44336,178.74023 -16.4043,3.75586 31.42945,-1.16905 1.04795,1.19944 -1.45965,-3.53427 z"
             id="path12"
             sodipodi:nodetypes="cccccc" />
          <path
             style="baseline-shift:baseline;display:inline;overflow:visible;vector-effect:none;fill:#a6a6a6;enable-background:accumulate;stop-color:#000000;stop-opacity:1"
             d="m 245.39219,181.50314 -16.4043,-3.75586 31.42945,1.16905 1.04795,-1.19944 -1.45965,3.53427 z"
             id="path13"
             sodipodi:nodetypes="cccccc" />
        </g>
        <path
           d="M247.30166,167.63528l-2.55993,-5.25144l18.09144,5.94069z"
           fill="#d14eff"
           stroke="#a6a6a6"
           stroke-width="3"
           stroke-linecap="butt"
           id="path7" />
        <path
           d="M261.90869,191.90813l-17.47695,5.14878l3.60814,-5.12206z"
           data-paper-data="{&quot;index&quot;:null}"
           fill="#d14eff"
           stroke="#a6a6a6"
           stroke-width="3"
           stroke-linecap="butt"
           id="path8" />
      </g>
    </g>
  </g>
</svg>
