<svg version="1.1" xmlns="http://www.w3.org/2000/svg" xmlns:xlink="http://www.w3.org/1999/xlink" width="53" height="40" viewBox="0,0,53.06878,39.86048"><g transform="translate(-222.87045,-159.85177)"><g data-paper-data="{&quot;isPaintingLayer&quot;:true}" fill-rule="nonzero" stroke-linejoin="miter" stroke-miterlimit="10" stroke-dasharray="" stroke-dashoffset="0" style="mix-blend-mode: normal"><path d="M246.12657,179.66631c0,4.1744 -4.1987,7.55843 -9.37806,7.55843c-5.17936,0 -9.37806,-3.38403 -9.37806,-7.55843c0,-4.1744 4.1987,-7.55843 9.37806,-7.55843c5.17936,0 9.37806,3.38403 9.37806,7.55843z" fill="#ffec00" stroke="#ff7b00" stroke-width="9" stroke-linecap="butt"/><g><g data-paper-data="{&quot;index&quot;:null}" stroke-width="4"><path d="M242.93936,191.06844c0,0 -4.6207,-2.18474 -4.6407,-11.50893c-0.01847,-8.61312 4.6407,-10.5808 4.6407,-10.5808h23.01787v22.08973z" fill="#d14eff" stroke="#a6a6a6" stroke-linecap="butt"/><path d="M267.48493,168.79309c3.56461,0 6.4543,5.02806 6.4543,11.23049c0,6.20243 -2.88968,11.23049 -6.4543,11.23049c-3.56462,0 -6.45431,-5.02806 -6.45431,-11.23049c0,-6.20243 2.88969,-11.23049 6.45431,-11.23049z" fill="#727272" stroke="#a6a6a6" stroke-linecap="butt"/><path d="M255.56206,185.31398c0,0 -1.54553,-3.44854 -1.57619,-5.19599c-0.03121,-1.77892 1.39056,-5.38481 1.39056,-5.38481" fill="none" stroke="#727272" stroke-linecap="round"/><path d="M248.69383,185.49961c0,0 -1.48503,-3.90254 -1.48503,-5.75447c0,-1.72833 1.48503,-5.01196 1.48503,-5.01196" fill="none" stroke="#727272" stroke-linecap="round"/></g><path d="M258.86991,180.84975l-15.06434,0.12944l2.75,-0.62944z" data-paper-data="{&quot;index&quot;:null}" fill="#4a5366" stroke="#a6a6a6" stroke-width="3" stroke-linecap="butt"/><path d="M247.30166,167.63528l-2.55993,-5.25144l18.09144,5.94069z" fill="#d14eff" stroke="#a6a6a6" stroke-width="3" stroke-linecap="butt"/><path d="M261.90869,191.90813l-17.47695,5.14878l3.60814,-5.12206z" data-paper-data="{&quot;index&quot;:null}" fill="#d14eff" stroke="#a6a6a6" stroke-width="3" stroke-linecap="butt"/></g></g></g></svg>