<svg version="1.1" xmlns="http://www.w3.org/2000/svg" xmlns:xlink="http://www.w3.org/1999/xlink" width="125.57199" height="82.40003" viewBox="0,0,125.57199,82.40003"><defs><radialGradient cx="187.88105" cy="181.42207" r="23.91721" gradientUnits="userSpaceOnUse" id="color-1"><stop offset="0" stop-color="#2727ac"/><stop offset="1" stop-color="#0d0d54"/></radialGradient><linearGradient x1="197.9344" y1="181.42207" x2="281.27979" y2="181.42207" gradientUnits="userSpaceOnUse" id="color-2"><stop offset="0" stop-color="#ad00ad"/><stop offset="1" stop-color="#ff00ff"/></linearGradient><radialGradient cx="198.90729" cy="148.01905" r="12.44885" gradientUnits="userSpaceOnUse" id="color-3"><stop offset="0" stop-color="#ff00ff"/><stop offset="1" stop-color="#ad00ad"/></radialGradient><radialGradient cx="199.2316" cy="214.50079" r="12.44885" gradientUnits="userSpaceOnUse" id="color-4"><stop offset="0" stop-color="#ff00ff"/><stop offset="1" stop-color="#ad00ad"/></radialGradient><linearGradient x1="191.74601" y1="181.5887" x2="208.72793" y2="181.5887" gradientUnits="userSpaceOnUse" id="color-5"><stop offset="0" stop-color="#c400c4"/><stop offset="1" stop-color="#ff00ff"/></linearGradient><linearGradient x1="208.90729" y1="189.02095" x2="225.88923" y2="189.02095" gradientUnits="userSpaceOnUse" id="color-6"><stop offset="0" stop-color="#df00df"/><stop offset="1" stop-color="#ff00ff"/></linearGradient><linearGradient x1="225.58214" y1="181.21106" x2="242.56407" y2="181.21106" gradientUnits="userSpaceOnUse" id="color-7"><stop offset="0" stop-color="#df00df"/><stop offset="1" stop-color="#ff00ff"/></linearGradient><linearGradient x1="268.56843" y1="181.39988" x2="285.07419" y2="181.39988" gradientUnits="userSpaceOnUse" id="color-8"><stop offset="0" stop-color="#d900d9"/><stop offset="1" stop-color="#fd00fd"/></linearGradient><linearGradient x1="254.41848" y1="180.1028" x2="270.50278" y2="180.1028" gradientUnits="userSpaceOnUse" id="color-9"><stop offset="0" stop-color="#df00df"/><stop offset="1" stop-color="#ff00ff"/></linearGradient><linearGradient x1="241.60838" y1="180.37364" x2="258.59031" y2="180.37364" gradientUnits="userSpaceOnUse" id="color-10"><stop offset="0" stop-color="#df00df"/><stop offset="1" stop-color="#ff00ff"/></linearGradient></defs><g transform="translate(-161.49771,-140.04657)"><g data-paper-data="{&quot;isPaintingLayer&quot;:true}" fill-rule="nonzero" stroke="#000000" stroke-linejoin="miter" stroke-miterlimit="10" stroke-dasharray="" stroke-dashoffset="0" style="mix-blend-mode: normal"><g><path d="M174.98509,204.90724l-7.87165,-0.20842l-3.31037,-7.55354l8.52558,-15.91365l-8.00689,-17.51064l2.96986,-5.48043l7.88146,-1.16774l16.56507,16.95597l0.00786,15.14984z" fill="url(#color-1)" stroke-width="2" stroke-linecap="butt"/><path d="M191.12406,189.04315l0.02214,-15.14984l51.21745,-24.25275h12.16129l31.01148,31.61774l-31.245,32.1287l-13.22498,-0.02126z" fill="url(#color-2)" stroke-width="2" stroke-linecap="butt"/><path d="M199.39375,158.72099l-12.57426,-13.01671l3.98027,-4.65771h17.02581l3.89162,4.37807z" fill="url(#color-3)" stroke-width="2" stroke-linecap="butt"/><path d="M212.01482,217.06853l-3.89161,4.37807h-17.02582l-3.98027,-4.65771l12.57425,-13.01671z" data-paper-data="{&quot;index&quot;:null}" fill="url(#color-4)" stroke-width="2" stroke-linecap="butt"/><path d="M163.39631,181.25992l9.24258,-0.16215" fill="none" stroke-width="2.5" stroke-linecap="round"/><path d="M162.74772,186.93519v-11.18839h1.13505v11.18839z" fill="none" stroke-width="2.5" stroke-linecap="butt"/><path d="M191.74601,188.75032l0.02214,-14.44927l16.64577,-7.76196l0.31402,30.09921z" fill="url(#color-5)" stroke-width="0" stroke-linecap="butt"/><path d="M208.90729,196.56839l-0.46432,-30.46983l16.32147,-7.04506l1.12477,45.82781z" fill="url(#color-6)" stroke-width="0" stroke-linecap="butt"/><path d="M226.0686,205.1357l-0.95078,-46.84704l16.97008,-8.18012l0.63832,63.82653z" fill="url(#color-7)" stroke-width="0" stroke-linecap="butt"/><path d="M268.74087,198.39529l-0.17244,-33.99082l16.50576,17.02241z" data-paper-data="{&quot;index&quot;:null}" fill="url(#color-8)" stroke-width="0" stroke-linecap="butt"/><path d="M255.18639,211.24408l-0.2862,-59.81909l14.07654,14.09073l0.451,31.00109z" fill="url(#color-9)" stroke-width="0" stroke-linecap="butt"/><path d="M242.41914,213.54086l-0.30217,-63.7107l12.42986,-0.23474l-0.01028,64.15083z" fill="url(#color-10)" stroke-width="0" stroke-linecap="butt"/><path d="M191.25954,189.17863l0.02214,-15.14984l51.21745,-24.25275h12.16129l31.01148,31.61774l-31.245,32.1287l-13.22498,-0.02126z" fill="none" stroke-width="2" stroke-linecap="butt"/></g></g></g></svg>