<svg version="1.1" xmlns="http://www.w3.org/2000/svg" xmlns:xlink="http://www.w3.org/1999/xlink" width="116.97335" height="80.0708" viewBox="0,0,116.97335,80.0708"><g transform="translate(-182.81868,-141.08252)"><g data-paper-data="{&quot;isPaintingLayer&quot;:true}" fill="none" fill-rule="nonzero" stroke-linejoin="miter" stroke-miterlimit="10" stroke-dasharray="" stroke-dashoffset="0" style="mix-blend-mode: normal"><path d="" stroke="#29f0f0" stroke-width="8" stroke-linecap="butt"/><path d="" stroke="#29f0f0" stroke-width="8" stroke-linecap="round"/><path d="" stroke="#29f0f0" stroke-width="8" stroke-linecap="round"/><path d="" stroke="#29f0f0" stroke-width="8" stroke-linecap="round"/><path d="" stroke="#29f0f0" stroke-width="8" stroke-linecap="round"/><path d="" stroke="#000000" stroke-width="2.5" stroke-linecap="butt"/><path d="" stroke="#000000" stroke-width="2.5" stroke-linecap="butt"/><path d="" stroke="#ffff00" stroke-width="9" stroke-linecap="butt"/><g><path d="M239.13263,180.63569c0,6.54412 -5.27421,11.84918 -11.78029,11.84918c-6.50608,0 -11.78029,-5.30506 -11.78029,-11.84918c0,-6.54412 5.27421,-11.84918 11.78029,-11.84918c6.50608,0 11.78029,5.30506 11.78029,11.84918z" stroke="#29f0f0" stroke-width="8" stroke-linecap="butt"/><path d="M227.28345,167.95981l0.13777,-14.74258" stroke="#29f0f0" stroke-width="8" stroke-linecap="round"/><path d="M227.0079,209.15639l0.13777,-16.39596" stroke="#29f0f0" stroke-width="8" stroke-linecap="round"/><path d="M196.42046,180.91123l18.87602,-0.13777" stroke="#29f0f0" stroke-width="8" stroke-linecap="round"/><path d="M272.75122,179.94679l-32.51635,0.6889" stroke="#29f0f0" stroke-width="8" stroke-linecap="round"/><path d="M267.09772,194.17402c-8.70088,9.49091 -30.13418,18.85423 -41.57963,18.85423c-19.29942,0 -34.94468,-14.44797 -34.94468,-32.27044c0,-17.82248 15.64528,-32.27044 34.94468,-32.27044c12.47784,0 27.00548,5.76655 38.80932,16.64873c9.07736,8.17884 20.36148,15.3693 20.36148,15.3693c0,0 -10.29169,5.70635 -17.59116,13.66862z" stroke="#ffff00" stroke-width="14.5" stroke-linecap="butt"/><path d="M274.11658,196.82933c-10.29184,11.40698 -35.17526,23.07399 -48.71354,23.07399c-22.82833,0 -41.33435,-17.36481 -41.33435,-38.78539c0,-21.42058 18.50602,-38.78541 41.33435,-38.78541c14.75941,0 31.94347,6.93074 45.90563,20.00987c10.73717,9.83003 25.74057,18.63775 25.74057,18.63775c0,0 -14.29846,6.27946 -22.93266,15.84919z" stroke="#000000" stroke-width="2.5" stroke-linecap="butt"/><path d="M258.72273,191.70303c-6.95518,7.6266 -24.41554,14.87805 -33.56465,14.87805c-15.42729,0 -27.9336,-11.60994 -27.9336,-25.93153c0,-14.32159 12.50629,-25.93153 27.9336,-25.93153c9.97436,0 21.58727,4.63382 31.02285,13.3784c7.25613,6.57227 17.39538,12.46101 17.39538,12.46101c0,0 -9.01863,4.74737 -14.85358,11.1456z" stroke="#000000" stroke-width="2.5" stroke-linecap="butt"/></g></g></g></svg>