<?xml version="1.0" encoding="UTF-8" standalone="no"?>
<svg version="1.1" width="490.25525" height="293.125" viewBox="0 0 98.05105 58.625" id="svg55" sodipodi:docname="moab.svg" inkscape:version="1.4 (86a8ad7, 2024-10-11)" xmlns:inkscape="http://www.inkscape.org/namespaces/inkscape" xmlns:sodipodi="http://sodipodi.sourceforge.net/DTD/sodipodi-0.dtd" xmlns="http://www.w3.org/2000/svg" xmlns:svg="http://www.w3.org/2000/svg">
  <sodipodi:namedview id="namedview55" pagecolor="#ffffff" bordercolor="#000000" borderopacity="0.25" inkscape:showpageshadow="2" inkscape:pageopacity="0.0" inkscape:pagecheckerboard="0" inkscape:deskcolor="#d1d1d1" inkscape:zoom="12.742004" inkscape:cx="49.011128" inkscape:cy="29.3125" inkscape:window-width="1920" inkscape:window-height="986" inkscape:window-x="-11" inkscape:window-y="-11" inkscape:window-maximized="1" inkscape:current-layer="svg55" />
  <defs id="defs24">
    <linearGradient x1="191.37184" y1="179.45135" x2="191.37184" y2="197.17645" gradientUnits="userSpaceOnUse" id="color-1">
      <stop offset="0" stop-color="#e3e3e3" id="stop1" />
      <stop offset="1" stop-color="#808080" id="stop2" />
    </linearGradient>
    <linearGradient x1="191.37184" y1="179.45135" x2="191.37184" y2="197.17645" gradientUnits="userSpaceOnUse" id="color-2">
      <stop offset="0" stop-color="#808080" id="stop3" />
      <stop offset="1" stop-color="#e2e2e2" id="stop4" />
    </linearGradient>
    <linearGradient x1="191.37184" y1="164.18303" x2="191.37184" y2="181.90813" gradientUnits="userSpaceOnUse" id="color-3">
      <stop offset="0" stop-color="#e3e3e3" id="stop5" />
      <stop offset="1" stop-color="#808080" id="stop6" />
    </linearGradient>
    <linearGradient x1="191.37184" y1="164.18303" x2="191.37184" y2="181.90813" gradientUnits="userSpaceOnUse" id="color-4">
      <stop offset="0" stop-color="#808080" id="stop7" />
      <stop offset="1" stop-color="#e2e2e2" id="stop8" />
    </linearGradient>
    <linearGradient x1="194.78493" y1="174.9061" x2="194.78493" y2="186.39278" gradientUnits="userSpaceOnUse" id="color-5">
      <stop offset="0" stop-color="#e3e3e3" id="stop9" />
      <stop offset="1" stop-color="#808080" id="stop10" />
    </linearGradient>
    <linearGradient x1="194.78493" y1="174.9061" x2="194.78493" y2="186.39278" gradientUnits="userSpaceOnUse" id="color-6">
      <stop offset="0" stop-color="#808080" id="stop11" />
      <stop offset="1" stop-color="#e2e2e2" id="stop12" />
    </linearGradient>
    <radialGradient cx="210.8125" cy="179.50003" r="25.9998" gradientUnits="userSpaceOnUse" id="color-7">
      <stop offset="0" stop-color="#26c5f7" id="stop13" />
      <stop offset="1" stop-color="#1997fc" id="stop14" />
    </radialGradient>
    <radialGradient cx="248.31883" cy="180.70538" r="44.68787" gradientUnits="userSpaceOnUse" id="color-8">
      <stop offset="0" stop-color="#26c5f7" id="stop15" />
      <stop offset="1" stop-color="#1997fc" id="stop16" />
    </radialGradient>
    <radialGradient cx="248.63461" cy="181.02711" r="44.68787" gradientUnits="userSpaceOnUse" id="color-9">
      <stop offset="0" stop-color="#fcfcfc" id="stop17" />
      <stop offset="1" stop-color="#e1e1e1" id="stop18" />
    </radialGradient>
    <radialGradient cx="218.42339" cy="179.94157" r="9.8944902" gradientUnits="userSpaceOnUse" id="color-10">
      <stop offset="0" stop-color="#fcfcfc" id="stop19" />
      <stop offset="1" stop-color="#e1e1e1" id="stop20" />
    </radialGradient>
    <radialGradient cx="229.11781" cy="179.79654" r="9.8944902" gradientUnits="userSpaceOnUse" id="color-11">
      <stop offset="0" stop-color="#fcfcfc" id="stop21" />
      <stop offset="1" stop-color="#e1e1e1" id="stop22" />
    </radialGradient>
    <radialGradient cx="154.41296" cy="179.90648" r="67.023399" gradientUnits="userSpaceOnUse" id="color-12">
      <stop offset="0" stop-color="#26c5f7" id="stop23" />
      <stop offset="1" stop-color="#1997fc" id="stop24" />
    </radialGradient>
  </defs>
  <g transform="translate(-187.58357,-150.33039)" id="g55">
    <g fill-rule="nonzero" stroke-width="1.5" stroke-linejoin="miter" stroke-miterlimit="10" stroke-dasharray="none" stroke-dashoffset="0" id="g54">
      <path d="" fill="none" stroke="#0056cf" stroke-linecap="round" id="path24" />
      <g id="g53">
        <path d="m 189.03807,188.31391 c 0,-3.40768 1.04486,-6.17013 2.33376,-6.17013 1.28891,0 2.33376,2.76245 2.33376,6.17013 0,3.40768 -1.04486,6.17014 -2.33376,6.17014 -1.28891,0 -2.33376,-2.76246 -2.33376,-6.17014 z" fill="url(#color-1)" stroke="url(#color-2)" stroke-linecap="butt" id="path25" style="fill:url(#color-1);stroke:url(#color-2)" />
        <path d="m 189.03807,173.04557 c 0,-3.40768 1.04486,-6.17013 2.33376,-6.17013 1.28889,0 2.33376,2.76245 2.33376,6.17013 0,3.40768 -1.04486,6.17013 -2.33376,6.17013 -1.28889,0 -2.33376,-2.76245 -2.33376,-6.17013 z" fill="url(#color-3)" stroke="url(#color-4)" stroke-linecap="butt" id="path26" style="fill:url(#color-3);stroke:url(#color-4)" />
        <path d="m 188.33357,180.64943 c 0,-2.20832 2.88836,-3.99853 6.45136,-3.99853 3.56297,0 9.28155,1.97888 9.28155,4.18721 0,2.20832 -5.71856,3.80985 -9.28155,3.80985 -3.56297,0 -6.45136,-1.7902 -6.45136,-3.99853 z" fill="url(#color-5)" stroke="url(#color-6)" stroke-linecap="butt" id="path27" style="fill:url(#color-5);stroke:url(#color-6)" />
        <path d="m 195.5625,204.37503 c 0,-6.08812 0.5,-38.36924 0.5,-48.875 0,-2.12114 4.0535,-1.90868 6.62051,-0.49292 9.63942,5.31635 31.25449,18.1078 31.25449,25.49292 0,6.81906 -20.44004,18.55374 -30.83247,24.07938 -3.54251,1.88354 -7.54253,1.76539 -7.54253,-0.20437 z" fill="url(#color-7)" stroke="#0056cf" stroke-linecap="butt" id="path28" style="fill:url(#color-7)" />
        <path d="m 250.94383,151.08039 c 21.40103,0 33.625,12.95392 33.625,28.625 0,15.67108 -12.34896,28.5 -33.75,28.5 -21.40104,0 -55.81073,-18.20487 -55.625,-28.125 0.19743,-10.54484 34.34896,-29 55.75,-29 z" fill="url(#color-8)" stroke="#0056cf" stroke-linecap="butt" id="path29" style="fill:url(#color-8)" />
        <path d="m 195.375,180.00003 89.36905,0.35714" fill="none" stroke="#0056cf" stroke-linecap="round" id="path30" />
        <path d="m 195.375,180.00003 c 0,0 27.87203,-10.60119 57.47321,-10.85119 25.38763,-0.0324 31.77679,10.85119 31.77679,10.85119" fill="none" stroke="#0056cf" stroke-linecap="round" id="path31" />
        <path d="m 195.25,179.00003 c 0,0 32.21727,-19.66666 58.06845,-19.29166 28.51297,0.36041 31.18155,19.29166 31.18155,19.29166" fill="none" stroke="#0056cf" stroke-linecap="round" id="path32" />
        <path d="m 284.52381,180.72763 c 0,0 -5.55582,10.16932 -30.94345,10.13691 -29.60118,-0.25 -57.83035,-10.49405 -57.83035,-10.49405" fill="none" stroke="#0056cf" stroke-linecap="round" id="path33" />
        <path d="m 284.375,181.62049 c 0,0 -2.54953,18.69316 -31.0625,19.05357 -25.85118,0.375 -58.1875,-19.05357 -58.1875,-19.05357" fill="none" stroke="#0056cf" stroke-linecap="round" id="path34" />
        <path d="m 274.56861,158.54827 c 6.71495,5.26799 10.31601,12.97319 10.31601,21.47885 0,7.71032 -2.98935,14.73264 -8.5754,19.87749 -5.76749,5.31196 -7.39748,-45.79425 -1.74061,-41.35634 z" fill="url(#color-9)" stroke="#cfcfcf" stroke-linecap="butt" id="path35" style="fill:url(#color-9)" />
        <path d="m 271.36639,180.08368 c 6.44887,0 12.62202,0.35714 12.62202,0.35714" fill="none" stroke="#cfcfcf" stroke-linecap="round" id="path36" />
        <path d="m 271.33127,171.51972 c 10.35688,2.31428 13.25238,8.4449 13.25238,8.4449" fill="none" stroke="#cfcfcf" stroke-linecap="round" id="path37" />
        <path d="m 271.97374,163.56722 c 10.30279,6.68218 12.84205,15.8736 12.84205,15.8736" fill="none" stroke="#cfcfcf" stroke-linecap="round" id="path38" />
        <path d="m 284.72055,181.16841 c 0,0 -2.80114,5.16582 -12.72651,7.49123" fill="none" stroke="#cfcfcf" stroke-linecap="round" id="path39" />
        <path d="m 284.69079,182.06128 c 0,0 -3.62372,7.641 -11.4883,14.26894" fill="none" stroke="#cfcfcf" stroke-linecap="round" id="path40" />
        <path d="m 214.90931,198.06658 c 0,0 -2.27702,-10.59557 -2.32388,-18.05586 -0.0546,-8.69379 2.2575,-17.91636 2.2575,-17.91636 l 6.11328,-3.05555 c 0,0 -1.35651,8.5329 -1.35491,20.83337 0.002,12.77785 2.10672,21.52774 2.10672,21.52774 z" fill="url(#color-10)" stroke="#cfcfcf" stroke-linecap="butt" id="path41" style="fill:url(#color-10)" />
        <path d="m 225.60375,202.85392 c 0,0 -2.27702,-13.47895 -2.32388,-22.96942 -0.0546,-11.05964 2.2575,-22.79197 2.2575,-22.79197 l 6.39105,-2.35929 c 0,0 -1.63428,9.32719 -1.63269,24.975 0.002,16.2551 2.66227,25.85833 2.66227,25.85833 z" fill="url(#color-11)" stroke="#cfcfcf" stroke-linecap="butt" id="path42" style="fill:url(#color-11)" />
        <path d="m 213.51183,169.74935 6.51905,-2.80381" fill="none" stroke="#cfcfcf" stroke-linecap="round" id="path43" />
        <path d="m 219.66803,173.09888 -6.68,1.51714" fill="none" stroke="#cfcfcf" stroke-linecap="round" id="path44" />
        <path d="m 212.58993,180.00268 6.88,-0.04" fill="none" stroke="#cfcfcf" stroke-linecap="round" id="path45" />
        <path d="m 213.07183,185.18839 6.64095,1.72571" fill="none" stroke="#cfcfcf" stroke-linecap="round" id="path46" />
        <path d="m 213.63183,190.81697 6.6019,2.96571" fill="none" stroke="#cfcfcf" stroke-linecap="round" id="path47" />
        <path d="m 230.58803,188.86555 -6.76,-1.03905" fill="none" stroke="#cfcfcf" stroke-linecap="round" id="path48" />
        <path d="m 224.79088,195.14364 6.48286,2.16476" fill="none" stroke="#cfcfcf" stroke-linecap="round" id="path49" />
        <path d="m 224.47088,165.46268 6.12381,-2.20286" fill="none" stroke="#cfcfcf" stroke-linecap="round" id="path50" />
        <path d="m 223.94707,172.30079 6.44,-1.1581" fill="none" stroke="#cfcfcf" stroke-linecap="round" id="path51" />
        <path d="m 229.86993,179.92268 -6.56,0.08" fill="none" stroke="#cfcfcf" stroke-linecap="round" id="path52" />
        <path d="m 193.05666,180.3374 c 0.072,-2.07347 5.8212,-4.16213 8.60295,-3.60021 7.22655,1.45978 12.36597,2.60413 12.36597,3.64715 0,0.93483 -4.62862,1.92929 -11.15418,3.25897 -4.24822,0.86565 -9.8874,-1.21195 -9.81474,-3.30592 z" fill="url(#color-12)" stroke="#0056cf" stroke-linecap="butt" id="path53" style="fill:url(#color-12)" />
      </g>
    </g>
  </g>
</svg>
