<svg version="1.1" xmlns="http://www.w3.org/2000/svg" xmlns:xlink="http://www.w3.org/1999/xlink" width="98.05105" height="58.625" viewBox="0,0,98.05105,58.625"><defs><linearGradient x1="191.37184" y1="179.45135" x2="191.37184" y2="197.17645" gradientUnits="userSpaceOnUse" id="color-1"><stop offset="0" stop-color="#e3e3e3"/><stop offset="1" stop-color="#808080"/></linearGradient><linearGradient x1="191.37184" y1="179.45135" x2="191.37184" y2="197.17645" gradientUnits="userSpaceOnUse" id="color-2"><stop offset="0" stop-color="#808080"/><stop offset="1" stop-color="#e2e2e2"/></linearGradient><linearGradient x1="191.37184" y1="164.18303" x2="191.37184" y2="181.90813" gradientUnits="userSpaceOnUse" id="color-3"><stop offset="0" stop-color="#e3e3e3"/><stop offset="1" stop-color="#808080"/></linearGradient><linearGradient x1="191.37184" y1="164.18303" x2="191.37184" y2="181.90813" gradientUnits="userSpaceOnUse" id="color-4"><stop offset="0" stop-color="#808080"/><stop offset="1" stop-color="#e2e2e2"/></linearGradient><linearGradient x1="194.78492" y1="174.9061" x2="194.78492" y2="186.39277" gradientUnits="userSpaceOnUse" id="color-5"><stop offset="0" stop-color="#e3e3e3"/><stop offset="1" stop-color="#808080"/></linearGradient><linearGradient x1="194.78492" y1="174.9061" x2="194.78492" y2="186.39277" gradientUnits="userSpaceOnUse" id="color-6"><stop offset="0" stop-color="#808080"/><stop offset="1" stop-color="#e2e2e2"/></linearGradient><radialGradient cx="210.8125" cy="179.50003" r="25.9998" gradientUnits="userSpaceOnUse" id="color-7"><stop offset="0" stop-color="#26c5f7"/><stop offset="1" stop-color="#1997fc"/></radialGradient><radialGradient cx="248.31883" cy="180.70539" r="44.68787" gradientUnits="userSpaceOnUse" id="color-8"><stop offset="0" stop-color="#26c5f7"/><stop offset="1" stop-color="#1997fc"/></radialGradient><radialGradient cx="248.63462" cy="181.02712" r="44.68787" gradientUnits="userSpaceOnUse" id="color-9"><stop offset="0" stop-color="#fcfcfc"/><stop offset="1" stop-color="#e1e1e1"/></radialGradient><radialGradient cx="218.42338" cy="179.94158" r="9.89449" gradientUnits="userSpaceOnUse" id="color-10"><stop offset="0" stop-color="#fcfcfc"/><stop offset="1" stop-color="#e1e1e1"/></radialGradient><radialGradient cx="229.11782" cy="179.79654" r="9.89449" gradientUnits="userSpaceOnUse" id="color-11"><stop offset="0" stop-color="#fcfcfc"/><stop offset="1" stop-color="#e1e1e1"/></radialGradient><radialGradient cx="154.41297" cy="179.90648" r="67.0234" gradientUnits="userSpaceOnUse" id="color-12"><stop offset="0" stop-color="#26c5f7"/><stop offset="1" stop-color="#1997fc"/></radialGradient></defs><g transform="translate(-187.58357,-150.33038)"><g data-paper-data="{&quot;isPaintingLayer&quot;:true}" fill-rule="nonzero" stroke-width="1.5" stroke-linejoin="miter" stroke-miterlimit="10" stroke-dasharray="" stroke-dashoffset="0" style="mix-blend-mode: normal"><path d="" data-paper-data="{&quot;index&quot;:null}" fill="none" stroke="#0056cf" stroke-linecap="round"/><g><path d="M189.03807,188.31391c0,-3.40768 1.04486,-6.17013 2.33376,-6.17013c1.28891,0 2.33376,2.76245 2.33376,6.17013c0,3.40768 -1.04486,6.17014 -2.33376,6.17014c-1.28891,0 -2.33376,-2.76246 -2.33376,-6.17014z" fill="url(#color-1)" stroke="url(#color-2)" stroke-linecap="butt"/><path d="M189.03807,173.04557c0,-3.40768 1.04486,-6.17013 2.33376,-6.17013c1.28889,0 2.33376,2.76245 2.33376,6.17013c0,3.40768 -1.04486,6.17013 -2.33376,6.17013c-1.28889,0 -2.33376,-2.76245 -2.33376,-6.17013z" fill="url(#color-3)" stroke="url(#color-4)" stroke-linecap="butt"/><path d="M188.33357,180.64943c0,-2.20832 2.88836,-3.99853 6.45136,-3.99853c3.56297,0 9.28155,1.97888 9.28155,4.18721c0,2.20832 -5.71856,3.80985 -9.28155,3.80985c-3.56297,0 -6.45136,-1.7902 -6.45136,-3.99853z" fill="url(#color-5)" stroke="url(#color-6)" stroke-linecap="butt"/><path d="M195.5625,204.37503c0,-6.08812 0.5,-38.36924 0.5,-48.875c0,-2.12114 4.0535,-1.90868 6.62051,-0.49292c9.63942,5.31635 31.25449,18.1078 31.25449,25.49292c0,6.81906 -20.44004,18.55374 -30.83247,24.07938c-3.54251,1.88354 -7.54253,1.76539 -7.54253,-0.20437z" fill="url(#color-7)" stroke="#0056cf" stroke-linecap="butt"/><path d="M250.94383,151.08039c21.40103,0 33.625,12.95392 33.625,28.625c0,15.67108 -12.34896,28.5 -33.75,28.5c-21.40104,0 -55.81073,-18.20487 -55.625,-28.125c0.19743,-10.54484 34.34896,-29 55.75,-29z" fill="url(#color-8)" stroke="#0056cf" stroke-linecap="butt"/><path d="M195.375,180.00003l89.36905,0.35714" fill="none" stroke="#0056cf" stroke-linecap="round"/><path d="M195.375,180.00003c0,0 27.87203,-10.60119 57.47321,-10.85119c25.38763,-0.03241 31.77679,10.85119 31.77679,10.85119" fill="none" stroke="#0056cf" stroke-linecap="round"/><path d="M195.25,179.00003c0,0 32.21727,-19.66666 58.06845,-19.29166c28.51297,0.36041 31.18155,19.29166 31.18155,19.29166" fill="none" stroke="#0056cf" stroke-linecap="round"/><path d="M284.52381,180.72763c0,0 -5.55582,10.16932 -30.94345,10.13691c-29.60118,-0.25 -57.83035,-10.49405 -57.83035,-10.49405" data-paper-data="{&quot;index&quot;:null}" fill="none" stroke="#0056cf" stroke-linecap="round"/><path d="M284.375,181.62049c0,0 -2.54953,18.69316 -31.0625,19.05357c-25.85118,0.375 -58.1875,-19.05357 -58.1875,-19.05357" data-paper-data="{&quot;index&quot;:null}" fill="none" stroke="#0056cf" stroke-linecap="round"/><path d="M274.56861,158.54827c6.71495,5.26799 10.31601,12.97319 10.31601,21.47885c0,7.71032 -2.98935,14.73264 -8.5754,19.87749c-5.76749,5.31196 -7.39748,-45.79425 -1.74061,-41.35634z" fill="url(#color-9)" stroke="#cfcfcf" stroke-linecap="butt"/><path d="M271.36639,180.08368c6.44887,0 12.62202,0.35714 12.62202,0.35714" fill="none" stroke="#cfcfcf" stroke-linecap="round"/><path d="M271.33127,171.51972c10.35688,2.31428 13.25238,8.4449 13.25238,8.4449" fill="none" stroke="#cfcfcf" stroke-linecap="round"/><path d="M271.97374,163.56722c10.30279,6.68218 12.84205,15.8736 12.84205,15.8736" fill="none" stroke="#cfcfcf" stroke-linecap="round"/><path d="M284.72055,181.16841c0,0 -2.80114,5.16582 -12.72651,7.49123" data-paper-data="{&quot;index&quot;:null}" fill="none" stroke="#cfcfcf" stroke-linecap="round"/><path d="M284.69079,182.06128c0,0 -3.62372,7.641 -11.4883,14.26894" data-paper-data="{&quot;index&quot;:null}" fill="none" stroke="#cfcfcf" stroke-linecap="round"/><path d="M214.90931,198.06658c0,0 -2.27702,-10.59557 -2.32388,-18.05586c-0.05461,-8.69379 2.2575,-17.91636 2.2575,-17.91636l6.11328,-3.05555c0,0 -1.35651,8.5329 -1.35491,20.83337c0.00166,12.77785 2.10672,21.52774 2.10672,21.52774z" fill="url(#color-10)" stroke="#cfcfcf" stroke-linecap="butt"/><path d="M225.60375,202.85392c0,0 -2.27702,-13.47895 -2.32388,-22.96942c-0.05461,-11.05964 2.2575,-22.79197 2.2575,-22.79197l6.39105,-2.35929c0,0 -1.63428,9.32719 -1.63269,24.975c0.00166,16.2551 2.66227,25.85833 2.66227,25.85833z" fill="url(#color-11)" stroke="#cfcfcf" stroke-linecap="butt"/><path d="M213.51183,169.74935l6.51905,-2.80381" fill="none" stroke="#cfcfcf" stroke-linecap="round"/><path d="M219.66803,173.09888l-6.68,1.51714" fill="none" stroke="#cfcfcf" stroke-linecap="round"/><path d="M212.58993,180.00268l6.88,-0.04" fill="none" stroke="#cfcfcf" stroke-linecap="round"/><path d="M213.07183,185.18839l6.64095,1.72571" fill="none" stroke="#cfcfcf" stroke-linecap="round"/><path d="M213.63183,190.81697l6.6019,2.96571" fill="none" stroke="#cfcfcf" stroke-linecap="round"/><path d="M230.58803,188.86555l-6.76,-1.03905" fill="none" stroke="#cfcfcf" stroke-linecap="round"/><path d="M224.79088,195.14364l6.48286,2.16476" fill="none" stroke="#cfcfcf" stroke-linecap="round"/><path d="M224.47088,165.46268l6.12381,-2.20286" fill="none" stroke="#cfcfcf" stroke-linecap="round"/><path d="M223.94707,172.30079l6.44,-1.1581" fill="none" stroke="#cfcfcf" stroke-linecap="round"/><path d="M229.86993,179.92268l-6.56,0.08" fill="none" stroke="#cfcfcf" stroke-linecap="round"/><path d="M193.05666,180.3374c0.07195,-2.07347 5.8212,-4.16213 8.60295,-3.60021c7.22655,1.45978 12.36597,2.60413 12.36597,3.64715c0,0.93483 -4.62862,1.92929 -11.15418,3.25897c-4.24822,0.86565 -9.8874,-1.21195 -9.81474,-3.30592z" data-paper-data="{&quot;index&quot;:null}" fill="url(#color-12)" stroke="#0056cf" stroke-linecap="butt"/></g></g></g></svg>