<svg version="1.1" xmlns="http://www.w3.org/2000/svg" xmlns:xlink="http://www.w3.org/1999/xlink" width="135.84392" height="167.55555" viewBox="0,0,135.84392,167.55555"><g transform="translate(-191.00366,-96.22222)"><g data-paper-data="{&quot;isPaintingLayer&quot;:true}" fill-rule="nonzero" stroke-linejoin="miter" stroke-miterlimit="10" stroke-dasharray="" stroke-dashoffset="0" style="mix-blend-mode: normal"><g stroke="#000000" stroke-width="2" stroke-linecap="butt"><path d="M265.67223,254.21061c-13.08828,-0.00102 -43.39254,-0.0034 -50.64139,-0.00396c-3.04604,-0.00024 -6.05989,-4.67337 -6.05752,-8.08262c0.00204,-2.93866 0.00619,-8.9417 0.00984,-14.20723c0.00364,-5.2589 2.79519,-9.78193 5.66368,-9.7817c7.08152,0.00055 37.63553,0.00294 50.91219,0.00398c3.81108,0.0003 6.19536,4.57596 6.19176,9.78263c-0.00327,4.72492 -0.0069,9.96962 -0.00885,12.78651c-0.00266,3.84211 -2.33861,9.50268 -6.0697,9.50239z" fill="#424242"/><path d="M231.58109,254.05898c0,0 -13.55105,-0.00105 -16.3441,-0.00127c-3.04604,-0.00024 -6.05989,-4.67336 -6.05752,-8.08262c0.00204,-2.93866 0.00619,-8.9417 0.00984,-14.20723c0.00364,-5.2589 2.7952,-9.78193 5.66369,-9.7817c2.69255,0.00021 16.19541,0.00125 16.19541,0.00125z" fill="#6d6d6d"/></g><g stroke="#000000" stroke-width="2" stroke-linecap="butt"><path d="M265.37756,138.41938c-13.08828,-0.00102 -43.39254,-0.00339 -50.64139,-0.00396c-3.04604,-0.00024 -6.05989,-4.67337 -6.05752,-8.08262c0.00204,-2.93865 0.00619,-8.9417 0.00984,-14.20724c0.00364,-5.2589 2.7952,-9.78193 5.66369,-9.7817c7.08152,0.00056 37.63553,0.00294 50.91219,0.00398c3.81108,0.0003 6.19536,4.57597 6.19176,9.78263c-0.00327,4.72491 -0.0069,9.96961 -0.00885,12.78651c-0.00266,3.84211 -2.33861,9.50268 -6.0697,9.50239z" fill="#424242"/><path d="M231.28642,138.26775c0,0 -13.55105,-0.00105 -16.3441,-0.00127c-3.04604,-0.00024 -6.05989,-4.67337 -6.05752,-8.08262c0.00204,-2.93865 0.00619,-8.9417 0.00984,-14.20723c0.00364,-5.2589 2.7952,-9.78193 5.66369,-9.7817c2.69255,0.00021 16.19541,0.00125 16.19541,0.00125z" fill="#6d6d6d"/></g><path d="M297.5635,202.19397c0,-12.05358 0,-39.96214 0,-46.63794c0,-2.80524 3.9025,-5.5838 6.74968,-5.5838c2.45418,0 7.46754,0 11.86498,0c4.3919,0 8.16942,2.56798 8.16942,5.2097c0,6.5217 0,34.66026 0,46.88734c0,3.50979 -3.82115,5.70851 -8.16942,5.70851c-3.94595,0 -8.32599,0 -10.67848,0c-3.20869,0 -7.93618,-2.14767 -7.93618,-5.5838z" fill="#f20000" stroke="#000000" stroke-width="2" stroke-linecap="butt"/><path d="M320.62835,179.01375c0,11.94316 -21.88011,21.625 -48.87059,21.625c-26.99048,0 -47.75269,-2.45066 -48.87059,-21.625c-1.03215,-17.70348 21.88011,-21.625 48.87059,-21.625c26.99048,0 48.87059,9.68184 48.87059,21.625z" fill="#f20000" stroke="#000000" stroke-width="2" stroke-linecap="butt"/><path d="M299.0635,182.78229c0,-2.14891 0,-7.12443 0,-8.31459c0,-0.50012 3.9025,-0.99548 6.74969,-0.99548c2.45418,0 7.46753,0 11.86498,0c4.3919,0 8.16942,0.45782 8.16942,0.92878c0,1.16269 0,6.17922 0,8.35906c0,0.62572 -3.82115,1.01771 -8.16942,1.01771c-3.94594,0 -8.32599,0 -10.67847,0c-3.20869,0 -7.93619,-0.38289 -7.93619,-0.99548z" fill="#f20000" stroke="#000000" stroke-width="2" stroke-linecap="butt"/><path d="M263.87835,179.76375c0,11.94316 -14.21562,21.625 -31.75147,21.625c-17.53585,0 -31.02517,-2.45066 -31.75147,-21.625c-0.67059,-17.70348 14.21562,-21.625 31.75147,-21.625c17.53585,0 31.75147,9.68184 31.75147,21.625z" fill="#6d6d6d" stroke="#000000" stroke-width="2" stroke-linecap="butt"/><path d="M294.13858,178.57817c0,10.23424 -8.03311,18.53074 -17.94246,18.53074c-9.90935,0 -17.94246,-8.29649 -17.94246,-18.53074c0,-10.23424 8.03311,-18.53074 17.94246,-18.53074c9.90935,0 17.94246,8.29649 17.94246,18.53074z" fill="#101010" stroke="#000000" stroke-width="2" stroke-linecap="butt"/><g data-paper-data="{&quot;index&quot;:null}" stroke="none" stroke-width="0" stroke-linecap="butt"><path d="M263.25254,160.68615l4.59016,0.08195c0,0 4.4583,-2.21622 5.28687,-2.20143c0.81036,0.01447 -0.36884,2.28923 -0.36884,2.28923l4.91803,0.0878c0,0 3.81275,-1.68112 4.62138,-1.66669c0.75404,0.01346 0.07807,1.75058 0.07807,1.75058l6.88525,0.12292l-0.13658,7.65027l-19.67213,-0.3512c0,0 0.03969,1.85922 -0.47033,1.85012c-0.51002,-0.0091 -2.58978,-1.90475 -2.58978,-1.90475l-3.27868,-0.05853z" fill="#5d1900"/><path d="M261.06251,170.2251c-0.46647,-0.28842 -5.22269,1.55793 -5.35762,0.19728c-0.77854,-0.97679 5.54334,-2.33508 5.19436,-2.94928c-0.42446,-0.74705 -5.65861,1.35334 -5.7792,-0.54414c-0.09545,-1.50182 6.07549,-1.22969 6.0872,-1.88571c0.0151,-0.8457 -6.44463,0.33032 -6.32606,-1.93209c0.10933,-2.0861 5.4864,-0.35789 6.09499,-1.13838c0.40869,-0.52414 -7.39225,-0.30463 -5.21514,-2.90464c0.87614,-1.04633 4.43889,-0.45202 5.83483,-0.4271c3.7605,0.06714 5.76781,2.50737 5.69014,6.85775c-0.02997,1.67847 -1.94848,4.62802 -4.2919,6.15431c-1.52494,0.99321 -2.57585,1.17594 -3.4284,0.76476c-1.04139,-0.50225 1.29312,-1.69101 0.95861,-1.89783z" fill="#fef289"/></g><g data-paper-data="{&quot;index&quot;:null}" stroke="none" stroke-width="0" stroke-linecap="butt"><path d="M266.39414,191.38578l3.27868,-0.05853c0,0 2.07976,-1.89565 2.58978,-1.90475c0.51002,-0.0091 0.47033,1.85012 0.47033,1.85012l19.67213,-0.3512l0.13658,7.65027l-6.88525,0.12292c0,0 0.67597,1.73712 -0.07807,1.75058c-0.80862,0.01444 -4.62138,-1.66669 -4.62138,-1.66669l-4.91803,0.0878c0,0 1.17921,2.27476 0.36884,2.28923c-0.82857,0.01479 -5.28687,-2.20143 -5.28687,-2.20143l-4.59016,0.08195z" fill="#5d1900"/><path d="M263.8025,189.20215c0.33451,-0.20682 -2,-1.39558 -0.95861,-1.89783c0.85255,-0.41118 1.90346,-0.22845 3.4284,0.76476c2.34342,1.5263 4.26193,4.47585 4.2919,6.15431c0.07767,4.35038 -1.92964,6.79061 -5.69014,6.85775c-1.39594,0.02492 -4.95869,0.61923 -5.83483,-0.4271c-2.1771,-2.60001 5.62383,-2.3805 5.21514,-2.90464c-0.60859,-0.78049 -5.98566,0.94772 -6.09499,-1.13838c-0.11857,-2.26241 6.34115,-1.08639 6.32606,-1.93209c-0.01171,-0.65602 -6.18265,-0.38389 -6.0872,-1.88571c0.12059,-1.89748 5.35474,0.20291 5.7792,-0.54414c0.34898,-0.6142 -5.97291,-1.97249 -5.19436,-2.94928c0.13493,-1.36064 4.89115,0.4857 5.35762,0.19728z" fill="#fef289"/></g><path d="M308.92005,177.78372c0.20129,11.2753 -8.82311,20.57976 -20.15656,20.78209c-11.33345,0.20233 -20.68421,-8.77408 -20.8855,-20.04938c-0.20129,-11.2753 8.82311,-20.57976 20.15656,-20.7821c11.33345,-0.20233 20.68421,8.77408 20.8855,20.04938z" fill="#992900" stroke="none" stroke-width="0" stroke-linecap="butt"/><path d="M299.79227,198.82956c0.05714,3.20065 -2.83146,5.84769 -6.45186,5.91232c-3.62041,0.06463 -6.60165,-2.47761 -6.65879,-5.67826c-0.05714,-3.20064 2.83146,-5.84768 6.45186,-5.91232c3.62041,-0.06463 6.60165,2.47761 6.65879,5.67826z" fill="#992900" stroke="none" stroke-width="0" stroke-linecap="butt"/><path d="M294.80774,171.38275c1.62582,4.21 1.64284,12.06904 -0.13171,14.81533c-3.25166,6.62455 -13.27139,8.04607 -17.30774,8.11813c-3.41021,0.06088 -9.32588,-4.99588 -9.56188,-15.52064c-0.26158,-11.66501 4.87116,-16.91873 8.98143,-16.99211c6.03682,-0.10777 15.0466,1.47271 18.0199,9.5793z" fill="#5d1900" stroke="none" stroke-width="0" stroke-linecap="butt"/><path d="M292.52965,164.65156c-3.56793,0.06369 -6.51196,-2.77706 -6.57565,-6.345c-0.06369,-3.56794 2.77706,-6.51196 6.34499,-6.57565c3.56793,-0.06369 6.51196,2.77705 6.57566,6.34499c0.06369,3.56794 -2.77706,6.51196 -6.345,6.57566z" fill="#992900" stroke="none" stroke-width="0" stroke-linecap="butt"/><path d="M290.43095,173.32706c0.04578,3.55119 -5.39738,4.4887 -5.39738,4.4887c0,0 4.89414,1.72321 5.08762,6.58738c0.30953,7.78194 -8.64185,9.73763 -12.6782,9.80969c-3.41021,0.06088 -9.32588,-4.99588 -9.56188,-15.52064c-0.26158,-11.66501 4.87116,-16.91873 8.98143,-16.99211c6.03682,-0.10777 14.95756,2.71913 13.56841,11.62698z" fill="#fef289" stroke="none" stroke-width="0" stroke-linecap="butt"/><path d="M283.58554,185.33882c0.02998,1.67903 -1.51952,3.06825 -3.4609,3.1029c-1.94138,0.03466 -3.53948,-1.29837 -3.56946,-2.9774c-0.02998,-1.67903 1.51952,-3.06825 3.4609,-3.1029c1.94138,-0.03466 3.53948,1.29837 3.56946,2.9774z" fill="#000000" stroke="none" stroke-width="0" stroke-linecap="butt"/><path d="M282.75602,170.81327c0.02904,1.62656 -1.39362,2.97097 -3.17758,3.00282c-1.78397,0.03185 -3.25371,-1.26092 -3.28274,-2.88748c-0.02904,-1.62656 1.39362,-2.97097 3.17758,-3.00282c1.78397,-0.03185 3.25371,1.26092 3.28274,2.88748z" fill="#000000" stroke="none" stroke-width="0" stroke-linecap="butt"/><path d="M296.9416,198.84119c0.02214,1.24052 -1.62189,2.27583 -3.67205,2.31243c-2.05017,0.0366 -3.7301,-0.93937 -3.75225,-2.17989c-0.02214,-1.24052 1.62189,-2.27583 3.67205,-2.31243c2.05017,-0.0366 3.7301,0.93937 3.75225,2.17989z" fill="#fef289" stroke="none" stroke-width="0" stroke-linecap="butt"/><path d="M295.94604,157.27224c0.02416,1.35326 -1.60181,2.47968 -3.63171,2.51592c-2.02989,0.03624 -3.69504,-1.03142 -3.7192,-2.38468c-0.02416,-1.35326 1.60181,-2.47968 3.63171,-2.51592c2.02989,-0.03624 3.69504,1.03142 3.7192,2.38468z" fill="#fef289" stroke="none" stroke-width="0" stroke-linecap="butt"/><path d="M215.8135,246.78571c0,-34.52156 0,-114.45189 0,-133.57143c0,-8.03423 7.04805,-15.99206 12.19017,-15.99206c4.43233,0 13.48664,0 21.42857,0c7.93193,0 14.75427,7.35472 14.75427,14.92063c0,18.67819 0,99.26727 0,134.28571c0,10.05207 -6.90113,16.34921 -14.75427,16.34921c-7.12652,0 -15.03703,0 -19.28571,0c-5.795,0 -14.33303,-6.15094 -14.33303,-15.99206z" fill="#424242" stroke="#000000" stroke-width="2" stroke-linecap="butt"/><path d="M215.8135,211.34921v-62.69842h48.37301v62.69842z" fill="#424242" stroke="#000000" stroke-width="2" stroke-linecap="butt"/><path d="M251.93224,122.41758c0,6.01596 -4.8769,10.89286 -10.89286,10.89286c-6.01596,0 -10.89286,-4.8769 -10.89286,-10.89286c0,-6.01596 4.8769,-10.89286 10.89286,-10.89286c6.01596,0 10.89286,4.8769 10.89286,10.89286z" fill="#f20000" stroke="#00fff3" stroke-width="5" stroke-linecap="butt"/><path d="M251.21796,238.48901c0,6.01596 -4.8769,10.89285 -10.89286,10.89285c-6.01596,0 -10.89285,-4.87689 -10.89285,-10.89285c0,-6.01596 4.87689,-10.89286 10.89285,-10.89286c6.01596,0 10.89286,4.8769 10.89286,10.89286z" fill="#f20000" stroke="#00fff3" stroke-width="5" stroke-linecap="butt"/><path d="M202.75368,164.92857c0,5.79899 -1.62297,10.5 -3.625,10.5c-2.00203,0 -3.625,-4.70101 -3.625,-10.5c0,-5.79899 1.62297,-10.5 3.625,-10.5c2.00203,0 3.625,4.70101 3.625,10.5z" fill="#a7a7a7" stroke="#000000" stroke-width="2" stroke-linecap="butt"/><path d="M202.75368,194.42857c0,5.79898 -1.62297,10.5 -3.625,10.5c-2.00203,0 -3.625,-4.70102 -3.625,-10.5c0,-5.79898 1.62297,-10.5 3.625,-10.5c2.00203,0 3.625,4.70102 3.625,10.5z" fill="#a7a7a7" stroke="#000000" stroke-width="2" stroke-linecap="butt"/><path d="M205.50367,179.80357c0,4.34924 -3.02208,7.875 -6.75,7.875c-3.72792,0 -6.75,-3.52576 -6.75,-7.875c0,-4.34924 3.02208,-7.875 6.75,-7.875c3.72792,0 6.75,3.52576 6.75,7.875z" fill="#a7a7a7" stroke="#000000" stroke-width="2" stroke-linecap="butt"/><path d="M288.57284,158.84036c0,0 11.00305,12.44902 11.08283,18.95925c0.08298,6.7709 -10.30099,19.74205 -10.30099,19.74205" fill="none" stroke="#000000" stroke-width="4" stroke-linecap="round"/><path d="M297.89199,160.43274c-3.60663,-0.00028 -11.95731,-0.00093 -13.95481,-0.00109c-0.83938,-0.00007 -1.66988,-1.2878 -1.66923,-2.22726c0.00056,-0.80978 0.00171,-2.46399 0.00272,-3.91496c0.00101,-1.44915 0.77025,-2.69552 1.56069,-2.69546c1.95139,0.00016 10.3709,0.00081 14.02944,0.0011c1.05018,0.00009 1.7072,1.26096 1.70621,2.69572c-0.0009,1.30201 -0.0019,2.74724 -0.00244,3.52347c-0.00074,1.05874 -0.64443,2.61857 -1.67257,2.61849z" fill="#e3713b" stroke="#000000" stroke-width="0" stroke-linecap="butt"/><path d="M298.56636,204.41902c-3.60663,-0.00028 -11.95731,-0.00093 -13.95481,-0.00109c-0.83938,-0.00007 -1.66987,-1.2878 -1.66922,-2.22726c0.00056,-0.80978 0.00171,-2.46399 0.00272,-3.91497c0.00101,-1.44915 0.77024,-2.69552 1.56069,-2.69546c1.95139,0.00016 10.37091,0.00082 14.02944,0.0011c1.05018,0.00009 1.7072,1.26096 1.70621,2.69572c-0.0009,1.30201 -0.0019,2.74724 -0.00244,3.52347c-0.00074,1.05874 -0.64443,2.61857 -1.67258,2.61849z" fill="#e3713b" stroke="#000000" stroke-width="0" stroke-linecap="butt"/><path d="M296.18612,162.64394c1.60097,2.38953 5.30779,7.92218 6.19448,9.2456c0.3726,0.55612 -0.11184,1.67801 -0.73452,2.09465c-0.53673,0.35913 -1.63316,1.09275 -2.59489,1.73624c-0.96051,0.64268 -2.12774,0.68638 -2.47862,0.16268c-0.86621,-1.29288 -4.60359,-6.87113 -6.2276,-9.29505c-0.46617,-0.69579 0.07748,-1.69083 1.02845,-2.32713c0.86298,-0.57743 1.8209,-1.21837 2.3354,-1.56262c0.70175,-0.46954 2.02091,-0.73557 2.47729,-0.05438z" fill="#88fffc" stroke="#e3a13b" stroke-width="2" stroke-linecap="butt"/><path d="M293.33364,193.18753c-0.5145,-0.34425 -1.47241,-0.9852 -2.3354,-1.56262c-0.95098,-0.63629 -1.49462,-1.63134 -1.02846,-2.32712c1.62401,-2.42392 5.36138,-8.00217 6.2276,-9.29504c0.35087,-0.5237 1.5181,-0.48001 2.47861,0.16267c0.96173,0.6435 2.05816,1.37711 2.59489,1.73624c0.62268,0.41664 1.10712,1.53853 0.73453,2.09465c-0.88668,1.32342 -4.59352,6.85607 -6.19448,9.2456c-0.45639,0.68118 -1.77555,0.41516 -2.47729,-0.05438z" data-paper-data="{&quot;index&quot;:null}" fill="#88fffc" stroke="#e3a13b" stroke-width="2" stroke-linecap="butt"/></g></g></svg>