<?xml version="1.0" encoding="UTF-8"?>
<!DOCTYPE svg PUBLIC "-//W3C//DTD SVG 1.1//EN" "http://www.w3.org/Graphics/SVG/1.1/DTD/svg11.dtd">
<svg version="1.2" width="35.98mm" height="44.45mm" viewBox="0 0 3598 4445" preserveAspectRatio="xMidYMid" fill-rule="evenodd" stroke-width="28.222" stroke-linejoin="round" xmlns="http://www.w3.org/2000/svg" xmlns:ooo="http://xml.openoffice.org/svg/export" xmlns:xlink="http://www.w3.org/1999/xlink" xmlns:presentation="http://sun.com/xmlns/staroffice/presentation" xmlns:smil="http://www.w3.org/2001/SMIL20/" xmlns:anim="urn:oasis:names:tc:opendocument:xmlns:animation:1.0" xmlns:svg="urn:oasis:names:tc:opendocument:xmlns:svg-compatible:1.0" xml:space="preserve">
 <defs class="ClipPathGroup">
  <clipPath id="presentation_clip_path" clipPathUnits="userSpaceOnUse">
   <rect x="0" y="0" width="3598" height="4445"/>
  </clipPath>
  <clipPath id="presentation_clip_path_shrink" clipPathUnits="userSpaceOnUse">
   <rect x="3" y="4" width="3591" height="4437"/>
  </clipPath>
 </defs>
 <defs class="TextShapeIndex">
  <g ooo:slide="id1" ooo:id-list="id3"/>
 </defs>
 <defs class="EmbeddedBulletChars">
  <g id="bullet-char-template-57356" transform="scale(0.00048828125,-0.00048828125)">
   <path d="M 580,1141 L 1163,571 580,0 -4,571 580,1141 Z"/>
  </g>
  <g id="bullet-char-template-57354" transform="scale(0.00048828125,-0.00048828125)">
   <path d="M 8,1128 L 1137,1128 1137,0 8,0 8,1128 Z"/>
  </g>
  <g id="bullet-char-template-10146" transform="scale(0.00048828125,-0.00048828125)">
   <path d="M 174,0 L 602,739 174,1481 1456,739 174,0 Z M 1358,739 L 309,1346 659,739 1358,739 Z"/>
  </g>
  <g id="bullet-char-template-10132" transform="scale(0.00048828125,-0.00048828125)">
   <path d="M 2015,739 L 1276,0 717,0 1260,543 174,543 174,936 1260,936 717,1481 1274,1481 2015,739 Z"/>
  </g>
  <g id="bullet-char-template-10007" transform="scale(0.00048828125,-0.00048828125)">
   <path d="M 0,-2 C -7,14 -16,27 -25,37 L 356,567 C 262,823 215,952 215,954 215,979 228,992 255,992 264,992 276,990 289,987 310,991 331,999 354,1012 L 381,999 492,748 772,1049 836,1024 860,1049 C 881,1039 901,1025 922,1006 886,937 835,863 770,784 769,783 710,716 594,584 L 774,223 C 774,196 753,168 711,139 L 727,119 C 717,90 699,76 672,76 641,76 570,178 457,381 L 164,-76 C 142,-110 111,-127 72,-127 30,-127 9,-110 8,-76 1,-67 -2,-52 -2,-32 -2,-23 -1,-13 0,-2 Z"/>
  </g>
  <g id="bullet-char-template-10004" transform="scale(0.00048828125,-0.00048828125)">
   <path d="M 285,-33 C 182,-33 111,30 74,156 52,228 41,333 41,471 41,549 55,616 82,672 116,743 169,778 240,778 293,778 328,747 346,684 L 369,508 C 377,444 397,411 428,410 L 1163,1116 C 1174,1127 1196,1133 1229,1133 1271,1133 1292,1118 1292,1087 L 1292,965 C 1292,929 1282,901 1262,881 L 442,47 C 390,-6 338,-33 285,-33 Z"/>
  </g>
  <g id="bullet-char-template-9679" transform="scale(0.00048828125,-0.00048828125)">
   <path d="M 813,0 C 632,0 489,54 383,161 276,268 223,411 223,592 223,773 276,916 383,1023 489,1130 632,1184 813,1184 992,1184 1136,1130 1245,1023 1353,916 1407,772 1407,592 1407,412 1353,268 1245,161 1136,54 992,0 813,0 Z"/>
  </g>
  <g id="bullet-char-template-8226" transform="scale(0.00048828125,-0.00048828125)">
   <path d="M 346,457 C 273,457 209,483 155,535 101,586 74,649 74,723 74,796 101,859 155,911 209,963 273,989 346,989 419,989 480,963 531,910 582,859 608,796 608,723 608,648 583,586 532,535 482,483 420,457 346,457 Z"/>
  </g>
  <g id="bullet-char-template-8211" transform="scale(0.00048828125,-0.00048828125)">
   <path d="M -4,459 L 1135,459 1135,606 -4,606 -4,459 Z"/>
  </g>
  <g id="bullet-char-template-61548" transform="scale(0.00048828125,-0.00048828125)">
   <path d="M 173,740 C 173,903 231,1043 346,1159 462,1274 601,1332 765,1332 928,1332 1067,1274 1183,1159 1299,1043 1357,903 1357,740 1357,577 1299,437 1183,322 1067,206 928,148 765,148 601,148 462,206 346,322 231,437 173,577 173,740 Z"/>
  </g>
 </defs>
 <g>
  <g id="id2" class="Master_Slide">
   <g id="bg-id2" class="Background"/>
   <g id="bo-id2" class="BackgroundObjects"/>
  </g>
 </g>
 <g class="SlideGroup">
  <g>
   <g id="container-id1">
    <g id="id1" class="Slide" clip-path="url(#presentation_clip_path)">
     <g class="Page">
      <g class="Graphic">
       <g id="id3">
        <rect class="BoundingBox" stroke="none" fill="none" x="-1" y="0" width="3598" height="4445"/>
        <defs>
         <clipPath id="clip_path_1" clipPathUnits="userSpaceOnUse">
          <path d="M 3596,0 L -1,0 -1,4444 3596,4444 3596,0 Z"/>
         </clipPath>
        </defs>
        <g clip-path="url(#clip_path_1)">
         <path fill="rgb(115,243,0)" stroke="none" d="M 774,2810 C 774,2491 774,1751 774,1575 774,1500 671,1427 596,1427 531,1427 398,1427 282,1427 165,1427 65,1495 65,1565 65,1737 65,2483 65,2806 65,2899 166,2958 282,2958 386,2958 502,2958 564,2958 649,2958 774,2901 774,2810 L 774,2810 Z"/>
         <path fill="none" stroke="rgb(0,0,0)" stroke-width="53" stroke-linejoin="miter" d="M 774,2810 L 774,1575 C 774,1500 671,1427 596,1427 L 282,1427 C 165,1427 65,1495 65,1565 L 65,2806 C 65,2899 166,2958 282,2958 L 564,2958 C 649,2958 774,2901 774,2810 L 774,2810 Z"/>
         <path fill="rgb(115,243,0)" stroke="none" d="M 164,2196 C 164,2512 743,2769 1458,2769 2172,2769 2722,2704 2752,2196 2779,1727 2172,1623 1458,1623 743,1623 164,1880 164,2196 L 164,2196 Z"/>
         <path fill="none" stroke="rgb(0,0,0)" stroke-width="53" stroke-linejoin="miter" d="M 164,2196 C 164,2512 743,2769 1458,2769 2172,2769 2722,2704 2752,2196 2779,1727 2172,1623 1458,1623 743,1623 164,1880 164,2196 Z"/>
         <path fill="rgb(115,243,0)" stroke="none" d="M 735,2296 C 735,2239 735,2107 735,2075 735,2062 631,2049 556,2049 491,2049 358,2049 242,2049 126,2049 25,2061 25,2074 25,2105 25,2237 25,2295 25,2312 127,2322 242,2322 346,2322 462,2322 525,2322 610,2322 735,2312 735,2296 L 735,2296 Z"/>
         <path fill="none" stroke="rgb(0,0,0)" stroke-width="53" stroke-linejoin="miter" d="M 735,2296 L 735,2075 C 735,2062 631,2049 556,2049 L 242,2049 C 126,2049 25,2061 25,2074 L 25,2295 C 25,2312 127,2322 242,2322 L 525,2322 C 610,2322 735,2312 735,2296 L 735,2296 Z"/>
         <path fill="rgb(0,255,243)" stroke="none" d="M 1666,2216 C 1666,2532 2043,2788 2507,2788 2971,2788 3329,2724 3348,2216 3366,1747 2971,1643 2507,1643 2043,1643 1666,1899 1666,2216 L 1666,2216 Z"/>
         <path fill="none" stroke="rgb(0,125,125)" stroke-width="53" stroke-linejoin="miter" d="M 1666,2216 C 1666,2532 2043,2788 2507,2788 2971,2788 3329,2724 3348,2216 3366,1747 2971,1643 2507,1643 2043,1643 1666,1899 1666,2216 Z"/>
         <path fill="rgb(13,28,0)" stroke="none" d="M 865,2188 C 865,2459 1078,2679 1340,2679 1603,2679 1815,2459 1815,2188 1815,1917 1603,1697 1340,1697 1078,1697 865,1917 865,2188 L 865,2188 Z"/>
         <path fill="none" stroke="rgb(0,0,0)" stroke-width="53" stroke-linejoin="miter" d="M 865,2188 C 865,2459 1078,2679 1340,2679 1603,2679 1815,2459 1815,2188 1815,1917 1603,1697 1340,1697 1078,1697 865,1917 865,2188 Z"/>
         <path fill="rgb(93,25,0)" stroke="none" d="M 1683,1711 L 1561,1713 C 1561,1713 1443,1654 1421,1654 1400,1655 1431,1715 1431,1715 L 1301,1717 C 1301,1717 1200,1673 1179,1673 1159,1674 1177,1720 1177,1720 L 994,1723 998,1925 1519,1916 C 1519,1916 1518,1965 1531,1965 1545,1965 1600,1915 1600,1915 L 1687,1913 1683,1711 Z"/>
         <path fill="rgb(254,242,137)" stroke="none" d="M 1741,1963 C 1753,1955 1879,2004 1883,1968 1903,1942 1736,1907 1745,1890 1756,1870 1895,1926 1898,1876 1901,1836 1737,1843 1737,1826 1737,1804 1908,1835 1905,1775 1902,1719 1759,1765 1743,1745 1732,1731 1939,1737 1881,1668 1858,1640 1764,1656 1727,1656 1627,1658 1574,1723 1576,1838 1577,1882 1628,1961 1690,2001 1730,2027 1758,2032 1781,2021 1808,2008 1746,1976 1755,1971 L 1741,1963 Z"/>
         <path fill="rgb(93,25,0)" stroke="none" d="M 1600,2524 L 1513,2522 C 1513,2522 1458,2472 1444,2472 1431,2471 1432,2521 1432,2521 L 911,2511 907,2714 1090,2717 C 1090,2717 1072,2763 1092,2763 1113,2764 1214,2719 1214,2719 L 1344,2722 C 1344,2722 1313,2782 1335,2782 1357,2783 1475,2724 1475,2724 L 1596,2726 1600,2524 Z"/>
         <path fill="rgb(254,242,137)" stroke="none" d="M 1668,2466 C 1660,2460 1721,2429 1694,2415 1671,2405 1643,2409 1603,2436 1541,2476 1490,2554 1489,2599 1487,2714 1540,2779 1640,2780 1677,2781 1771,2797 1794,2769 1852,2700 1646,2706 1656,2692 1673,2671 1815,2717 1818,2662 1821,2602 1650,2633 1650,2611 1651,2593 1814,2601 1811,2561 1808,2511 1670,2566 1658,2546 1649,2530 1817,2494 1796,2468 1792,2432 1666,2481 1654,2474 L 1668,2466 Z"/>
         <path fill="rgb(93,25,0)" stroke="none" d="M 474,2163 C 468,2462 707,2708 1007,2714 1308,2719 1555,2481 1560,2183 1566,1884 1327,1638 1027,1632 727,1627 479,1865 474,2163 L 474,2163 Z"/>
         <path fill="rgb(93,25,0)" stroke="none" d="M 715,2721 C 714,2805 790,2876 886,2877 982,2879 1061,2812 1063,2727 1064,2642 988,2572 892,2570 796,2569 717,2636 715,2721 L 715,2721 Z"/>
         <path fill="rgb(93,25,0)" stroke="none" d="M 908,1816 C 1002,1817 1080,1742 1082,1647 1084,1553 1008,1475 914,1473 819,1472 741,1547 740,1641 738,1736 813,1814 908,1816 L 908,1816 Z"/>
         <path fill="rgb(254,242,137)" stroke="none" d="M 1106,2164 C 1106,2164 977,2210 971,2339 963,2545 1200,2596 1307,2598 1397,2600 1554,2466 1560,2187 1567,1878 1431,1739 1323,1737 1163,1735 926,1809 963,2045 962,2139 1106,2164 1106,2164 Z"/>
         <path fill="rgb(0,0,0)" stroke="none" d="M 1145,2363 C 1144,2408 1185,2445 1236,2446 1288,2446 1330,2411 1331,2367 1331,2322 1290,2285 1239,2285 1188,2284 1145,2319 1145,2363 L 1145,2363 Z"/>
         <path fill="rgb(0,0,0)" stroke="none" d="M 1251,2058 C 1298,2059 1337,2025 1338,1982 1338,1939 1301,1903 1253,1902 1206,1901 1167,1936 1166,1979 1166,2022 1203,2057 1251,2058 Z"/>
         <path fill="rgb(254,242,137)" stroke="none" d="M 791,2721 C 790,2754 834,2781 888,2782 942,2783 987,2757 987,2724 988,2692 945,2664 890,2663 836,2662 791,2688 791,2721 L 791,2721 Z"/>
         <path fill="rgb(254,242,137)" stroke="none" d="M 817,1620 C 817,1656 860,1686 913,1687 967,1688 1011,1659 1012,1624 1013,1588 969,1558 916,1557 862,1556 818,1584 817,1620 L 817,1620 Z"/>
         <path fill="rgb(115,243,0)" stroke="none" d="M 2939,453 C 2939,241 2752,30 2616,30 L 2049,30 C 1839,30 1658,225 1658,425 L 1658,3981 C 1658,4247 1841,4414 2049,4414 L 2560,4414 C 2713,4414 2939,4251 2939,3991 L 2939,453 Z"/>
         <path fill="none" stroke="rgb(0,0,0)" stroke-width="53" stroke-linejoin="miter" d="M 2939,3991 L 2939,453 C 2939,241 2752,30 2616,30 L 2049,30 C 1839,30 1658,225 1658,425 L 1658,3981 C 1658,4247 1841,4414 2049,4414 L 2560,4414 C 2713,4414 2939,4251 2939,3991 L 2939,3991 Z"/>
         <path fill="rgb(115,243,0)" stroke="none" d="M 2939,3052 L 2939,1392 1658,1392 1658,3052 2939,3052 Z"/>
         <path fill="none" stroke="rgb(0,0,0)" stroke-width="53" stroke-linejoin="miter" d="M 2939,3052 L 2939,1392 1658,1392 1658,3052 2939,3052 Z"/>
         <path fill="rgb(242,0,0)" stroke="none" d="M 1983,697 C 1983,856 2112,986 2271,986 2430,986 2560,856 2560,697 2560,538 2430,409 2271,409 2112,409 1983,538 1983,697 L 1983,697 Z"/>
         <path fill="none" stroke="rgb(0,255,243)" stroke-width="132" stroke-linejoin="miter" d="M 1983,697 C 1983,856 2112,986 2271,986 2430,986 2560,856 2560,697 2560,538 2430,409 2271,409 2112,409 1983,538 1983,697 Z"/>
         <path fill="rgb(242,0,0)" stroke="none" d="M 2002,3771 C 2002,3930 2131,4059 2290,4059 2449,4059 2578,3930 2578,3771 2578,3612 2449,3482 2290,3482 2131,3482 2002,3612 2002,3771 L 2002,3771 Z"/>
         <path fill="none" stroke="rgb(0,255,243)" stroke-width="132" stroke-linejoin="miter" d="M 2002,3771 C 2002,3930 2131,4059 2290,4059 2449,4059 2578,3930 2578,3771 2578,3612 2449,3482 2290,3482 2131,3482 2002,3612 2002,3771 Z"/>
         <path fill="rgb(167,167,167)" stroke="none" d="M 3285,1823 C 3285,1976 3328,2101 3381,2101 3434,2101 3477,1976 3477,1823 3477,1669 3434,1545 3381,1545 3328,1545 3285,1669 3285,1823 L 3285,1823 Z"/>
         <path fill="none" stroke="rgb(0,0,0)" stroke-width="53" stroke-linejoin="miter" d="M 3285,1823 C 3285,1976 3328,2101 3381,2101 3434,2101 3477,1976 3477,1823 3477,1669 3434,1545 3381,1545 3328,1545 3285,1669 3285,1823 Z"/>
         <path fill="rgb(167,167,167)" stroke="none" d="M 3285,2604 C 3285,2758 3328,2882 3381,2882 3434,2882 3477,2758 3477,2604 3477,2451 3434,2326 3381,2326 3328,2326 3285,2451 3285,2604 L 3285,2604 Z"/>
         <path fill="none" stroke="rgb(0,0,0)" stroke-width="53" stroke-linejoin="miter" d="M 3285,2604 C 3285,2758 3328,2882 3381,2882 3434,2882 3477,2758 3477,2604 3477,2451 3434,2326 3381,2326 3328,2326 3285,2451 3285,2604 Z"/>
         <path fill="rgb(167,167,167)" stroke="none" d="M 3212,2217 C 3212,2332 3292,2425 3391,2425 3489,2425 3570,2332 3570,2217 3570,2102 3489,2008 3391,2008 3292,2008 3212,2102 3212,2217 L 3212,2217 Z"/>
         <path fill="none" stroke="rgb(0,0,0)" stroke-width="53" stroke-linejoin="miter" d="M 3212,2217 C 3212,2332 3292,2425 3391,2425 3489,2425 3570,2332 3570,2217 3570,2102 3489,2008 3391,2008 3292,2008 3212,2102 3212,2217 Z"/>
        </g>
       </g>
      </g>
     </g>
    </g>
   </g>
  </g>
 </g>
</svg>