<?xml version="1.0" encoding="UTF-8" standalone="no"?>
<svg version="1.1" width="47.86879" height="52.26176" viewBox="0,0,47.86879,52.26176" id="svg16" xmlns="http://www.w3.org/2000/svg" xmlns:svg="http://www.w3.org/2000/svg">
  <defs id="defs16" />
  <path d="m 40.80418,49.22662 c 0,-12.01737 0,-39.84205 0,-46.49779 0,-2.79681 -16.83922,-3.00677 -16.83922,-0.37298 0,6.5021 0,34.55611 0,46.74644 0,3.49925 16.83922,3.55014 16.83922,0.12433 z" fill="#73f300" stroke="#000000" stroke-width="1" stroke-linecap="butt" id="path16" style="stroke-miterlimit:10" />
  <path d="m 12.34603,33.70371 c 0,-4.196 0,-13.91129 0,-16.23521 0,-0.97654 -1.35851,-1.94379 -2.34965,-1.94379 -0.85433,0 -2.59954,0 -4.13034,0 -1.52887,0 -2.84387,0.89395 -2.84387,1.81356 0,2.27028 0,12.06564 0,16.32204 0,1.2218 1.33018,1.9872 2.84387,1.9872 1.37363,0 2.89837,0 3.71731,0 1.11698,0 2.76268,-0.74762 2.76268,-1.94378 z" fill="#73f300" stroke="#000000" stroke-width="1" stroke-linecap="butt" id="path1" style="stroke-miterlimit:10" />
  <path d="m 2.31689,25.72355 c 0,4.15756 7.61673,7.52792 17.01243,7.52792 9.3957,0 16.62327,-0.8531 17.01243,-7.52792 0.35931,-6.16279 -7.61672,-7.52792 -17.01243,-7.52792 -9.39571,0 -17.01243,3.37036 -17.01243,7.52792 z" fill="#73f300" stroke="#000000" stroke-width="1" stroke-linecap="butt" id="path2" style="stroke-miterlimit:10" />
  <path d="m 9.82387,26.94627 c 0,-0.74806 0,-2.4801 0,-2.89441 0,-0.1741 -1.35851,-0.34654 -2.34965,-0.34654 -0.85433,0 -2.59954,0 -4.13034,0 -1.52887,0 -2.84387,0.15937 -2.84387,0.32332 0,0.40474 0,2.15106 0,2.90989 0,0.21782 1.33018,0.35428 2.84387,0.35428 1.37363,0 2.89838,0 3.7173,0 1.11698,0 2.76268,-0.13329 2.76268,-0.34654 z" fill="#73f300" stroke="#000000" stroke-width="1" stroke-linecap="butt" id="path3" style="stroke-miterlimit:10" />
  <path d="m 22.07223,25.89548 c 0,4.15756 4.94862,7.52792 11.05306,7.52792 6.10443,0 10.80023,-0.8531 11.05307,-7.52792 0.23344,-6.16279 -4.94863,-7.52792 -11.05307,-7.52792 -6.10443,0 -11.05306,3.37036 -11.05306,7.52792 z" fill="#00fff3" stroke="#007d7d" stroke-width="1" stroke-linecap="butt" id="path4" style="stroke-miterlimit:10" />
  <path d="m 38.80418,49.22662 c 0,-12.01737 0,-39.84205 0,-46.49779 0,-2.79681 -16.83922,-3.00677 -16.83922,-0.37298 0,6.5021 0,34.55611 0,46.74644 0,3.49925 16.83922,3.55014 16.83922,0.12433 z" fill="#73f300" stroke="#000000" stroke-width="1" stroke-linecap="butt" id="path5" style="stroke-miterlimit:10" />
  <path d="m 42.39315,25.90935 c 0,1.51402 1.05202,2.74138 2.34976,2.74138 1.29773,0 2.34975,-1.22736 2.34975,-2.74138 0,-1.51402 -1.05202,-2.74138 -2.34975,-2.74138 -1.29773,0 -2.34976,1.22736 -2.34976,2.74138 z" fill="#a7a7a7" stroke="#000000" stroke-width="1" stroke-linecap="butt" id="path6" style="stroke-miterlimit:10" />
  <path d="M 38.80418,36.89076 V 15.0647 H 21.96496 v 21.82607 z" fill="#73f300" stroke="#000000" stroke-width="1" stroke-linecap="butt" id="path7" style="stroke-miterlimit:10" />
  <path d="m 26.59263,7.52025 c 0,2.09422 1.69771,3.79193 3.79193,3.79193 2.09422,0 3.79193,-1.69771 3.79193,-3.79193 0,-2.09422 -1.69771,-3.79193 -3.79193,-3.79193 -2.09422,0 -3.79193,1.69771 -3.79193,3.79193 z" fill="#f20000" stroke="#00fff3" stroke-width="2" stroke-linecap="butt" id="path8" style="stroke-miterlimit:10" />
  <path d="m 26.59263,44.10378 c 0,2.09422 1.69771,3.79193 3.79193,3.79193 2.09422,0 3.79193,-1.6977 3.79193,-3.79193 0,-2.09422 -1.69771,-3.79193 -3.79193,-3.79193 -2.09422,0 -3.79193,1.69771 -3.79193,3.79193 z" fill="#f20000" stroke="#00fff3" stroke-width="2" stroke-linecap="butt" id="path9" style="stroke-miterlimit:10" />
  <path d="m 41.617,25.90935 c 0,6.73758 1.39951,12.19947 3.1259,12.19947 1.72638,0 3.1259,-5.46189 3.1259,-12.19947 0,-6.73758 -1.39951,-12.19947 -3.1259,-12.19947 -1.72638,0 -3.1259,5.46189 -3.1259,12.19947 z" fill-opacity="0.66275" fill="#a6a6a6" stroke="#000000" stroke-width="0" stroke-linecap="butt" id="path10" style="stroke-miterlimit:10" />
  <path d="m 42.11354,25.90935 c 0,5.66735 1.1772,10.26164 2.62937,10.26164 1.45215,0 2.62937,-4.59429 2.62937,-10.26164 0,-5.66735 -1.1772,-10.26164 -2.62937,-10.26164 -1.45215,0 -2.62937,4.59429 -2.62937,10.26164 z" fill="none" stroke-opacity="0.48235" stroke="#909090" stroke-width="0.5" stroke-linecap="butt" id="path11" style="stroke-miterlimit:10" />
  <path d="m 42.7777,25.90935 c 0,4.23583 0.87985,7.66963 1.96521,7.66963 1.08536,0 1.96521,-3.43381 1.96521,-7.66963 0,-4.23583 -0.87985,-7.66963 -1.96521,-7.66963 -1.08536,0 -1.96521,3.43381 -1.96521,7.66963 z" fill="none" stroke-opacity="0.48235" stroke="#909090" stroke-width="0.5" stroke-linecap="butt" id="path12" style="stroke-miterlimit:10" />
  <path d="m 43.63048,25.93625 c 0,1.51402 0.35266,2.71448 1.11243,2.71448 1.29773,0 2.34975,-1.22736 2.34975,-2.74138 0,-1.51402 -1.05283,-2.7873 -2.34975,-2.74138 -0.75976,0.0269 -1.11243,1.25426 -1.11243,2.76828 z" fill="#a7a7a7" stroke="#000000" stroke-width="1" stroke-linecap="butt" id="path13" style="stroke-miterlimit:10" />
  <path d="m 35.26478,15.02864 v 6.65829 l -4.27136,4.27136 4.17713,3.98869 v 6.81533" fill="none" stroke="#000000" stroke-width="1" stroke-linecap="round" id="path14" style="stroke-miterlimit:10" />
  <path d="m 28.31754,15.0647 v 6.65829 l -4.27136,4.27136 4.17713,3.98869 v 6.81533" fill="none" stroke="#000000" stroke-width="1" stroke-linecap="round" id="path15" style="stroke-miterlimit:10" />
</svg>
