<?xml version="1.0" encoding="UTF-8" standalone="no"?>
<svg
   version="1.1"
   width="374.10965"
   height="215.26933"
   viewBox="0 0 124.70322 71.756444"
   id="svg35"
   sodipodi:docname="robo-monkey.svg"
   inkscape:version="1.4.2 (f4327f4, 2025-05-13)"
   xmlns:inkscape="http://www.inkscape.org/namespaces/inkscape"
   xmlns:sodipodi="http://sodipodi.sourceforge.net/DTD/sodipodi-0.dtd"
   xmlns="http://www.w3.org/2000/svg"
   xmlns:svg="http://www.w3.org/2000/svg">
  <sodipodi:namedview
     id="namedview1"
     pagecolor="#ffffff"
     bordercolor="#000000"
     borderopacity="0.25"
     inkscape:showpageshadow="2"
     inkscape:pageopacity="0.0"
     inkscape:pagecheckerboard="0"
     inkscape:deskcolor="#d1d1d1"
     inkscape:zoom="6.8778891"
     inkscape:cx="39.692411"
     inkscape:cy="24.353402"
     inkscape:window-width="2560"
     inkscape:window-height="1346"
     inkscape:window-x="2869"
     inkscape:window-y="273"
     inkscape:window-maximized="1"
     inkscape:current-layer="svg35" />
  <defs
     id="defs4">
    <linearGradient
       x1="221.05171"
       y1="170.87422"
       x2="234.43739"
       y2="170.87422"
       gradientUnits="userSpaceOnUse"
       id="color-1">
      <stop
         offset="0"
         stop-color="#ff90af"
         id="stop1" />
      <stop
         offset="1"
         stop-color="#d400ff"
         id="stop2" />
    </linearGradient>
    <linearGradient
       x1="221.24658"
       y1="189.0883"
       x2="234.63228"
       y2="189.0883"
       gradientUnits="userSpaceOnUse"
       id="color-2">
      <stop
         offset="0"
         stop-color="#ff90af"
         id="stop3" />
      <stop
         offset="1"
         stop-color="#d400ff"
         id="stop4" />
    </linearGradient>
  </defs>
  <path
     d="m 51.36586,47.010552 c 3.48485,4.34293 12.32678,6.17071 18.7971,6.28621 6.50137,0.11606 14.24003,-2.23424 17.87438,-6.48505 2.40545,-2.81347 2.44178,-19.57439 0.63044,-22.25339 -3.36314,-4.97412 -10.86501,-5.72599 -17.88728,-5.85137 -7.13819,-0.12742 -16.77391,1.56349 -20.28048,6.55074 -1.80099,2.56147 -1.46844,18.84381 0.86584,21.75286 z"
     fill="#727272"
     stroke="none"
     stroke-width="0"
     stroke-linecap="butt"
     id="path8"
     style="stroke-miterlimit:10" />
  <path
     d="m 81.49663,63.752152 c -0.0773,4.33226 3.83254,7.91518 8.73296,8.00266 4.90043,0.0875 8.93571,-3.35359 9.01305,-7.68585 0.0773,-4.33225 -3.83254,-7.91517 -8.73296,-8.00266 -4.90043,-0.0875 -8.93571,3.35359 -9.01305,7.68585 z"
     fill="#a6a6a6"
     stroke="none"
     stroke-width="0"
     stroke-linecap="butt"
     id="path10"
     style="stroke-miterlimit:10" />
  <path
     d="m 91.32701,17.490262 c 4.8294,0.0862 8.81431,-3.75891 8.90052,-8.5883204 0.0862,-4.8294101 -3.75891,-8.81431014 -8.58831,-8.90052014 -4.8294,-0.0862 -8.81431,3.75890004 -8.90053,8.58831014 -0.0862,4.8294104 3.75891,8.8143104 8.58832,8.9005304 z"
     fill="#a6a6a6"
     stroke="none"
     stroke-width="0"
     stroke-linecap="butt"
     id="path11"
     style="stroke-miterlimit:10" />
  <path
     d="m 94.16772,29.233052 c -0.062,4.80674 7.30566,6.07571 7.30566,6.07571 0,0 -6.6245,2.33246 -6.88639,8.9164 -0.41897,10.5333 11.69724,13.18044 17.16067,13.27798 4.61591,0.0824 12.62311,-6.76221 12.94255,-21.00808 0.35406,-15.78926 -6.59339,-22.90047 -12.15688,-22.9998 -8.17118,-0.14587 -20.24592,3.6805 -18.36562,15.73778 z"
     fill="#fef289"
     stroke="none"
     stroke-width="0"
     stroke-linecap="butt"
     id="path12"
     style="stroke-miterlimit:10" />
  <path
     d="m 103.43337,45.491662 c -0.0406,2.27266 2.05676,4.15305 4.68453,4.19995 2.62777,0.0469 4.79089,-1.75742 4.83147,-4.03008 0.0406,-2.27266 -2.05676,-4.15305 -4.68453,-4.19995 -2.62777,-0.0469 -4.79089,1.75742 -4.83147,4.03008 z"
     fill="#000000"
     stroke="none"
     stroke-width="0"
     stroke-linecap="butt"
     id="path13"
     style="stroke-miterlimit:10" />
  <path
     d="m 104.55618,25.830492 c -0.0393,2.20164 1.88634,4.02138 4.30104,4.06449 2.41471,0.0431 4.40408,-1.70673 4.44338,-3.90837 0.0393,-2.20164 -1.88634,-4.02138 -4.30104,-4.06449 -2.41471,-0.0431 -4.40408,1.70673 -4.44338,3.90837 z"
     fill="#000000"
     stroke="none"
     stroke-width="0"
     stroke-linecap="butt"
     id="path14"
     style="stroke-miterlimit:10" />
  <path
     d="m 85.35518,63.767892 c -0.03,1.67911 2.19532,3.08047 4.97033,3.13001 2.77502,0.0495 5.0489,-1.27149 5.07889,-2.95061 0.03,-1.67911 -2.19532,-3.08047 -4.97033,-3.13001 -2.77502,-0.0495 -5.0489,1.27149 -5.07889,2.95061 z"
     fill="#727272"
     stroke="none"
     stroke-width="0"
     stroke-linecap="butt"
     id="path15"
     style="stroke-miterlimit:10" />
  <path
     d="m 86.400807,7.4997606 c -0.03,1.67911 2.19532,3.0804704 4.97033,3.1300104 2.77502,0.0495 5.0489,-1.2714904 5.07889,-2.9506104 0.03,-1.67911 -2.19532,-3.0804701 -4.97033,-3.1300101 -2.77502,-0.0495 -5.0489,1.27149 -5.07889,2.9506101 z"
     fill="#727272"
     stroke="none"
     stroke-width="0"
     stroke-linecap="butt"
     id="path15-0"
     style="stroke-miterlimit:10" />
  <g
     stroke="none"
     stroke-width="0"
     stroke-linecap="butt"
     id="g19"
     transform="matrix(-1,0,0,1,335.07343,-145.99577)"
     style="stroke-miterlimit:10">
    <path
       d="m 309.50149,154.81441 c 0.36822,0.38723 -0.16563,-3.07089 0.89859,-1.81109 0.87125,1.03136 2.47011,5.4148 3.02619,7.92201 0.85455,3.8529 0.56848,7.65865 -0.38246,8.34366 -2.46473,1.77543 -5.36959,-0.0887 -8.19991,-5.3072 -0.68054,-1.25477 -3.1413,-3.58114 -4.1212,-5.57918 -0.5329,-1.08659 -0.81213,-2.09633 -0.82752,-2.66797 -0.10855,-4.03244 3.96436,2.76107 3.96489,1.99028 7.8e-4,-1.1478 -2.53701,-3.86819 -1.40862,-4.82008 1.22375,-1.03234 2.77737,3.59847 3.2565,3.25333 0.37167,-0.26773 -1.80722,-3.94085 -0.8656,-4.38325 1.18969,-0.55896 2.01071,2.86754 2.75893,3.17318 0.61516,0.25131 -1.44355,-4.4077 -0.2993,-3.69631 0.88907,-0.33325 2.19952,3.58261 2.19952,3.58261 z"
       fill="#fef289"
       id="path17" />
    <path
       d="m 310.22627,170.03935 -4.2146,1.39218 c 0,0 -1.92717,3.28548 -2.58278,3.50204 -0.65561,0.21656 -1.35086,-2.20265 -1.35086,-2.20265 l -25.28769,8.35316 -3.24845,-9.83409 8.85069,-2.92361 c 0,0 -1.57131,-1.97401 -0.60202,-2.29419 1.03946,-0.34335 6.64296,0.29873 6.64296,0.29873 l 6.32192,-2.08829 c 0,0 -2.43768,-2.46691 -1.396,-2.81101 1.0651,-0.35183 7.71791,0.72272 7.71791,0.72272 l 5.90045,-1.94907 z"
       fill="#727272"
       id="path18" />
    <path
       d="m 310.33346,169.92618 c -1.33494,0.54659 -3.29445,-1.15303 -4.3767,-3.79621 -1.08225,-2.64318 -0.8774,-5.22899 0.45754,-5.77558 1.33494,-0.54659 3.29445,1.15303 4.3767,3.79621 1.08225,2.64318 0.8774,5.22899 -0.45754,5.77558 z"
       fill="#727272"
       id="path19" />
  </g>
  <g
     stroke="none"
     stroke-width="0"
     stroke-linecap="butt"
     id="g22"
     transform="matrix(-1,0,0,1,335.07343,-145.99577)"
     style="stroke-miterlimit:10">
    <path
       d="m 315.08367,208.66809 c -0.96849,0.93671 0.0614,-4.05168 -0.48696,-3.6763 -0.66693,0.45656 -0.74687,3.97915 -2.02768,3.68365 -1.01374,-0.23387 0.34152,-4.28389 -0.0783,-4.46722 -0.54115,-0.23633 -1.08323,4.61797 -2.49716,3.86693 -1.30375,-0.69251 0.60325,-3.88691 0.36043,-5.00874 -0.16307,-0.75335 -2.71168,6.74632 -3.45598,2.78167 -0.10551,-0.56203 -0.0455,-1.60795 0.24625,-2.78248 0.53649,-2.15976 2.45129,-4.95275 2.85191,-6.32282 1.66613,-5.698 4.11253,-8.13284 6.89625,-6.91713 1.07402,0.46906 2.15626,4.12889 2.13348,8.07535 -0.0148,2.56809 -0.65329,7.19013 -1.28744,8.38204 -0.7746,1.4559 -0.98206,-2.03703 -1.26033,-1.58085 0,0 -0.45515,4.10415 -1.39451,3.96589 z"
       fill="#fef289"
       id="path20" />
    <path
       d="m 312.87437,199.96481 -6.17879,-0.66088 c 0,0 -6.27657,2.45341 -7.39191,2.33411 -1.09082,-0.11668 0.77178,-3.04219 0.77178,-3.04219 l -6.62014,-0.70808 c 0,0 -5.34206,1.80937 -6.43056,1.69296 -1.01501,-0.10856 0.10465,-2.36955 0.10465,-2.36955 l -9.2682,-0.99132 1.10146,-10.29799 26.48057,2.83232 c 0,0 0.16942,-2.51142 0.85596,-2.438 0.68654,0.0734 3.26324,2.87859 3.26324,2.87859 l 4.41341,0.47204 z"
       fill="#727272"
       id="path21" />
    <path
       d="m 315.76977,195.30404 c -0.50048,2.81197 -2.05749,4.88661 -3.47768,4.63384 -1.42019,-0.25277 -2.16575,-2.73723 -1.66527,-5.54919 0.50048,-2.81197 2.05749,-4.88661 3.47768,-4.63384 1.42019,0.25277 2.16575,2.73723 1.66527,5.54919 z"
       fill="#727272"
       id="path22" />
  </g>
  <path
     d="m 2,35.309668 c 0,0 9.28258,-3.99562 18.64578,-3.09012 7.12945,0.68948 14.0805,6.35948 18.33544,6.26326 6.42513,-0.14529 16.33066,-4.37868 16.33066,-4.37868"
     fill="none"
     stroke="#a6a6a6"
     stroke-width="4"
     stroke-linecap="round"
     id="path23"
     style="stroke-miterlimit:10" />
  <path
     d="m 69.56054,35.233572 c -0.27246,15.26177 11.94259,27.85589 27.28306,28.12975 6.23266,0.11127 11.63527,-2.21536 16.33136,-5.58122 3.44069,-2.46607 3.31193,-17.54999 3.30675,-21.22287 -0.004,-2.65231 1.1019,-20.21468 -2.27085,-22.78484 C 109.66178,10.307812 103.99869,8.2056916 97.83026,8.0955616 82.48979,7.8216916 69.833,19.971782 69.56054,35.233552 Z"
     fill="#a6a6a6"
     stroke="none"
     stroke-width="0"
     stroke-linecap="butt"
     id="path24"
     style="stroke-miterlimit:10" />
  <g
     stroke="none"
     stroke-width="0"
     stroke-linecap="butt"
     id="g27"
     transform="matrix(-1,0,0,1,335.07343,-143.9396)"
     style="stroke-miterlimit:10">
    <path
       d="m 240.48683,172.96922 c 0.062,4.80674 -7.30566,6.07571 -7.30566,6.07571 0,0 6.6245,2.33246 6.88639,8.9164 0.41897,10.5333 -12.47137,12.98691 -17.9348,13.08445 -2.29743,0.041 -4.38745,-10.88525 -4.59411,-21.69044 -0.23075,-12.06499 1.40106,-21.68696 4.1955,-21.73685 8.17118,-0.14587 20.63299,3.29344 18.75269,15.35072 z"
       fill="#000000"
       id="path25" />
    <path
       d="m 234.43739,170.87422 c 0,2.1799 -2.99649,3.94706 -6.69284,3.94706 -3.69636,0 -6.69284,-1.76716 -6.69284,-3.94706 0,-2.1799 2.99649,-3.94706 6.69284,-3.94706 3.69636,0 6.69284,1.76716 6.69284,3.94706 z"
       fill="url(#color-1)"
       id="path26"
       style="fill:url(#color-1)" />
    <path
       d="m 234.63228,189.0883 c 0,2.1799 -2.99649,3.94706 -6.69285,3.94706 -3.69636,0 -6.69285,-1.76716 -6.69285,-3.94706 0,-2.1799 2.99649,-3.94706 6.69285,-3.94706 3.69636,0 6.69285,1.76716 6.69285,3.94706 z"
       fill="url(#color-2)"
       id="path27"
       style="fill:url(#color-2)" />
  </g>
  <path
     d="M 65.619583,44.799 V 27.34997 h -9.2814 V 44.799 Z"
     fill="#727272"
     stroke="#a6a6a6"
     stroke-width="4"
     stroke-linecap="butt"
     id="path28"
     style="stroke-miterlimit:10" />
  <g
     stroke-width="3"
     id="g33"
     transform="matrix(-1,0,0,1,335.62382,-144.14931)"
     style="stroke-miterlimit:10">
    <path
       d="m 262.7852,187.27044 v -14.42222 h 20.423 c 0,0 4.13393,1.28469 4.11754,6.90813 -0.0177,6.08769 -4.11754,7.51409 -4.11754,7.51409 z"
       fill="#d14eff"
       stroke="#c3c3c3"
       stroke-linecap="butt"
       id="path29" />
    <path
       d="m 264.92889,180.05933 c 0,4.04952 -2.06527,7.3323 -4.61293,7.3323 -2.54765,0 -4.61292,-3.28278 -4.61292,-7.3323 0,-4.04952 2.06528,-7.3323 4.61292,-7.3323 2.54765,0 4.61293,3.28278 4.61293,7.3323 z"
       fill="#727272"
       stroke="#c3c3c3"
       stroke-linecap="butt"
       id="path30" />
    <path
       d="m 269.38878,176.7909 c 0,0 1.26149,2.35426 1.2338,3.5157 -0.0272,1.1409 -1.3985,3.39242 -1.3985,3.39242"
       fill="none"
       stroke="#969696"
       stroke-linecap="round"
       id="path31" />
    <path
       d="m 275.31803,176.7909 c 0,0 1.31762,2.14386 1.31762,3.27227 0,1.20911 -1.31762,3.75705 -1.31762,3.75705"
       fill="none"
       stroke="#969696"
       stroke-linecap="round"
       id="path32" />
    <path
       d="m 280.87492,176.77894 c 0,0 1.31761,2.14386 1.31761,3.27227 0,1.20911 -1.31761,3.75705 -1.31761,3.75705"
       fill="none"
       stroke="#969696"
       stroke-linecap="round"
       id="path33" />
  </g>
</svg>
