<?xml version="1.0" encoding="UTF-8"?>
<!DOCTYPE svg PUBLIC "-//W3C//DTD SVG 1.1//EN" "http://www.w3.org/Graphics/SVG/1.1/DTD/svg11.dtd">
<svg version="1.2" width="36.36mm" height="21.29mm" viewBox="0 0 3636 2129" preserveAspectRatio="xMidYMid" fill-rule="evenodd" stroke-width="28.222" stroke-linejoin="round" xmlns="http://www.w3.org/2000/svg" xmlns:ooo="http://xml.openoffice.org/svg/export" xmlns:xlink="http://www.w3.org/1999/xlink" xmlns:presentation="http://sun.com/xmlns/staroffice/presentation" xmlns:smil="http://www.w3.org/2001/SMIL20/" xmlns:anim="urn:oasis:names:tc:opendocument:xmlns:animation:1.0" xmlns:svg="urn:oasis:names:tc:opendocument:xmlns:svg-compatible:1.0" xml:space="preserve">
 <defs class="ClipPathGroup">
  <clipPath id="presentation_clip_path" clipPathUnits="userSpaceOnUse">
   <rect x="0" y="0" width="3636" height="2129"/>
  </clipPath>
  <clipPath id="presentation_clip_path_shrink" clipPathUnits="userSpaceOnUse">
   <rect x="3" y="2" width="3629" height="2125"/>
  </clipPath>
 </defs>
 <defs class="TextShapeIndex">
  <g ooo:slide="id1" ooo:id-list="id3"/>
 </defs>
 <defs class="EmbeddedBulletChars">
  <g id="bullet-char-template-57356" transform="scale(0.00048828125,-0.00048828125)">
   <path d="M 580,1141 L 1163,571 580,0 -4,571 580,1141 Z"/>
  </g>
  <g id="bullet-char-template-57354" transform="scale(0.00048828125,-0.00048828125)">
   <path d="M 8,1128 L 1137,1128 1137,0 8,0 8,1128 Z"/>
  </g>
  <g id="bullet-char-template-10146" transform="scale(0.00048828125,-0.00048828125)">
   <path d="M 174,0 L 602,739 174,1481 1456,739 174,0 Z M 1358,739 L 309,1346 659,739 1358,739 Z"/>
  </g>
  <g id="bullet-char-template-10132" transform="scale(0.00048828125,-0.00048828125)">
   <path d="M 2015,739 L 1276,0 717,0 1260,543 174,543 174,936 1260,936 717,1481 1274,1481 2015,739 Z"/>
  </g>
  <g id="bullet-char-template-10007" transform="scale(0.00048828125,-0.00048828125)">
   <path d="M 0,-2 C -7,14 -16,27 -25,37 L 356,567 C 262,823 215,952 215,954 215,979 228,992 255,992 264,992 276,990 289,987 310,991 331,999 354,1012 L 381,999 492,748 772,1049 836,1024 860,1049 C 881,1039 901,1025 922,1006 886,937 835,863 770,784 769,783 710,716 594,584 L 774,223 C 774,196 753,168 711,139 L 727,119 C 717,90 699,76 672,76 641,76 570,178 457,381 L 164,-76 C 142,-110 111,-127 72,-127 30,-127 9,-110 8,-76 1,-67 -2,-52 -2,-32 -2,-23 -1,-13 0,-2 Z"/>
  </g>
  <g id="bullet-char-template-10004" transform="scale(0.00048828125,-0.00048828125)">
   <path d="M 285,-33 C 182,-33 111,30 74,156 52,228 41,333 41,471 41,549 55,616 82,672 116,743 169,778 240,778 293,778 328,747 346,684 L 369,508 C 377,444 397,411 428,410 L 1163,1116 C 1174,1127 1196,1133 1229,1133 1271,1133 1292,1118 1292,1087 L 1292,965 C 1292,929 1282,901 1262,881 L 442,47 C 390,-6 338,-33 285,-33 Z"/>
  </g>
  <g id="bullet-char-template-9679" transform="scale(0.00048828125,-0.00048828125)">
   <path d="M 813,0 C 632,0 489,54 383,161 276,268 223,411 223,592 223,773 276,916 383,1023 489,1130 632,1184 813,1184 992,1184 1136,1130 1245,1023 1353,916 1407,772 1407,592 1407,412 1353,268 1245,161 1136,54 992,0 813,0 Z"/>
  </g>
  <g id="bullet-char-template-8226" transform="scale(0.00048828125,-0.00048828125)">
   <path d="M 346,457 C 273,457 209,483 155,535 101,586 74,649 74,723 74,796 101,859 155,911 209,963 273,989 346,989 419,989 480,963 531,910 582,859 608,796 608,723 608,648 583,586 532,535 482,483 420,457 346,457 Z"/>
  </g>
  <g id="bullet-char-template-8211" transform="scale(0.00048828125,-0.00048828125)">
   <path d="M -4,459 L 1135,459 1135,606 -4,606 -4,459 Z"/>
  </g>
  <g id="bullet-char-template-61548" transform="scale(0.00048828125,-0.00048828125)">
   <path d="M 173,740 C 173,903 231,1043 346,1159 462,1274 601,1332 765,1332 928,1332 1067,1274 1183,1159 1299,1043 1357,903 1357,740 1357,577 1299,437 1183,322 1067,206 928,148 765,148 601,148 462,206 346,322 231,437 173,577 173,740 Z"/>
  </g>
 </defs>
 <g>
  <g id="id2" class="Master_Slide">
   <g id="bg-id2" class="Background"/>
   <g id="bo-id2" class="BackgroundObjects"/>
  </g>
 </g>
 <g class="SlideGroup">
  <g>
   <g id="container-id1">
    <g id="id1" class="Slide" clip-path="url(#presentation_clip_path)">
     <g class="Page">
      <g class="Graphic">
       <g id="id3">
        <rect class="BoundingBox" stroke="none" fill="none" x="-1" y="0" width="3636" height="2129"/>
        <defs>
         <clipPath id="clip_path_1" clipPathUnits="userSpaceOnUse">
          <path d="M 3634,0 L -1,0 -1,2128 3634,2128 3634,0 Z"/>
         </clipPath>
        </defs>
        <g clip-path="url(#clip_path_1)">
         <path fill="rgb(114,114,114)" stroke="none" d="M 3318,1718 L 3210,1674 C 3210,1674 3165,1584 3148,1577 3131,1570 3108,1632 3108,1632 L 2457,1365 2353,1618 2581,1712 C 2581,1712 2536,1761 2561,1771 2587,1782 2736,1776 2736,1776 L 2899,1842 C 2899,1842 2830,1903 2857,1914 2885,1925 3062,1909 3062,1909 L 3214,1972 3318,1718 Z"/>
         <path fill="rgb(254,242,137)" stroke="none" d="M 3433,1679 C 3425,1668 3518,1659 3490,1628 3467,1604 3429,1596 3365,1609 3267,1630 3165,1703 3142,1759 3083,1903 3118,2010 3243,2061 3289,2080 3400,2147 3443,2123 3550,2065 3287,1971 3307,1958 3337,1940 3494,2068 3525,2000 3558,1926 3328,1881 3339,1853 3348,1831 3550,1921 3567,1869 3587,1804 3385,1806 3381,1776 3377,1751 3606,1788 3593,1745 3606,1698 3423,1698 3411,1682 L 3433,1679 Z"/>
         <path fill="rgb(114,114,114)" stroke="none" d="M 3272,142 L 3116,193 C 3116,193 2940,165 2912,174 2884,183 2948,248 2948,248 L 2781,304 C 2781,304 2633,287 2606,296 2580,304 2621,356 2621,356 L 2387,434 2473,694 3142,473 C 3142,473 3161,537 3178,531 3195,525 3246,439 3246,439 L 3358,402 3272,142 Z"/>
         <path fill="rgb(254,242,137)" stroke="none" d="M 3448,444 C 3461,430 3643,442 3633,394 3649,353 3419,373 3424,349 3431,319 3632,335 3616,269 3603,216 3395,291 3388,269 3378,240 3612,212 3584,136 3558,66 3392,182 3363,161 3344,148 3613,73 3511,7 3470,-20 3354,38 3307,54 3179,96 3136,201 3185,349 3204,406 3301,486 3397,514 3460,532 3498,527 3522,504 3553,475 3460,459 3469,449 L 3448,444 Z"/>
         <path fill="rgb(114,114,114)" stroke="none" d="M 1358,1320 C 1450,1435 1684,1483 1855,1486 2027,1489 2231,1427 2327,1315 2391,1240 2392,797 2344,726 2255,595 2057,575 1871,572 1682,568 1427,613 1335,745 1287,813 1296,1243 1358,1320 L 1358,1320 Z"/>
         <path fill="rgb(114,114,114)" stroke="none" d="M 1828,988 C 1821,1391 2144,1724 2549,1732 2955,1739 3290,1418 3297,1014 3304,610 2981,277 2575,270 2170,263 1835,584 1828,988 L 1828,988 Z"/>
         <path fill="rgb(166,166,166)" stroke="none" d="M 2154,1741 C 2152,1856 2256,1950 2385,1953 2515,1955 2622,1864 2624,1749 2626,1635 2522,1540 2393,1538 2263,1535 2157,1626 2154,1741 L 2154,1741 Z"/>
         <path fill="rgb(166,166,166)" stroke="none" d="M 2415,518 C 2542,520 2648,418 2650,291 2652,163 2550,58 2423,55 2295,53 2190,155 2187,282 2185,410 2287,515 2415,518 L 2415,518 Z"/>
         <path fill="rgb(254,242,137)" stroke="none" d="M 2490,828 C 2488,955 2683,989 2683,989 2683,989 2508,1051 2501,1225 2490,1503 2810,1573 2955,1576 3077,1578 3288,1397 3297,1020 3306,603 3123,415 2975,412 2759,408 2440,509 2490,828 L 2490,828 Z"/>
         <path fill="rgb(0,0,0)" stroke="none" d="M 2735,1258 C 2734,1318 2789,1368 2859,1369 2928,1370 2985,1323 2986,1263 2987,1203 2932,1153 2862,1152 2793,1150 2736,1198 2735,1258 L 2735,1258 Z"/>
         <path fill="rgb(0,0,0)" stroke="none" d="M 2764,738 C 2763,796 2814,845 2878,846 2942,847 2995,801 2996,742 2997,684 2946,636 2882,635 2818,634 2765,680 2764,738 L 2764,738 Z"/>
         <path fill="rgb(114,114,114)" stroke="none" d="M 2257,1741 C 2256,1786 2315,1823 2388,1824 2461,1826 2522,1791 2522,1746 2523,1702 2464,1665 2391,1663 2317,1662 2257,1697 2257,1741 L 2257,1741 Z"/>
         <path fill="rgb(114,114,114)" stroke="none" d="M 2292,254 C 2291,302 2350,342 2422,344 2495,345 2554,307 2555,258 2556,210 2498,170 2425,168 2353,167 2293,205 2292,254 L 2292,254 Z"/>
         <path fill="rgb(254,242,137)" stroke="none" d="M 675,343 C 666,353 680,262 652,295 629,322 586,438 572,504 549,606 557,707 582,725 647,772 724,723 799,585 817,551 882,490 908,437 922,408 929,382 929,367 932,260 825,440 825,419 825,389 892,317 862,292 829,264 788,387 776,378 766,371 823,274 799,262 767,247 745,338 726,346 709,352 764,229 734,248 710,239 675,343 675,343 L 675,343 Z"/>
         <path fill="rgb(114,114,114)" stroke="none" d="M 656,745 L 768,782 C 768,782 819,869 836,875 853,881 872,817 872,817 L 1541,1037 1626,777 1392,700 C 1392,700 1434,648 1408,639 1381,630 1233,647 1233,647 L 1065,592 C 1065,592 1130,527 1102,518 1074,508 898,537 898,537 L 742,485 656,745 Z"/>
         <path fill="rgb(114,114,114)" stroke="none" d="M 769,642 C 798,572 792,504 757,489 722,475 670,520 641,590 613,660 618,728 653,742 689,757 740,712 769,642 Z"/>
         <path fill="rgb(254,242,137)" stroke="none" d="M 528,1767 C 553,1792 526,1660 541,1670 558,1682 560,1775 594,1767 621,1761 585,1654 596,1649 611,1643 625,1771 662,1751 697,1733 646,1648 653,1619 657,1599 725,1797 744,1692 747,1677 745,1650 738,1619 724,1562 673,1488 662,1451 618,1301 553,1236 480,1269 451,1281 423,1378 423,1482 424,1550 441,1672 457,1704 478,1742 483,1650 491,1662 491,1662 503,1770 528,1767 L 528,1767 Z"/>
         <path fill="rgb(114,114,114)" stroke="none" d="M 586,1537 L 750,1519 C 750,1519 916,1584 945,1581 974,1578 925,1500 925,1500 L 1100,1482 C 1100,1482 1241,1530 1270,1527 1297,1524 1267,1464 1267,1464 L 1512,1438 1483,1165 783,1240 C 783,1240 778,1174 760,1176 742,1178 674,1252 674,1252 L 557,1264 586,1537 Z"/>
         <path fill="rgb(114,114,114)" stroke="none" d="M 510,1413 C 523,1488 564,1543 602,1536 639,1529 659,1464 646,1389 632,1315 591,1260 554,1267 516,1273 496,1339 510,1413 L 510,1413 Z"/>
         <path fill="none" stroke="rgb(166,166,166)" stroke-width="106" stroke-linejoin="miter" stroke-linecap="round" d="M 52,1043 C 52,1043 297,938 545,962 734,980 917,1130 1030,1127 1200,1123 1462,1011 1462,1011"/>
         <path fill="rgb(166,166,166)" stroke="none" d="M 1839,987 C 1832,1390 2155,1723 2560,1731 2725,1734 2868,1672 2992,1583 3083,1518 3080,1119 3080,1022 3080,952 3109,487 3020,419 2899,328 2750,272 2587,269 2181,262 1846,583 1839,987 L 1839,987 Z"/>
         <path fill="rgb(0,0,0)" stroke="none" d="M 2501,823 C 2499,950 2694,984 2694,984 2694,984 2519,1045 2512,1219 2501,1498 2842,1563 2986,1565 3047,1566 3102,1277 3108,992 3114,673 3071,418 2997,417 2781,413 2451,504 2501,823 L 2501,823 Z"/>
        </g>
        <defs>
         <clipPath id="clip_path_2" clipPathUnits="userSpaceOnUse">
          <path d="M 2661,767 C 2661,825 2740,872 2838,872 2935,872 3015,825 3015,767 3015,710 2935,663 2838,663 2740,663 2661,710 2661,767 L 2661,767 Z"/>
         </clipPath>
        </defs>
        <g clip-path="url(#clip_path_2)">
         <path fill="rgb(255,144,175)" stroke="none" d="M 3032,663 L 2961,663 2961,872 3032,872 3032,663 Z"/>
         <path fill="rgb(252,133,181)" stroke="none" d="M 3005,663 L 2934,663 2934,872 3005,872 3005,663 Z"/>
         <path fill="rgb(248,122,187)" stroke="none" d="M 2978,663 L 2907,663 2907,872 2978,872 2978,663 Z"/>
         <path fill="rgb(245,111,193)" stroke="none" d="M 2951,663 L 2879,663 2879,872 2951,872 2951,663 Z"/>
         <path fill="rgb(242,100,200)" stroke="none" d="M 2923,663 L 2852,663 2852,872 2923,872 2923,663 Z"/>
         <path fill="rgb(238,89,206)" stroke="none" d="M 2896,663 L 2825,663 2825,872 2896,872 2896,663 Z"/>
         <path fill="rgb(235,78,212)" stroke="none" d="M 2869,663 L 2798,663 2798,872 2869,872 2869,663 Z"/>
         <path fill="rgb(232,66,218)" stroke="none" d="M 2842,663 L 2770,663 2770,872 2842,872 2842,663 Z"/>
         <path fill="rgb(229,55,224)" stroke="none" d="M 2815,663 L 2743,663 2743,872 2815,872 2815,663 Z"/>
         <path fill="rgb(225,44,230)" stroke="none" d="M 2787,663 L 2716,663 2716,872 2787,872 2787,663 Z"/>
         <path fill="rgb(222,33,237)" stroke="none" d="M 2760,663 L 2689,663 2689,872 2760,872 2760,663 Z"/>
         <path fill="rgb(219,22,243)" stroke="none" d="M 2733,663 L 2661,663 2661,872 2733,872 2733,663 Z"/>
         <path fill="rgb(215,11,249)" stroke="none" d="M 2706,663 L 2634,663 2634,872 2706,872 2706,663 Z"/>
        </g>
        <g clip-path="url(#clip_path_1)"/>
        <defs>
         <clipPath id="clip_path_3" clipPathUnits="userSpaceOnUse">
          <path d="M 2656,1249 C 2656,1307 2735,1353 2833,1353 2930,1353 3010,1307 3010,1249 3010,1191 2930,1145 2833,1145 2735,1145 2656,1191 2656,1249 L 2656,1249 Z"/>
         </clipPath>
        </defs>
        <g clip-path="url(#clip_path_3)">
         <path fill="rgb(255,144,175)" stroke="none" d="M 3027,1145 L 2956,1145 2956,1353 3027,1353 3027,1145 Z"/>
         <path fill="rgb(252,133,181)" stroke="none" d="M 3000,1145 L 2929,1145 2929,1353 3000,1353 3000,1145 Z"/>
         <path fill="rgb(248,122,187)" stroke="none" d="M 2973,1145 L 2901,1145 2901,1353 2973,1353 2973,1145 Z"/>
         <path fill="rgb(245,111,193)" stroke="none" d="M 2946,1145 L 2874,1145 2874,1353 2946,1353 2946,1145 Z"/>
         <path fill="rgb(242,100,200)" stroke="none" d="M 2918,1145 L 2847,1145 2847,1353 2918,1353 2918,1145 Z"/>
         <path fill="rgb(238,89,206)" stroke="none" d="M 2891,1145 L 2820,1145 2820,1353 2891,1353 2891,1145 Z"/>
         <path fill="rgb(235,78,212)" stroke="none" d="M 2864,1145 L 2793,1145 2793,1353 2864,1353 2864,1145 Z"/>
         <path fill="rgb(232,66,218)" stroke="none" d="M 2837,1145 L 2765,1145 2765,1353 2837,1353 2837,1145 Z"/>
         <path fill="rgb(229,55,224)" stroke="none" d="M 2809,1145 L 2738,1145 2738,1353 2809,1353 2809,1145 Z"/>
         <path fill="rgb(225,44,230)" stroke="none" d="M 2782,1145 L 2711,1145 2711,1353 2782,1353 2782,1145 Z"/>
         <path fill="rgb(222,33,237)" stroke="none" d="M 2755,1145 L 2684,1145 2684,1353 2755,1353 2755,1145 Z"/>
         <path fill="rgb(219,22,243)" stroke="none" d="M 2728,1145 L 2656,1145 2656,1353 2728,1353 2728,1145 Z"/>
         <path fill="rgb(215,11,249)" stroke="none" d="M 2700,1145 L 2629,1145 2629,1353 2700,1353 2700,1145 Z"/>
        </g>
        <g clip-path="url(#clip_path_1)"/>
       </g>
      </g>
     </g>
    </g>
   </g>
  </g>
 </g>
</svg>