<?xml version="1.0" encoding="UTF-8" standalone="no"?>
<svg
   version="1.1"
   width="80.729912"
   height="50.22541"
   viewBox="0 0 26.90997 16.741803"
   id="svg35"
   sodipodi:docname="robo-monkey-arm-gun.svg"
   inkscape:version="1.4.2 (f4327f4, 2025-05-13)"
   xmlns:inkscape="http://www.inkscape.org/namespaces/inkscape"
   xmlns:sodipodi="http://sodipodi.sourceforge.net/DTD/sodipodi-0.dtd"
   xmlns="http://www.w3.org/2000/svg"
   xmlns:svg="http://www.w3.org/2000/svg">
  <sodipodi:namedview
     id="namedview1"
     pagecolor="#ffffff"
     bordercolor="#000000"
     borderopacity="0.25"
     inkscape:showpageshadow="2"
     inkscape:pageopacity="0.0"
     inkscape:pagecheckerboard="0"
     inkscape:deskcolor="#d1d1d1"
     inkscape:zoom="4.863402"
     inkscape:cx="27.55273"
     inkscape:cy="19.842078"
     inkscape:window-width="2560"
     inkscape:window-height="1346"
     inkscape:window-x="2869"
     inkscape:window-y="273"
     inkscape:window-maximized="1"
     inkscape:current-layer="svg35" />
  <defs
     id="defs4">
    <linearGradient
       x1="221.05171"
       y1="170.87422"
       x2="234.43739"
       y2="170.87422"
       gradientUnits="userSpaceOnUse"
       id="color-1">
      <stop
         offset="0"
         stop-color="#ff90af"
         id="stop1" />
      <stop
         offset="1"
         stop-color="#d400ff"
         id="stop2" />
    </linearGradient>
    <linearGradient
       x1="221.24658"
       y1="189.0883"
       x2="234.63228"
       y2="189.0883"
       gradientUnits="userSpaceOnUse"
       id="color-2">
      <stop
         offset="0"
         stop-color="#ff90af"
         id="stop3" />
      <stop
         offset="1"
         stop-color="#d400ff"
         id="stop4" />
    </linearGradient>
  </defs>
  <g
     stroke-width="3"
     id="g33"
     transform="matrix(-0.96907091,0,0,0.94776009,279.89267,-162.28215)"
     style="stroke-miterlimit:10">
    <path
       d="m 268.13125,187.27044 v -14.42222 h 15.07695 c 0,0 4.13393,1.28469 4.11754,6.90813 -0.0177,6.08769 -4.11754,7.51409 -4.11754,7.51409 z"
       fill="#d14eff"
       stroke="#c3c3c3"
       stroke-linecap="butt"
       id="path29"
       sodipodi:nodetypes="cccccc" />
    <path
       d="m 271.7828,180.05933 c 0,4.04952 -2.06527,7.3323 -4.61293,7.3323 -2.54765,0 -4.61292,-3.28278 -4.61292,-7.3323 0,-4.04952 2.06528,-7.3323 4.61292,-7.3323 2.54765,0 4.61293,3.28278 4.61293,7.3323 z"
       fill="#727272"
       stroke="#c3c3c3"
       stroke-linecap="butt"
       id="path30" />
    <path
       d="m 275.31803,176.7909 c 0,0 1.31762,2.14386 1.31762,3.27227 0,1.20911 -1.31762,3.75705 -1.31762,3.75705"
       fill="none"
       stroke="#969696"
       stroke-linecap="round"
       id="path32" />
    <path
       d="m 280.87492,176.77894 c 0,0 1.31761,2.14386 1.31761,3.27227 0,1.20911 -1.31761,3.75705 -1.31761,3.75705"
       fill="none"
       stroke="#969696"
       stroke-linecap="round"
       id="path33" />
  </g>
</svg>
