<?xml version="1.0" encoding="UTF-8"?>
<!DOCTYPE svg PUBLIC "-//W3C//DTD SVG 1.1//EN" "http://www.w3.org/Graphics/SVG/1.1/DTD/svg11.dtd">
<svg version="1.2" width="36.51mm" height="21.17mm" viewBox="0 0 3651 2117" preserveAspectRatio="xMidYMid" fill-rule="evenodd" stroke-width="28.222" stroke-linejoin="round" xmlns="http://www.w3.org/2000/svg" xmlns:ooo="http://xml.openoffice.org/svg/export" xmlns:xlink="http://www.w3.org/1999/xlink" xmlns:presentation="http://sun.com/xmlns/staroffice/presentation" xmlns:smil="http://www.w3.org/2001/SMIL20/" xmlns:anim="urn:oasis:names:tc:opendocument:xmlns:animation:1.0" xmlns:svg="urn:oasis:names:tc:opendocument:xmlns:svg-compatible:1.0" xml:space="preserve">
 <defs class="ClipPathGroup">
  <clipPath id="presentation_clip_path" clipPathUnits="userSpaceOnUse">
   <rect x="0" y="0" width="3651" height="2117"/>
  </clipPath>
  <clipPath id="presentation_clip_path_shrink" clipPathUnits="userSpaceOnUse">
   <rect x="3" y="2" width="3644" height="2113"/>
  </clipPath>
 </defs>
 <defs class="TextShapeIndex">
  <g ooo:slide="id1" ooo:id-list="id3"/>
 </defs>
 <defs class="EmbeddedBulletChars">
  <g id="bullet-char-template-57356" transform="scale(0.00048828125,-0.00048828125)">
   <path d="M 580,1141 L 1163,571 580,0 -4,571 580,1141 Z"/>
  </g>
  <g id="bullet-char-template-57354" transform="scale(0.00048828125,-0.00048828125)">
   <path d="M 8,1128 L 1137,1128 1137,0 8,0 8,1128 Z"/>
  </g>
  <g id="bullet-char-template-10146" transform="scale(0.00048828125,-0.00048828125)">
   <path d="M 174,0 L 602,739 174,1481 1456,739 174,0 Z M 1358,739 L 309,1346 659,739 1358,739 Z"/>
  </g>
  <g id="bullet-char-template-10132" transform="scale(0.00048828125,-0.00048828125)">
   <path d="M 2015,739 L 1276,0 717,0 1260,543 174,543 174,936 1260,936 717,1481 1274,1481 2015,739 Z"/>
  </g>
  <g id="bullet-char-template-10007" transform="scale(0.00048828125,-0.00048828125)">
   <path d="M 0,-2 C -7,14 -16,27 -25,37 L 356,567 C 262,823 215,952 215,954 215,979 228,992 255,992 264,992 276,990 289,987 310,991 331,999 354,1012 L 381,999 492,748 772,1049 836,1024 860,1049 C 881,1039 901,1025 922,1006 886,937 835,863 770,784 769,783 710,716 594,584 L 774,223 C 774,196 753,168 711,139 L 727,119 C 717,90 699,76 672,76 641,76 570,178 457,381 L 164,-76 C 142,-110 111,-127 72,-127 30,-127 9,-110 8,-76 1,-67 -2,-52 -2,-32 -2,-23 -1,-13 0,-2 Z"/>
  </g>
  <g id="bullet-char-template-10004" transform="scale(0.00048828125,-0.00048828125)">
   <path d="M 285,-33 C 182,-33 111,30 74,156 52,228 41,333 41,471 41,549 55,616 82,672 116,743 169,778 240,778 293,778 328,747 346,684 L 369,508 C 377,444 397,411 428,410 L 1163,1116 C 1174,1127 1196,1133 1229,1133 1271,1133 1292,1118 1292,1087 L 1292,965 C 1292,929 1282,901 1262,881 L 442,47 C 390,-6 338,-33 285,-33 Z"/>
  </g>
  <g id="bullet-char-template-9679" transform="scale(0.00048828125,-0.00048828125)">
   <path d="M 813,0 C 632,0 489,54 383,161 276,268 223,411 223,592 223,773 276,916 383,1023 489,1130 632,1184 813,1184 992,1184 1136,1130 1245,1023 1353,916 1407,772 1407,592 1407,412 1353,268 1245,161 1136,54 992,0 813,0 Z"/>
  </g>
  <g id="bullet-char-template-8226" transform="scale(0.00048828125,-0.00048828125)">
   <path d="M 346,457 C 273,457 209,483 155,535 101,586 74,649 74,723 74,796 101,859 155,911 209,963 273,989 346,989 419,989 480,963 531,910 582,859 608,796 608,723 608,648 583,586 532,535 482,483 420,457 346,457 Z"/>
  </g>
  <g id="bullet-char-template-8211" transform="scale(0.00048828125,-0.00048828125)">
   <path d="M -4,459 L 1135,459 1135,606 -4,606 -4,459 Z"/>
  </g>
  <g id="bullet-char-template-61548" transform="scale(0.00048828125,-0.00048828125)">
   <path d="M 173,740 C 173,903 231,1043 346,1159 462,1274 601,1332 765,1332 928,1332 1067,1274 1183,1159 1299,1043 1357,903 1357,740 1357,577 1299,437 1183,322 1067,206 928,148 765,148 601,148 462,206 346,322 231,437 173,577 173,740 Z"/>
  </g>
 </defs>
 <g>
  <g id="id2" class="Master_Slide">
   <g id="bg-id2" class="Background"/>
   <g id="bo-id2" class="BackgroundObjects"/>
  </g>
 </g>
 <g class="SlideGroup">
  <g>
   <g id="container-id1">
    <g id="id1" class="Slide" clip-path="url(#presentation_clip_path)">
     <g class="Page">
      <g class="Graphic">
       <g id="id3">
        <rect class="BoundingBox" stroke="none" fill="none" x="0" y="0" width="3651" height="2117"/>
        <defs>
         <clipPath id="clip_path_1" clipPathUnits="userSpaceOnUse">
          <path d="M 3650,0 L 0,0 0,2116 3650,2116 3650,0 Z"/>
         </clipPath>
        </defs>
        <g clip-path="url(#clip_path_1)">
         <path fill="rgb(0,84,193)" stroke="none" d="M 1369,1313 C 1460,1427 1693,1475 1863,1478 2034,1481 2237,1419 2333,1307 2396,1233 2397,793 2350,722 2261,591 2064,572 1879,568 1692,565 1438,610 1346,741 1299,808 1307,1236 1369,1313 L 1369,1313 Z"/>
         <path fill="rgb(254,242,137)" stroke="none" d="M 691,341 C 681,351 695,260 667,293 644,320 602,436 587,502 565,603 572,703 597,721 662,768 739,719 813,581 831,548 896,487 921,435 935,406 943,380 943,365 946,258 839,437 839,417 839,387 906,315 876,290 844,263 803,385 790,376 781,369 838,272 813,260 782,246 760,336 741,344 724,350 778,228 748,247 725,238 691,341 691,341 L 691,341 Z"/>
         <path fill="rgb(0,84,193)" stroke="none" d="M 672,741 L 782,778 C 782,778 833,864 850,870 867,876 886,812 886,812 L 1551,1032 1636,773 1403,696 C 1403,696 1445,644 1419,636 1392,627 1245,644 1245,644 L 1078,589 C 1078,589 1142,524 1115,515 1087,506 912,534 912,534 L 757,483 672,741 Z"/>
         <path fill="rgb(0,84,193)" stroke="none" d="M 784,638 C 812,569 807,501 772,487 737,472 685,517 657,586 628,656 634,724 669,738 704,753 755,708 784,638 Z"/>
         <path fill="rgb(254,242,137)" stroke="none" d="M 544,1757 C 569,1782 542,1650 557,1660 574,1672 576,1765 610,1757 637,1751 601,1644 612,1640 626,1633 640,1761 678,1741 712,1723 662,1639 668,1610 672,1590 739,1787 759,1683 762,1668 760,1640 753,1610 738,1553 688,1479 678,1443 634,1293 569,1229 496,1261 468,1274 440,1370 440,1474 441,1541 457,1663 474,1694 494,1732 500,1641 507,1653 507,1653 519,1761 544,1757 L 544,1757 Z"/>
         <path fill="rgb(0,84,193)" stroke="none" d="M 602,1528 L 764,1511 C 764,1511 929,1575 959,1572 987,1569 938,1492 938,1492 L 1112,1473 C 1112,1473 1253,1521 1282,1518 1308,1515 1279,1456 1279,1456 L 1522,1430 1494,1159 797,1233 C 797,1233 793,1167 775,1169 757,1171 689,1245 689,1245 L 573,1257 602,1528 Z"/>
         <path fill="rgb(0,84,193)" stroke="none" d="M 526,1405 C 539,1479 580,1534 617,1527 655,1521 674,1455 661,1381 648,1307 607,1253 570,1260 532,1266 513,1332 526,1405 L 526,1405 Z"/>
         <path fill="none" stroke="rgb(0,110,255)" stroke-width="105" stroke-linejoin="miter" stroke-linecap="round" d="M 71,1037 C 71,1037 315,932 561,956 749,974 931,1123 1043,1121 1212,1117 1473,1006 1473,1006"/>
         <path fill="rgb(255,0,0)" stroke="none" d="M 2195,787 C 2195,624 648,380 648,380 L 648,1716 C 648,1716 2195,1480 2195,1235 L 2195,787 Z"/>
         <path fill="none" stroke="rgb(125,0,0)" stroke-width="39" stroke-linejoin="miter" d="M 2195,1235 L 2195,787 C 2195,624 648,380 648,380 L 648,1716 C 648,1716 2195,1480 2195,1235 L 2195,1235 Z"/>
         <path fill="none" stroke="rgb(242,255,0)" stroke-width="66" stroke-linejoin="miter" d="M 1756,1040 C 1756,887 1632,763 1479,763 1326,763 1202,887 1202,1040 1202,1193 1326,1317 1479,1317 1632,1317 1756,1193 1756,1040 Z"/>
         <path fill="rgb(242,255,0)" stroke="none" d="M 1395,886 C 1362,887 1337,899 1319,923 1302,947 1293,980 1294,1023 L 1297,1171 1665,1164 1663,1031 C 1661,945 1630,903 1570,904 1548,904 1530,911 1515,923 1500,936 1491,953 1486,975 1482,946 1472,924 1456,908 1439,893 1419,886 1395,886 Z M 1565,953 C 1585,953 1600,959 1609,973 1618,986 1623,1006 1623,1032 L 1625,1116 1506,1118 1505,1034 C 1504,1007 1509,987 1519,974 1529,961 1544,954 1565,953 Z M 1399,936 C 1442,935 1464,965 1465,1026 L 1467,1119 1336,1121 1334,1024 C 1333,994 1338,972 1349,957 1360,943 1377,936 1399,936 Z"/>
         <path fill="rgb(0,84,193)" stroke="none" d="M 3318,1709 L 3210,1664 C 3210,1664 3166,1575 3149,1568 3132,1561 3109,1623 3109,1623 L 2461,1357 2358,1609 2585,1702 C 2585,1702 2540,1751 2565,1761 2591,1772 2740,1766 2740,1766 L 2901,1832 C 2901,1832 2833,1892 2860,1903 2887,1914 3063,1899 3063,1899 L 3215,1961 3318,1709 Z"/>
         <path fill="rgb(254,242,137)" stroke="none" d="M 3432,1670 C 3424,1659 3516,1649 3488,1619 3465,1595 3428,1587 3365,1600 3267,1621 3166,1694 3143,1749 3084,1892 3119,1999 3243,2050 3289,2069 3399,2134 3442,2111 3548,2053 3286,1959 3307,1947 3337,1929 3493,2056 3523,1988 3557,1915 3327,1870 3339,1843 3348,1821 3549,1910 3565,1859 3585,1794 3385,1796 3380,1766 3377,1741 3604,1778 3591,1735 3604,1688 3422,1688 3410,1673 L 3432,1670 Z"/>
         <path fill="rgb(0,84,193)" stroke="none" d="M 3272,141 L 3117,192 C 3117,192 2942,164 2914,173 2886,182 2950,247 2950,247 L 2784,302 C 2784,302 2637,285 2609,294 2584,302 2625,354 2625,354 L 2393,431 2478,690 3143,470 C 3143,470 3161,534 3178,528 3196,522 3246,436 3246,436 L 3357,399 3272,141 Z"/>
         <path fill="rgb(254,242,137)" stroke="none" d="M 3447,442 C 3460,427 3641,440 3631,392 3647,351 3418,371 3423,347 3430,317 3630,333 3614,267 3601,215 3394,290 3387,267 3378,239 3610,211 3582,135 3556,65 3392,181 3363,161 3343,147 3611,72 3509,7 3468,-20 3354,38 3306,54 3179,96 3137,200 3185,347 3204,404 3300,484 3396,511 3459,529 3496,524 3521,501 3551,473 3459,457 3468,446 L 3447,442 Z"/>
         <path fill="rgb(0,110,255)" stroke="none" d="M 1836,982 C 1829,1383 2150,1715 2554,1722 2957,1729 3290,1410 3297,1008 3304,607 2983,276 2579,269 2176,261 1843,581 1836,982 L 1836,982 Z"/>
         <path fill="rgb(0,110,255)" stroke="none" d="M 2161,1731 C 2159,1845 2262,1939 2391,1942 2519,1944 2626,1853 2628,1740 2630,1626 2527,1531 2398,1529 2269,1527 2163,1617 2161,1731 L 2161,1731 Z"/>
         <path fill="rgb(0,110,255)" stroke="none" d="M 2419,515 C 2546,517 2651,416 2653,289 2656,162 2555,57 2428,55 2301,53 2196,154 2194,281 2191,408 2292,513 2419,515 L 2419,515 Z"/>
         <path fill="rgb(254,242,137)" stroke="none" d="M 2262,1732 C 2262,1776 2320,1813 2393,1814 2466,1815 2526,1780 2527,1736 2527,1692 2469,1655 2396,1654 2323,1653 2263,1687 2262,1732 L 2262,1732 Z"/>
         <path fill="rgb(254,242,137)" stroke="none" d="M 2298,252 C 2297,300 2355,340 2427,342 2499,343 2559,305 2560,257 2560,209 2502,169 2430,167 2358,166 2299,204 2298,252 L 2298,252 Z"/>
         <path fill="rgb(254,242,137)" stroke="none" d="M 2494,824 C 2493,950 2686,983 2686,983 2686,983 2512,1045 2505,1218 2494,1495 2813,1564 2956,1567 3078,1569 3288,1389 3297,1015 3306,599 3123,412 2977,410 2762,406 2445,507 2494,824 L 2494,824 Z"/>
         <path fill="rgb(0,0,0)" stroke="none" d="M 2738,1251 C 2737,1311 2792,1360 2861,1361 2930,1363 2987,1315 2988,1256 2989,1196 2934,1146 2865,1145 2796,1144 2739,1191 2738,1251 L 2738,1251 Z"/>
         <path fill="rgb(0,0,0)" stroke="none" d="M 2767,734 C 2766,792 2817,840 2880,841 2944,842 2996,796 2997,738 2998,680 2948,632 2884,631 2821,630 2768,676 2767,734 L 2767,734 Z"/>
        </g>
       </g>
      </g>
     </g>
    </g>
   </g>
  </g>
 </g>
</svg>