<?xml version="1.0" encoding="UTF-8" standalone="no"?>
<svg version="1.1" width="137.43467" height="80.47527" viewBox="0,0,137.43467,80.47527" id="svg31" xmlns="http://www.w3.org/2000/svg" xmlns:svg="http://www.w3.org/2000/svg">
  <defs id="defs4">
    <linearGradient x1="222.3965" y1="179.72296" x2="238.03618" y2="179.72296" gradientUnits="userSpaceOnUse" id="color-1">
      <stop offset="0" stop-color="#ff0000" id="stop1" />
      <stop offset="1" stop-color="#ff8a8a" id="stop2" />
    </linearGradient>
    <linearGradient x1="220.28848" y1="179.68458" x2="235.92816" y2="179.68458" gradientUnits="userSpaceOnUse" id="color-2">
      <stop offset="0" stop-color="#ff0000" id="stop3" />
      <stop offset="1" stop-color="#ff8a8a" id="stop4" />
    </linearGradient>
  </defs>
  <g transform="matrix(-1,0,0,1,335.07343,-141.85116)" id="g31">
    <g fill-rule="nonzero" stroke-linejoin="miter" stroke-miterlimit="10" stroke-dasharray="none" stroke-dashoffset="0" id="g30">
      <path d="m 283.70757,191.77263 c -3.48485,4.34293 -12.32678,6.17071 -18.7971,6.28621 -6.50137,0.11606 -14.24003,-2.23424 -17.87438,-6.48505 -2.40545,-2.81347 -2.44178,-19.57439 -0.63044,-22.25339 3.36314,-4.97412 10.86501,-5.72599 17.88728,-5.85137 7.13819,-0.12742 16.77391,1.56349 20.28048,6.55074 1.80099,2.56147 1.46844,18.84381 -0.86584,21.75286 z" fill="#0054c1" stroke="none" stroke-width="0" stroke-linecap="butt" id="path4" />
      <g stroke="none" stroke-width="0" stroke-linecap="butt" id="g7">
        <path d="m 309.50149,154.81442 c 0.36822,0.38723 -0.16563,-3.07089 0.89859,-1.81109 0.87125,1.03136 2.47011,5.4148 3.02619,7.92201 0.85455,3.8529 0.56848,7.65865 -0.38246,8.34366 -2.46473,1.77543 -5.36959,-0.0887 -8.19991,-5.3072 -0.68054,-1.25477 -3.1413,-3.58114 -4.1212,-5.57918 -0.5329,-1.08659 -0.81213,-2.09633 -0.82752,-2.66797 -0.10855,-4.03244 3.96436,2.76107 3.96489,1.99028 7.8e-4,-1.1478 -2.53701,-3.86819 -1.40862,-4.82008 1.22375,-1.03234 2.77737,3.59847 3.2565,3.25333 0.37167,-0.26773 -1.80722,-3.94085 -0.8656,-4.38325 1.18969,-0.55896 2.01071,2.86754 2.75893,3.17318 0.61516,0.25131 -1.44355,-4.4077 -0.2993,-3.69631 0.88907,-0.33325 2.19952,3.58261 2.19952,3.58261 z" fill="#fef289" id="path5" />
        <path d="m 310.22627,170.03936 -4.2146,1.39218 c 0,0 -1.92717,3.28548 -2.58278,3.50204 -0.65561,0.21656 -1.35086,-2.20265 -1.35086,-2.20265 l -25.28769,8.35316 -3.24845,-9.83409 8.85069,-2.92361 c 0,0 -1.57131,-1.97401 -0.60202,-2.29419 1.03946,-0.34335 6.64296,0.29873 6.64296,0.29873 l 6.32192,-2.08829 c 0,0 -2.43768,-2.46691 -1.396,-2.81101 1.0651,-0.35183 7.71791,0.72272 7.71791,0.72272 l 5.90045,-1.94907 z" fill="#0054c1" id="path6" />
        <path d="m 310.33346,169.92619 c -1.33494,0.54659 -3.29445,-1.15303 -4.3767,-3.79621 -1.08225,-2.64318 -0.8774,-5.22899 0.45754,-5.77558 1.33494,-0.54659 3.29445,1.15303 4.3767,3.79621 1.08225,2.64318 0.8774,5.22899 -0.45754,5.77558 z" fill="#0054c1" id="path7" />
      </g>
      <g stroke="none" stroke-width="0" stroke-linecap="butt" id="g10">
        <path d="m 315.08367,208.6681 c -0.96849,0.93671 0.0614,-4.05168 -0.48696,-3.6763 -0.66693,0.45656 -0.74687,3.97915 -2.02768,3.68365 -1.01374,-0.23387 0.34152,-4.28389 -0.0783,-4.46722 -0.54115,-0.23633 -1.08323,4.61797 -2.49716,3.86693 -1.30375,-0.69251 0.60325,-3.88691 0.36043,-5.00874 -0.16307,-0.75335 -2.71168,6.74632 -3.45598,2.78167 -0.10551,-0.56203 -0.0455,-1.60795 0.24625,-2.78248 0.53649,-2.15976 2.45129,-4.95275 2.85191,-6.32282 1.66613,-5.698 4.11253,-8.13284 6.89625,-6.91713 1.07402,0.46906 2.15626,4.12889 2.13348,8.07535 -0.0148,2.56809 -0.65329,7.19013 -1.28744,8.38204 -0.7746,1.4559 -0.98206,-2.03703 -1.26033,-1.58085 0,0 -0.45515,4.10415 -1.39451,3.96589 z" fill="#fef289" id="path8" />
        <path d="m 312.87437,199.96482 -6.17879,-0.66088 c 0,0 -6.27657,2.45341 -7.39191,2.33411 -1.09082,-0.11668 0.77178,-3.04219 0.77178,-3.04219 l -6.62014,-0.70808 c 0,0 -5.34206,1.80937 -6.43056,1.69296 -1.01501,-0.10856 0.10465,-2.36955 0.10465,-2.36955 l -9.2682,-0.99132 1.10146,-10.29799 26.48057,2.83232 c 0,0 0.16942,-2.51142 0.85596,-2.438 0.68654,0.0734 3.26324,2.87859 3.26324,2.87859 l 4.41341,0.47204 z" fill="#0054c1" id="path9" />
        <path d="m 315.76977,195.30405 c -0.50048,2.81197 -2.05749,4.88661 -3.47768,4.63384 -1.42019,-0.25277 -2.16575,-2.73723 -1.66527,-5.54919 0.50048,-2.81197 2.05749,-4.88661 3.47768,-4.63384 1.42019,0.25277 2.16575,2.73723 1.66527,5.54919 z" fill="#0054c1" id="path10" />
      </g>
      <g stroke="none" stroke-width="0" stroke-linecap="butt" id="g12">
        <path d="m 209.57464,206.83381 4.10616,-1.68539 c 0,0 1.69112,-3.41297 2.32987,-3.67515 0.63874,-0.26217 1.50256,2.1021 1.50256,2.1021 l 24.63699,-10.11241 3.93261,9.58104 -8.62295,3.53934 c 0,0 1.70635,1.85852 0.76201,2.24613 -1.0127,0.41567 -6.64751,0.1696 -6.64751,0.1696 l -6.15924,2.5281 c 0,0 2.60529,2.28921 1.5904,2.70577 -1.03769,0.42593 -7.74964,-0.17767 -7.74964,-0.17767 l -5.74862,2.35956 z" fill="#0054c1" id="path11" />
        <path d="m 205.23286,205.35379 c 0.32021,-0.42525 -3.20829,-0.77698 -2.1418,-1.92227 0.87309,-0.93762 2.28826,-1.22372 4.69966,-0.72069 3.70564,0.77303 7.57498,3.54986 8.43779,5.65193 2.23631,5.44833 0.90423,9.5125 -3.80534,11.44558 -1.74824,0.71758 -5.9493,3.2183 -7.56856,2.32937 -4.02365,-2.2089 5.92243,-5.76648 5.14937,-6.22662 -1.15116,-0.68518 -7.08301,4.13736 -8.24628,1.56021 -1.26158,-2.79497 7.46319,-4.48699 7.02847,-5.54613 -0.33722,-0.82158 -7.98598,2.55482 -8.60379,0.61388 -0.78059,-2.45229 6.8529,-2.37613 7.02101,-3.5269 0.13822,-0.94613 -8.50231,0.44826 -8.00056,-1.1663 -0.49863,-1.7823 6.40723,-1.79162 6.85376,-2.38465 z" fill="#fef289" id="path12" />
      </g>
      <g stroke="none" stroke-width="0" stroke-linecap="butt" id="g14">
        <path d="m 211.33556,147.20819 5.90045,1.94907 c 0,0 6.65281,-1.07455 7.71791,-0.72272 1.04168,0.3441 -1.396,2.81101 -1.396,2.81101 l 6.32192,2.08829 c 0,0 5.6035,-0.64208 6.64296,-0.29873 0.96929,0.32018 -0.60202,2.29419 -0.60202,2.29419 l 8.85069,2.92361 -3.24845,9.83409 -25.28769,-8.35316 c 0,0 -0.69525,2.41921 -1.35086,2.20265 -0.65561,-0.21656 -2.58278,-3.50204 -2.58278,-3.50204 l -4.2146,-1.39218 z" fill="#0054c1" id="path13" />
        <path d="m 204.67438,158.65912 c -0.48716,-0.56012 -7.37656,-0.0833 -7.00462,-1.8963 -0.61414,-1.57524 8.1031,-0.7925 7.89862,-1.72656 -0.24869,-1.1361 -7.85788,-0.52281 -7.25185,-3.02396 0.47966,-1.97962 8.3471,0.85003 8.62566,0.007 0.3591,-1.08711 -8.46314,-2.16081 -7.40142,-5.03765 0.97898,-2.65265 7.23557,1.74041 8.33565,0.9759 0.73875,-0.51341 -9.43309,-3.36207 -5.57489,-5.84871 1.55267,-1.00071 5.91933,1.19811 7.71375,1.79085 4.83396,1.59679 6.4488,5.55711 4.60155,11.14934 -0.71272,2.1576 -4.377,5.1999 -8.01903,6.23184 -2.36999,0.67153 -3.8018,0.48574 -4.73873,-0.3881 -1.14445,-1.06738 2.35053,-1.6666 2.00118,-2.06826 z" fill="#fef289" id="path14" />
      </g>
      <path d="m 333.07343,181.30545 c 0,0 -9.28258,-3.99562 -18.64578,-3.09012 -7.12945,0.68948 -14.0805,6.35948 -18.33544,6.26326 -6.42513,-0.14529 -16.33066,-4.37868 -16.33066,-4.37868" fill="none" stroke="#006eff" stroke-width="4" stroke-linecap="round" id="path15" />
      <path d="m 252.27189,188.81447 c 0,-6.50507 0,-13.16476 0,-17.02223 0,-6.2081 58.84264,-15.47476 58.84264,-15.47476 v 50.80878 c 0,0 -58.84264,-8.99738 -58.84264,-18.31179 z" fill="#ff0000" stroke="#7d0000" stroke-width="1.5" stroke-linecap="butt" id="path16" />
      <path d="m 265.93177,179.205 c 0.27246,15.26177 -11.94259,27.85589 -27.28306,28.12975 -15.34047,0.27387 -27.99726,-11.87622 -28.26972,-27.13799 -0.27246,-15.26177 11.94259,-27.85589 27.28306,-28.12976 15.34047,-0.27387 27.99726,11.87622 28.26972,27.13799 z" fill="#006eff" stroke="none" stroke-width="0" stroke-linecap="butt" id="path17" />
      <path d="m 253.5768,207.69176 c 0.0773,4.33226 -3.83254,7.91518 -8.73296,8.00266 -4.90043,0.0875 -8.93571,-3.35359 -9.01305,-7.68585 -0.0773,-4.33225 3.83254,-7.91517 8.73296,-8.00266 4.90043,-0.0875 8.93571,3.35359 9.01305,7.68585 z" fill="#006eff" stroke="none" stroke-width="0" stroke-linecap="butt" id="path18" />
      <path d="m 243.74642,161.42987 c -4.8294,0.0862 -8.81431,-3.75891 -8.90052,-8.58832 -0.0862,-4.82941 3.75891,-8.81431 8.58831,-8.90052 4.8294,-0.0862 8.81431,3.7589 8.90053,8.58831 0.0862,4.82941 -3.75891,8.81431 -8.58832,8.90053 z" fill="#006eff" stroke="none" stroke-width="0" stroke-linecap="butt" id="path19" />
      <path d="m 249.71825,207.7075 c 0.03,1.67911 -2.19532,3.08047 -4.97033,3.13001 -2.77502,0.0495 -5.0489,-1.27149 -5.07889,-2.95061 -0.03,-1.67911 2.19532,-3.08047 4.97033,-3.13001 2.77502,-0.0495 5.0489,1.27149 5.07889,2.95061 z" fill="#fef289" stroke="none" stroke-width="0" stroke-linecap="butt" id="path20" />
      <path d="m 248.3707,151.44153 c 0.0327,1.83172 -2.16814,3.35639 -4.91573,3.40544 -2.74757,0.049 -5.00145,-1.39609 -5.03415,-3.2278 -0.0327,-1.83172 2.16814,-3.35639 4.91573,-3.40544 2.74757,-0.049 5.00145,1.39609 5.03415,3.2278 z" fill="#fef289" stroke="none" stroke-width="0" stroke-linecap="butt" id="path21" />
      <path d="m 240.90571,173.17266 c 0.062,4.80674 -7.30566,6.07571 -7.30566,6.07571 0,0 6.6245,2.33246 6.88639,8.9164 0.41897,10.5333 -11.69724,13.18044 -17.16067,13.27798 -4.61591,0.0824 -12.62311,-6.76221 -12.94255,-21.00808 -0.35406,-15.78926 6.59339,-22.90047 12.15688,-22.9998 8.17118,-0.14587 20.24592,3.6805 18.36562,15.73778 z" fill="#fef289" stroke="none" stroke-width="0" stroke-linecap="butt" id="path22" />
      <path d="m 231.64006,189.43127 c 0.0406,2.27266 -2.05676,4.15305 -4.68453,4.19995 -2.62777,0.0469 -4.79089,-1.75742 -4.83147,-4.03008 -0.0406,-2.27266 2.05676,-4.15305 4.68453,-4.19995 2.62777,-0.0469 4.79089,1.75742 4.83147,4.03008 z" fill="#000000" stroke="none" stroke-width="0" stroke-linecap="butt" id="path23" />
      <path d="m 230.51725,169.7701 c 0.0393,2.20164 -1.88634,4.02138 -4.30104,4.06449 -2.41471,0.0431 -4.40408,-1.70673 -4.44338,-3.90837 -0.0393,-2.20164 1.88634,-4.02138 4.30104,-4.06449 2.41471,-0.0431 4.40408,1.70673 4.44338,3.90837 z" fill="#000000" stroke="none" stroke-width="0" stroke-linecap="butt" id="path24" />
      <path d="m 268.99102,181.39617 c 0,-5.81604 4.71484,-10.53088 10.53088,-10.53088 5.81604,0 10.53088,4.71484 10.53088,10.53088 0,5.81604 -4.71484,10.53088 -10.53088,10.53088 -5.81604,0 -10.53088,-4.71484 -10.53088,-10.53088 z" fill="none" stroke="#f2ff00" stroke-width="2.5" stroke-linecap="butt" id="path25" />
      <text transform="matrix(0.00952499,-0.49990927,0.49990927,0.00952499,286.40492,188.0501)" font-size="40px" xml:space="preserve" fill="#f2ff00" fill-rule="nonzero" stroke="none" stroke-width="1" stroke-linecap="butt" stroke-linejoin="miter" stroke-miterlimit="10" stroke-dasharray="none" stroke-dashoffset="0" font-family="'Sans Serif'" font-weight="normal" text-anchor="start" id="text25"><tspan x="0" dy="0" id="tspan25">B</tspan></text>
      <g stroke-linecap="butt" id="g29">
        <path d="m 236.43457,207.61788 c 0,0 -2.36046,-0.18306 -5.79372,-0.68133 -3.39424,-0.82339 -5.43224,-2.40392 -5.43224,-2.40392 0,0 -2.50144,-7.19344 -3.28162,-11.54284 -0.95431,-5.32018 -2.0278,-18.05661 -2.0278,-18.05661 l 10.13217,-1.53895 c 0,0 0.32286,12.63112 1.44028,18.60343 1.00506,5.37183 4.96294,15.62023 4.96294,15.62023 z" fill="#926f37" stroke="none" stroke-width="0" id="path26" />
        <path d="m 231.38527,186.47772 -10.21566,-0.81821 c 0,0 0.0555,-12.90827 0.61164,-18.32251 0.44735,-4.35522 2.4704,-11.68286 2.4704,-11.68286 0,0 1.73499,-1.3621 5.06246,-2.42358 3.30698,-0.4184 5.55951,-0.8438 5.55951,-0.8438 0,0 -2.48434,10.02248 -3.03245,15.37912 -0.60837,5.94548 -0.4559,18.71184 -0.4559,18.71184 z" fill="#926f37" stroke="none" stroke-width="0" id="path27" />
        <path d="m 222.5908,179.51303 c -0.0426,-14.85953 2.01651,-20.04857 3.64703,-20.04857 1.5356,0 4.82793,0 7.54546,0 2.33944,0 -0.55077,3.92466 -0.35446,19.83864 0.18913,15.332 3.02834,20.67837 1.72636,20.67837 -1.76646,0 -6.55844,0 -9.7405,0 -1.75354,0 -2.78313,-6.2444 -2.82388,-20.46843 z" fill="url(#color-1)" stroke="#8c8c8c" stroke-width="2.5" id="path28" style="fill:url(#color-1)" />
        <path d="m 220.58775,179.57961 c -0.0426,-14.85953 1.91155,-20.15354 3.54206,-20.15354 1.5356,0 4.82792,0 7.54545,0 2.33944,0 -0.44581,3.92467 -0.2495,19.83864 0.18913,15.332 2.92337,20.67836 1.6214,20.67836 -1.76646,0 -6.55844,0 -9.7405,0 -1.75355,0 -2.67817,-6.13943 -2.71892,-20.36347 z" fill="url(#color-2)" stroke="#8c8c8c" stroke-width="2.5" id="path29" style="fill:url(#color-2)" />
      </g>
    </g>
  </g>
</svg>
