<?xml version="1.0" encoding="UTF-8" standalone="no"?>
<svg version="1.1" width="166.43379" height="115.92081" viewBox="0,0,166.43379,115.92081" id="svg2" sodipodi:docname="vortex.svg" inkscape:version="1.4 (86a8ad7, 2024-10-11)" xmlns:inkscape="http://www.inkscape.org/namespaces/inkscape" xmlns:sodipodi="http://sodipodi.sourceforge.net/DTD/sodipodi-0.dtd" xmlns:xlink="http://www.w3.org/1999/xlink" xmlns="http://www.w3.org/2000/svg" xmlns:svg="http://www.w3.org/2000/svg">
  <defs id="defs2">
    <linearGradient id="linearGradient24" inkscape:collect="always">
      <stop style="stop-color:#515157;stop-opacity:1" offset="0" id="stop24" />
      <stop style="stop-color:#3c3c42;stop-opacity:1" offset="1" id="stop25" />
    </linearGradient>
    <linearGradient id="linearGradient21" inkscape:collect="always">
      <stop style="stop-color:#515157;stop-opacity:1" offset="0" id="stop21" />
      <stop style="stop-color:#3c3c42;stop-opacity:1" offset="1" id="stop20" />
    </linearGradient>
    <linearGradient id="linearGradient18" inkscape:collect="always">
      <stop style="stop-color:#ade1ee;stop-opacity:1" offset="0" id="stop18" />
      <stop style="stop-color:#17aacd;stop-opacity:1" offset="1" id="stop19" />
    </linearGradient>
    <radialGradient inkscape:collect="always" xlink:href="#linearGradient18" id="radialGradient19" cx="94.102255" cy="58.192056" fx="94.102255" fy="58.192056" r="71.198575" gradientTransform="matrix(1,0,0,0.48854749,0,29.762473)" gradientUnits="userSpaceOnUse" />
    <radialGradient inkscape:collect="always" xlink:href="#linearGradient21" id="radialGradient20" gradientUnits="userSpaceOnUse" gradientTransform="matrix(1,0,0,0.48854749,0,29.762473)" cx="47.633728" cy="58.192055" fx="47.633728" fy="58.192055" r="71.198575" />
    <radialGradient inkscape:collect="always" xlink:href="#linearGradient24" id="radialGradient25" cx="152.48907" cy="58.422272" fx="152.48907" fy="58.422272" r="9.8859847" gradientTransform="matrix(1,0,0,1.8828773,0,-50.986219)" gradientUnits="userSpaceOnUse" />
    <radialGradient inkscape:collect="always" xlink:href="#linearGradient18" id="radialGradient26" gradientUnits="userSpaceOnUse" gradientTransform="matrix(1,0,0,0.48854749,0,29.762473)" cx="90.66684" cy="34.505657" fx="90.66684" fy="34.505657" r="71.198575" />
  </defs>
  <sodipodi:namedview id="namedview2" pagecolor="#ffffff" bordercolor="#000000" borderopacity="0.25" inkscape:showpageshadow="2" inkscape:pageopacity="0.0" inkscape:pagecheckerboard="0" inkscape:deskcolor="#d1d1d1" inkscape:zoom="3.9107423" inkscape:cx="72.492631" inkscape:cy="81.95375" inkscape:window-width="1920" inkscape:window-height="986" inkscape:window-x="-11" inkscape:window-y="-11" inkscape:window-maximized="1" inkscape:current-layer="svg2" />
  <path d="M 110.08398,23.898437 C 103.49956,23.958917 95.965836,25.250301 89.509766,26.53125 59.79391,32.42718 23.39168,47.560512 23.39168,57.829783 c 0,10.269271 36.40223,26.125852 66.118086,32.021779 11.477454,2.277243 25.561794,3.082735 33.261714,-0.04492 12.22506,-4.965735 42.09679,-23.145137 42.04135,-31.614258 -0.0554,-8.469121 -30.83606,-27.685788 -42.04135,-31.616211 -3.43106,-1.203496 -7.56627,-2.724772 -12.6875,-2.677736 z" style="fill:url(#radialGradient19);stroke:#1f1f23;stroke-width:1.576" id="path23" sodipodi:nodetypes="sscsszss" />
  <path style="fill:#3c3c42;stroke:#1f1f23;stroke-width:0.976" d="m 15.862759,32.129888 c 2.825571,-3.429872 27.162028,10.202811 27.162028,10.202811 0,0 -14.761241,5.74714 -15.833847,11.620953 -1.072606,5.873813 0.371689,8.032689 0.371689,8.032689 -1.222254,0.933839 12.830551,12.653266 15.347621,10.789032 2.479791,-1.836622 -25.240774,16.256621 -27.587772,11.515763 -2.346997,-4.740858 9.519458,-21.46184 9.489512,-22.721645 -0.03514,-1.478104 0.715499,-3.790199 0.715499,-3.790199 l -1.369768,-4.233828 c 0,0 -11.120532,-17.985705 -8.294962,-21.415576 z" id="path2" sodipodi:nodetypes="zcscszsccz" />
  <path style="fill:#3c3c42;stroke:#1f1f23;stroke-width:0.976" d="m 51.450588,25.37532 c 2.357852,-3.006576 16.659509,6.550804 16.294526,7.645752 -2.607658,-0.393538 -10.742701,4.731881 -14.008653,4.564411 0.572865,-1.002514 -4.643725,-9.203587 -2.285873,-12.210163 z" id="path2-4" sodipodi:nodetypes="zccz" />
  <path style="fill:#3c3c42;stroke:#1f1f23;stroke-width:0.976" d="m 51.450588,90.449811 c 2.357852,3.006576 16.659509,-6.550804 16.294526,-7.645752 -2.607658,0.393538 -10.742701,-4.731881 -14.008653,-4.564411 0.572865,1.002514 -4.643725,9.203587 -2.285873,12.210163 z" id="path4" sodipodi:nodetypes="zccz" />
  <path style="fill:#3c3c42;stroke:#1f1f23;stroke-width:0.976" d="M 84.564506,1.0832566 C 87.126198,-5.648708 123.09299,23.851477 122.59403,26.88413 119.98637,23.878271 93.184802,23.585316 89.91885,26.590128 90.491715,25.587614 82.002814,7.8152213 84.564506,1.0832566 Z" id="path5" sodipodi:nodetypes="zccz" />
  <path style="fill:#3c3c42;stroke:#1f1f23;stroke-width:0.976" d="m 84.948065,114.5953 c 2.561692,6.73197 38.528485,-22.768217 38.029525,-25.80087 -2.60766,3.005859 -29.409229,3.298814 -32.675181,0.294002 0.572865,1.002514 -7.916036,18.774908 -5.354344,25.506868 z" id="path6" sodipodi:nodetypes="zccz" />
  <path d="M 110.08398,23.898437 C 103.49956,23.958917 95.965836,25.250301 89.509766,26.53125 59.79391,32.42718 23.39168,47.560512 23.39168,57.829783 c 0,10.269271 36.40223,26.125852 66.118086,32.021779 11.477454,2.277243 25.561794,3.082735 33.261714,-0.04492 12.22506,-4.965735 42.09679,-23.145137 42.04135,-31.614258 -0.0554,-8.469121 -30.83606,-27.685788 -42.04135,-31.616211 -3.43106,-1.203496 -7.56627,-2.724772 -12.6875,-2.677736 z" style="fill:url(#radialGradient26);stroke:#1f1f23;stroke-width:1.576" id="path17" sodipodi:nodetypes="sscsszss" />
  <path style="fill:#3c3c42;stroke:#1f1f23;stroke-width:0.976" d="m 0.49692908,57.395308 c 0.0096,6.427322 45.54312692,1.828279 45.57343192,0.192643 0.0303,-1.635636 -45.97219604,-6.903376 -45.57343192,-0.192643 z" id="path3" />
  <path d="m 54.597557,36.673146 c 0,0 -0.481394,0.185345 -0.720995,0.278418 -17.13257,6.655131 -30.484882,14.658742 -30.484882,20.878219 0,6.153719 13.071458,14.313751 29.942736,21.134546 0.384762,0.155554 1.160105,0.464531 1.160105,0.464531 C 49.62326,66.456678 48.408838,52.530539 54.597557,36.673146 Z" style="fill:url(#radialGradient20);stroke:#1f1f23;stroke-width:1.576" id="path20" sodipodi:nodetypes="cscscc" />
  <path d="m 67.724804,32.158398 c -2.823927,0.828284 -6.049795,1.961994 -10.045868,3.259136 l 0.13992,45.133824 c 3.113151,1.069495 6.16677,3.087696 10.164534,3.49373 z" style="fill:url(#radialGradient20);stroke:#1f1f23;stroke-width:1.576" id="path21" sodipodi:nodetypes="ccccc" />
  <path d="m 143.54951,78.665363 c 4.61939,-3.721986 21.95397,-15.318159 21.26332,-20.472979 -0.61952,-4.623966 -15.89311,-17.223807 -22.27941,-20.761826 -1.32966,-0.73663 5.19314,11.421531 5.5558,21.014036 0.34127,9.026779 -5.80185,21.23772 -4.53971,20.220769 z" style="fill:url(#radialGradient25);stroke:#1f1f23;stroke-width:1.576" id="path22" sodipodi:nodetypes="sssss" />
  <path style="fill:#dbeeff;stroke:#1f1f23;stroke-width:1.676" d="M 23.867104,58.221269 H 164.89999" id="path28" />
  <path style="fill:#dbeeff;stroke:#1f1f23;stroke-width:1.676" d="M 23.867104,58.221269 H 164.89999" id="path29" />
  <path style="fill:none;stroke:#1f1f23;stroke-width:1.676" d="m 23.867104,58.221269 c 28.33568,-7.191815 59.381158,-17.223755 86.427846,-14.464912 16.67825,1.701232 33.86119,5.100847 54.60504,14.464912" id="path30" sodipodi:nodetypes="csc" />
  <path style="fill:none;stroke:#1f1f23;stroke-width:1.676" d="m 23.867104,58.221269 c 9.714209,-10.322326 53.162249,-23.61582 83.530746,-25.879484 18.03888,-1.344616 35.21818,9.377748 57.50214,25.879484" id="path31" sodipodi:nodetypes="csc" />
  <path style="fill:none;stroke:#1f1f23;stroke-width:1.676" d="m 24.047915,57.557649 c 9.714209,10.322326 53.162249,23.61582 83.530745,25.879484 18.03888,1.344616 35.21818,-9.377748 57.50214,-25.879484" id="path32" sodipodi:nodetypes="csc" />
  <path style="fill:none;stroke:#1f1f23;stroke-width:1.676" d="m 24.047915,57.906209 c 28.33568,7.191815 59.381158,17.223755 86.427845,14.464912 16.67825,-1.701232 33.86119,-5.100847 54.60504,-14.464912" id="path33" sodipodi:nodetypes="csc" />
  <path style="fill:none;stroke:#126c81;stroke-width:1.676" d="m 68.482027,39.243255 c 13.102185,-3.432819 27.013562,-6.014277 38.915823,-6.90147 12.21614,-0.910589 24.03806,3.712925 37.31814,11.91774" id="path34" sodipodi:nodetypes="csc" />
  <path style="fill:none;stroke:#126c81;stroke-width:1.676" d="m 69.075327,76.643386 c 12.981264,3.379056 26.725896,5.915858 38.503333,6.793747 12.42928,0.926477 24.45047,-3.875949 38.0146,-12.350466" id="path35" sodipodi:nodetypes="csc" />
  <path style="fill:#dbeeff;stroke:#126c81;stroke-width:1.676" d="m 69.250765,58.221269 78.652955,0" id="path36" sodipodi:nodetypes="cc" />
  <path style="fill:none;stroke:#126c81;stroke-width:1.676" d="m 68.916352,46.978865 c 14.222999,-2.892285 28.270427,-4.559581 41.378598,-3.222508 11.3448,1.157203 22.92311,3.100236 35.69683,7.171759" id="path37" sodipodi:nodetypes="csc" />
  <path style="fill:none;stroke:#126c81;stroke-width:1.676" d="m 69.369959,69.20394 c 14.129798,2.858156 28.081442,4.495705 41.105801,3.167181 11.39936,-1.162769 23.03449,-3.118944 35.88121,-7.230652" id="path38" sodipodi:nodetypes="csc" />
  <path style="fill:#3c3c42;stroke:#1f1f23;stroke-width:0.976" d="m 92.167504,58.162426 c -0.747143,5.242042 24.299846,3.921478 23.966276,0.06479 -0.38899,-4.497532 -23.300747,-4.734219 -23.966276,-0.06479 z" id="path8" sodipodi:nodetypes="sss" />
  <circle style="fill:#dbeeff;stroke:#1f1f23;stroke-width:1.676" id="path26" cx="137.68787" cy="48.909481" r="4.9723134" />
  <circle style="fill:#dbeeff;stroke:#1f1f23;stroke-width:1.676" id="path26-0" cx="138.25681" cy="65.902527" r="4.9723134" />
  <circle style="fill:#dbeeff;stroke:#1f1f23;stroke-width:1.676" id="circle26" cx="125.75431" cy="57.588428" r="4.9723134" />
  <circle style="fill:#dbeeff;stroke:#1f1f23;stroke-width:1.676" id="circle27" cx="126.11594" cy="40.411343" r="4.9723134" />
  <circle style="fill:#dbeeff;stroke:#1f1f23;stroke-width:1.676" id="circle28" cx="126.50407" cy="74.762283" r="4.9723134" />
  <path d="m 143.54951,78.665363 c 4.61939,-3.721986 21.95397,-15.318159 21.26332,-20.472979 -0.61952,-4.623966 -15.89311,-17.223807 -22.27941,-20.761826 -1.32966,-0.73663 5.19314,11.421531 5.5558,21.014036 0.34127,9.026779 -5.80185,21.23772 -4.53971,20.220769 z" style="fill:none;stroke:#1f1f23;stroke-width:1.576" id="path39" sodipodi:nodetypes="sssss" />
  <path style="fill:#dbeeff;stroke:#126c81;stroke-width:1.676" d="m 50.401177,58.221269 h 7.548875" id="path41" sodipodi:nodetypes="cc" />
  <path style="fill:none;stroke:#126c81;stroke-width:1.676" d="m 50.85183,51.166757 c 2.300814,-0.583451 4.60547,-1.154539 6.910744,-1.705753" id="path42" sodipodi:nodetypes="cc" />
  <path style="fill:none;stroke:#126c81;stroke-width:1.676" d="m 52.132732,44.117482 c 1.798184,-0.607766 3.642956,-1.204381 5.524523,-1.786914" id="path43" sodipodi:nodetypes="cc" />
  <path style="fill:none;stroke:#126c81;stroke-width:1.676" d="m 52.229818,71.633118 c 1.860819,0.629802 3.771773,1.247691 5.72198,1.850412" id="path44" sodipodi:nodetypes="cc" />
  <path style="fill:none;stroke:#126c81;stroke-width:1.676" d="m 50.873835,64.920429 c 2.327802,0.590912 4.659613,1.169345 6.992095,1.727517" id="path45" sodipodi:nodetypes="cc" />
  <path d="m 67.724804,32.158398 c -2.823927,0.828284 -6.049795,1.961994 -10.045868,3.259136 l 0.13992,45.133824 c 3.113151,1.069495 6.16677,3.087696 10.164534,3.49373 z" style="fill:none;stroke:#1f1f23;stroke-width:1.576" id="path40" sodipodi:nodetypes="ccccc" />
  <path style="fill:#3c3c42;stroke:#1f1f23;stroke-width:0.976" d="M 53.811615,58.162426 C 53.064472,63.404468 83.9927,62.33961 83.659132,58.482922 83.270138,53.98539 54.477144,53.492997 53.811615,58.162426 Z" id="path7" sodipodi:nodetypes="sss" />
  <path d="m 54.597557,36.673146 c 0,0 -0.481394,0.185345 -0.720995,0.278418 -17.13257,6.655131 -30.484882,14.658742 -30.484882,20.878219 0,6.153719 13.071458,14.313751 29.942736,21.134546 0.384762,0.155554 1.160105,0.464531 1.160105,0.464531 C 49.62326,66.456678 48.408838,52.530539 54.597557,36.673146 Z" style="fill:none;stroke:#1f1f23;stroke-width:1.576" id="path46" sodipodi:nodetypes="cscscc" />
</svg>
