<svg version="1.1" xmlns="http://www.w3.org/2000/svg" xmlns:xlink="http://www.w3.org/1999/xlink" width="153.98409" height="92.67417" viewBox="0,0,153.98409,92.67417"><defs><radialGradient cx="200.97979" cy="181.33454" r="27.90159" gradientUnits="userSpaceOnUse" id="color-1"><stop offset="0" stop-color="#717171"/><stop offset="1" stop-color="#191919"/></radialGradient><radialGradient cx="199.18033" cy="145.26549" r="13.21745" gradientUnits="userSpaceOnUse" id="color-2"><stop offset="0" stop-color="#717171"/><stop offset="1" stop-color="#191919"/></radialGradient><radialGradient cx="204.65428" cy="144.7286" r="11.28087" gradientUnits="userSpaceOnUse" id="color-3"><stop offset="0" stop-color="#feff00"/><stop offset="1" stop-color="#bbfd00"/></radialGradient><radialGradient cx="211.07956" cy="145.04721" r="10.36971" gradientUnits="userSpaceOnUse" id="color-4"><stop offset="0" stop-color="#f8fe00"/><stop offset="1" stop-color="#bdfd00"/></radialGradient><radialGradient cx="211.31164" cy="145.19055" r="5.39226" gradientUnits="userSpaceOnUse" id="color-5"><stop offset="0" stop-color="#000000"/><stop offset="1" stop-color="#4a4a4a"/></radialGradient><linearGradient x1="213.2085" y1="144.78891" x2="213.2085" y2="158.94599" gradientUnits="userSpaceOnUse" id="color-6"><stop offset="0" stop-color="#e3e3e3"/><stop offset="1" stop-color="#808080"/></linearGradient><linearGradient x1="213.2085" y1="144.78891" x2="213.2085" y2="158.94599" gradientUnits="userSpaceOnUse" id="color-7"><stop offset="0" stop-color="#808080"/><stop offset="1" stop-color="#e2e2e2"/></linearGradient><linearGradient x1="213.61343" y1="131.98669" x2="213.61343" y2="146.14376" gradientUnits="userSpaceOnUse" id="color-8"><stop offset="0" stop-color="#e3e3e3"/><stop offset="1" stop-color="#808080"/></linearGradient><linearGradient x1="213.61343" y1="131.98669" x2="213.61343" y2="146.14376" gradientUnits="userSpaceOnUse" id="color-9"><stop offset="0" stop-color="#808080"/><stop offset="1" stop-color="#e2e2e2"/></linearGradient><linearGradient x1="212.52939" y1="140.75367" x2="212.52939" y2="149.9281" gradientUnits="userSpaceOnUse" id="color-10"><stop offset="0" stop-color="#e3e3e3"/><stop offset="1" stop-color="#808080"/></linearGradient><linearGradient x1="212.52939" y1="140.75367" x2="212.52939" y2="149.9281" gradientUnits="userSpaceOnUse" id="color-11"><stop offset="0" stop-color="#808080"/><stop offset="1" stop-color="#e2e2e2"/></linearGradient><radialGradient cx="208.74231" cy="145.54688" r="6.90718" gradientUnits="userSpaceOnUse" id="color-12"><stop offset="0" stop-color="#feff00"/><stop offset="1" stop-color="#bbfd00"/></radialGradient><radialGradient cx="199.65115" cy="213.64387" r="13.21746" gradientUnits="userSpaceOnUse" id="color-13"><stop offset="0" stop-color="#717171"/><stop offset="1" stop-color="#191919"/></radialGradient><radialGradient cx="205.12564" cy="213.07622" r="11.28087" gradientUnits="userSpaceOnUse" id="color-14"><stop offset="0" stop-color="#feff00"/><stop offset="1" stop-color="#bbfd00"/></radialGradient><radialGradient cx="211.55037" cy="213.42557" r="10.3697" gradientUnits="userSpaceOnUse" id="color-15"><stop offset="0" stop-color="#faff00"/><stop offset="1" stop-color="#befd00"/></radialGradient><radialGradient cx="211.78246" cy="213.56895" r="5.39226" gradientUnits="userSpaceOnUse" id="color-16"><stop offset="0" stop-color="#000000"/><stop offset="1" stop-color="#4a4a4a"/></radialGradient><linearGradient x1="213.67932" y1="213.1673" x2="213.67932" y2="227.32437" gradientUnits="userSpaceOnUse" id="color-17"><stop offset="0" stop-color="#e3e3e3"/><stop offset="1" stop-color="#808080"/></linearGradient><linearGradient x1="213.67932" y1="213.1673" x2="213.67932" y2="227.32437" gradientUnits="userSpaceOnUse" id="color-18"><stop offset="0" stop-color="#808080"/><stop offset="1" stop-color="#e2e2e2"/></linearGradient><linearGradient x1="214.08427" y1="200.36507" x2="214.08427" y2="214.52214" gradientUnits="userSpaceOnUse" id="color-19"><stop offset="0" stop-color="#e3e3e3"/><stop offset="1" stop-color="#808080"/></linearGradient><linearGradient x1="214.08427" y1="200.36507" x2="214.08427" y2="214.52214" gradientUnits="userSpaceOnUse" id="color-20"><stop offset="0" stop-color="#808080"/><stop offset="1" stop-color="#e2e2e2"/></linearGradient><linearGradient x1="213.00021" y1="209.13207" x2="213.00021" y2="218.3065" gradientUnits="userSpaceOnUse" id="color-21"><stop offset="0" stop-color="#e3e3e3"/><stop offset="1" stop-color="#808080"/></linearGradient><linearGradient x1="213.00021" y1="209.13207" x2="213.00021" y2="218.3065" gradientUnits="userSpaceOnUse" id="color-22"><stop offset="0" stop-color="#808080"/><stop offset="1" stop-color="#e2e2e2"/></linearGradient><radialGradient cx="209.40947" cy="214.07797" r="6.90718" gradientUnits="userSpaceOnUse" id="color-23"><stop offset="0" stop-color="#feff00"/><stop offset="1" stop-color="#ddfe00"/></radialGradient><radialGradient cx="190.07187" cy="178.83752" r="34.54888" gradientUnits="userSpaceOnUse" id="color-24"><stop offset="0" stop-color="#717171"/><stop offset="1" stop-color="#191919"/></radialGradient><radialGradient cx="247.78452" cy="180.61976" r="59.38182" gradientUnits="userSpaceOnUse" id="color-25"><stop offset="0" stop-color="#717171"/><stop offset="1" stop-color="#191919"/></radialGradient><radialGradient cx="306.23296" cy="177.95968" r="21.82727" gradientUnits="userSpaceOnUse" id="color-26"><stop offset="0" stop-color="#feff00"/><stop offset="1" stop-color="#bbfd00"/></radialGradient><radialGradient cx="203.94723" cy="181.73059" r="20.54492" gradientUnits="userSpaceOnUse" id="color-27"><stop offset="0" stop-color="#feff00"/><stop offset="1" stop-color="#bbfd00"/></radialGradient><radialGradient cx="212.90313" cy="181.49491" r="25.21415" gradientUnits="userSpaceOnUse" id="color-28"><stop offset="0" stop-color="#feff00"/><stop offset="1" stop-color="#bbfd00"/></radialGradient><radialGradient cx="190.48161" cy="178.81146" r="19.04302" gradientUnits="userSpaceOnUse" id="color-29"><stop offset="0" stop-color="#717171"/><stop offset="1" stop-color="#191919"/></radialGradient><radialGradient cx="270.08763" cy="157.85759" r="8.44384" gradientUnits="userSpaceOnUse" id="color-30"><stop offset="0" stop-color="#fcfcfc"/><stop offset="1" stop-color="#e1e1e1"/></radialGradient><radialGradient cx="261.1833" cy="170.48348" r="6.37272" gradientUnits="userSpaceOnUse" id="color-31"><stop offset="0" stop-color="#feff00"/><stop offset="1" stop-color="#bbfd00"/></radialGradient><radialGradient cx="260.35576" cy="188.78577" r="6.48104" gradientUnits="userSpaceOnUse" id="color-32"><stop offset="0" stop-color="#feff00"/><stop offset="1" stop-color="#bbfd00"/></radialGradient><radialGradient cx="268.42431" cy="200.31746" r="8.44384" gradientUnits="userSpaceOnUse" id="color-33"><stop offset="0" stop-color="#fcfcfc"/><stop offset="1" stop-color="#e1e1e1"/></radialGradient></defs><g transform="translate(-160.3726,-133.24978)"><g data-paper-data="{&quot;isPaintingLayer&quot;:true}" fill-rule="nonzero" stroke-linejoin="miter" stroke-miterlimit="10" stroke-dasharray="" stroke-dashoffset="0" style="mix-blend-mode: normal"><g><path d="M195.70112,209.23613v-55.80319h10.55736v55.80319z" fill="url(#color-1)" stroke="#000000" stroke-width="1.5" stroke-linecap="butt"/><path d="M185.84184,150.92987c0,-2.1092 -0.53091,-4.17182 -0.50454,-6.04685c0.03332,-2.36905 0.62555,-4.43864 0.62555,-5.92425c0,-1.4916 1.45346,-2.43543 2.91153,-2.74693c3.04536,-0.6506 15.35635,-2.21206 20.81438,-2.21206c1.66042,0 5.03805,1.81524 5.03805,3.04122c0,2.52563 0.4725,10.85293 0,15.80662c-0.22181,2.32548 -3.55083,3.68359 -4.79601,3.68359c-2.98069,0 -15.76159,-1.56145 -21.41945,-2.34218c-1.69536,-0.23395 -2.6695,-1.38072 -2.6695,-3.25917z" fill="url(#color-2)" stroke="#000000" stroke-width="1.5" stroke-linecap="butt"/><path d="M189.84106,153.86423c0,0 -1.67413,-3.69936 -1.55268,-8.65067c0.13245,-5.40035 1.55268,-9.09429 1.55268,-9.09429" fill="none" stroke="#98e300" stroke-width="1.5" stroke-linecap="round"/><path d="M193.09353,154.28837c0,0 -1.67413,-3.83809 -1.55268,-8.97507c0.13245,-5.60287 1.55268,-9.43533 1.55268,-9.43533" fill="none" stroke="#98e300" stroke-width="1.5" stroke-linecap="round"/><path d="M211.94928,156.19608c0,0 -0.6734,0.41942 -2.53739,0.34999c-2.03875,-0.07593 -5.27907,-0.35066 -5.27907,-0.35066c0,0 -2.50779,-4.80736 -2.32588,-10.65608c0.19842,-6.37916 2.32588,-11.1801 2.32588,-11.1801c0,0 3.50061,-0.56359 5.7193,-0.29421c2.14586,0.26054 2.44715,0.607 2.44715,0.607z" fill="url(#color-3)" stroke="#98e300" stroke-width="1.5" stroke-linecap="round"/><path d="M215.57124,145.71263c0,5.72702 -1.78919,10.48062 -4.26988,10.48062c-2.48069,0 -4.04806,-5.30812 -4.04806,-11.03514c0,-5.72702 1.90009,-10.59152 4.38079,-10.59152c2.48069,0 3.93717,5.41902 3.93717,11.14605z" fill="url(#color-4)" stroke="#98e300" stroke-width="1.5" stroke-linecap="butt"/><path d="M213.64732,145.5366c0,2.97806 -0.93037,5.44993 -2.22033,5.44993c-1.28996,0 -2.105,-2.76022 -2.105,-5.73828c0,-2.97806 0.98804,-5.50759 2.27801,-5.50759c1.28996,0 2.04733,2.81789 2.04733,5.79595z" fill="url(#color-5)" stroke="#0056cf" stroke-width="0" stroke-linecap="butt"/><path d="M213.20851,156.79556c-1.11455,0 -2.01806,-2.20638 -2.01806,-4.9281c0,-2.72172 0.9035,-4.9281 2.01806,-4.9281c1.11455,0 2.01807,2.20638 2.01807,4.9281c0,2.72172 -0.9035,4.9281 -2.01807,4.9281z" fill="url(#color-6)" stroke="url(#color-7)" stroke-width="1.5" stroke-linecap="butt"/><path d="M213.61346,143.99331c-1.11455,0 -2.01808,-2.20638 -2.01808,-4.9281c0,-2.72172 0.90353,-4.9281 2.01808,-4.9281c1.11455,0 2.01806,2.20637 2.01806,4.9281c0,2.72172 -0.90353,4.9281 -2.01806,4.9281z" fill="url(#color-8)" stroke="url(#color-9)" stroke-width="1.5" stroke-linecap="butt"/><path d="M212.52938,148.53453c-1.09885,0 -2.47773,-0.22695 -3.70577,-0.62147c-0.82217,-0.26412 -0.87848,-1.50632 -0.92398,-2.57575c-0.04789,-1.12559 -0.04259,-2.08163 0.79232,-2.4034c1.26034,-0.48575 2.69913,-0.78666 3.83743,-0.78666c2.60881,0 4.72368,1.42984 4.72368,3.19362c0,1.7638 -2.11487,3.19364 -4.72368,3.19364z" fill="url(#color-10)" stroke="url(#color-11)" stroke-width="1.5" stroke-linecap="butt"/><path d="M209.46342,145.06533c0,5.13726 1.73332,8.6514 0.21897,7.21288c-1.27883,-1.2148 -1.58619,-2.0282 -1.58619,-7.16546c0,-5.13726 0.48789,-4.8963 2.06879,-6.26136c0.46895,-0.40493 -0.70158,1.07668 -0.70158,6.21394z" fill="url(#color-12)" stroke="#cfcfcf" stroke-width="0" stroke-linecap="butt"/><path d="M209.85643,155.97241c0,0 -2.70216,-5.32041 -2.54178,-10.94104c0.1602,-5.61386 3.35164,-10.92525 3.35164,-10.92525" fill="none" stroke="#98e300" stroke-width="1.5" stroke-linecap="round"/><path d="M190.18719,222.18905c0,0 -1.67413,-3.69936 -1.55268,-8.65067c0.13245,-5.40035 1.55268,-9.09429 1.55268,-9.09429" fill="none" stroke="#870000" stroke-width="1.5" stroke-linecap="round"/><path d="M193.43965,222.77977c0,0 -1.67413,-3.83809 -1.55269,-8.97507c0.13245,-5.60287 1.55269,-9.43533 1.55269,-9.43533" fill="none" stroke="#870000" stroke-width="1.5" stroke-linecap="round"/><path d="M186.31266,219.30825c0,-2.1092 -0.53091,-4.17183 -0.50454,-6.04686c0.03332,-2.36905 0.62555,-4.43862 0.62555,-5.92424c0,-1.4916 1.45346,-2.43544 2.91153,-2.74694c3.04536,-0.6506 15.35634,-2.21206 20.81437,-2.21206c1.66042,0 5.03805,1.81524 5.03805,3.04122c0,2.52563 0.4725,10.85293 0,15.80663c-0.22181,2.32548 -3.55084,3.68359 -4.79602,3.68359c-2.98069,0 -15.76159,-1.56145 -21.41945,-2.34218c-1.69536,-0.23395 -2.6695,-1.38072 -2.6695,-3.25917z" fill="url(#color-13)" stroke="#000000" stroke-width="1.5" stroke-linecap="butt"/><path d="M190.31188,222.24261c0,0 -1.67412,-3.69936 -1.55268,-8.65067c0.13245,-5.40035 1.55268,-9.09429 1.55268,-9.09429" fill="none" stroke="#98e300" stroke-width="1.5" stroke-linecap="round"/><path d="M193.56434,222.83332c0,0 -1.67412,-3.83808 -1.55267,-8.97506c0.13245,-5.60287 1.55267,-9.43533 1.55267,-9.43533" fill="none" stroke="#98e300" stroke-width="1.5" stroke-linecap="round"/><path d="M212.42009,224.57446c0,0 -0.6734,0.4194 -2.53739,0.34998c-2.03875,-0.07593 -5.27907,-0.35066 -5.27907,-0.35066c0,0 -2.50779,-4.80734 -2.32588,-10.65607c0.19842,-6.37916 2.32588,-11.18011 2.32588,-11.18011c0,0 3.50061,-0.56359 5.71929,-0.29421c2.14586,0.26054 2.44715,0.60699 2.44715,0.60699z" fill="url(#color-14)" stroke="#98e300" stroke-width="1.5" stroke-linecap="round"/><path d="M216.04206,214.09102c0,5.72702 -1.7892,10.48062 -4.26989,10.48062c-2.48069,0 -4.04807,-5.30811 -4.04807,-11.03514c0,-5.72702 1.90009,-10.59153 4.38079,-10.59153c2.48069,0 3.93717,5.41903 3.93717,11.14606z" fill="url(#color-15)" stroke="#98e300" stroke-width="1.5" stroke-linecap="butt"/><path d="M214.11815,213.91498c0,2.97806 -0.93037,5.44993 -2.22034,5.44993c-1.28996,0 -2.105,-2.76021 -2.105,-5.73827c0,-2.97806 0.98804,-5.50759 2.27801,-5.50759c1.28996,0 2.04733,2.81788 2.04733,5.79594z" fill="url(#color-16)" stroke="#0056cf" stroke-width="0" stroke-linecap="butt"/><path d="M213.67935,225.17395c-1.11455,0 -2.01808,-2.20639 -2.01808,-4.92811c0,-2.72172 0.90351,-4.9281 2.01808,-4.9281c1.11455,0 2.01806,2.20638 2.01806,4.9281c0,2.72172 -0.9035,4.92811 -2.01806,4.92811z" fill="url(#color-17)" stroke="url(#color-18)" stroke-width="1.5" stroke-linecap="butt"/><path d="M214.08428,212.37169c-1.11455,0 -2.01806,-2.20637 -2.01806,-4.92809c0,-2.72172 0.90353,-4.9281 2.01806,-4.9281c1.11455,0 2.01808,2.20638 2.01808,4.9281c0,2.72172 -0.90353,4.92809 -2.01808,4.92809z" fill="url(#color-19)" stroke="url(#color-20)" stroke-width="1.5" stroke-linecap="butt"/><path d="M213.0002,216.91292c-1.09885,0 -2.47773,-0.22695 -3.70577,-0.62145c-0.82217,-0.26412 -0.87848,-1.50632 -0.92398,-2.57575c-0.04789,-1.12559 -0.04259,-2.08164 0.79233,-2.40341c1.26034,-0.48575 2.69913,-0.78665 3.83742,-0.78665c2.60881,0 4.72368,1.42985 4.72368,3.19363c0,1.7638 -2.11488,3.19364 -4.72368,3.19364z" fill="url(#color-21)" stroke="url(#color-22)" stroke-width="1.5" stroke-linecap="butt"/><path d="M209.93424,213.44371c0,5.13726 1.73332,8.6514 0.21897,7.21288c-1.27883,-1.2148 -1.58618,-2.02819 -1.58618,-7.16545c0,-5.13726 0.48789,-4.89631 2.06879,-6.26136c0.46895,-0.40493 -0.70158,1.07668 -0.70158,6.21394z" fill="url(#color-23)" stroke="#cfcfcf" stroke-width="0" stroke-linecap="butt"/><path d="M210.32723,224.35078c0,0 -2.70215,-5.32041 -2.54176,-10.94104c0.1602,-5.61385 3.35164,-10.92523 3.35164,-10.92523" fill="none" stroke="#98e300" stroke-width="1.5" stroke-linecap="round"/><path d="M169.80746,209.36788c0,-3.93913 8.20981,-16.6609 8.38442,-29.84302c0.15662,-11.82349 -7.72001,-24.04691 -7.72001,-30.14375c0,-2.60339 5.38635,-2.34263 8.79743,-0.60499c12.80899,6.52502 41.53137,22.22463 41.53137,31.28876c0,8.36937 -27.161,22.77194 -40.97058,29.55385c-4.70732,2.31176 -10.02262,2.16676 -10.02262,-0.25083z" fill="url(#color-24)" stroke="#000000" stroke-width="1.5" stroke-linecap="butt"/><path d="M251.27265,144.25947c28.43796,0 62.76236,25.7044 62.22157,35.13293c-0.61187,10.66776 -33.94968,34.97951 -62.38766,34.97951c-28.43798,0 -72.97859,-32.99472 -73.91523,-34.18112c-0.07577,-1.61501 45.64334,-35.9313 74.08132,-35.9313z" fill="url(#color-25)" stroke="#000000" stroke-width="1.5" stroke-linecap="butt"/><path d="M313.5231,179.62018l-136.09104,-0.03042" fill="none" stroke="#000000" stroke-width="1.5" stroke-linecap="round"/><path d="M178.95363,180.06206c0,0 35.51516,-13.68764 74.8496,-13.99447c33.73542,-0.03977 59.35772,12.9103 59.35772,12.9103" fill="none" stroke="#000000" stroke-width="1.5" stroke-linecap="round"/><path d="M178.61846,179.71491c0,0 41.45824,-25.49039 75.80962,-25.03013c37.8884,0.44235 59.17862,23.88159 59.17862,23.88159" fill="none" stroke="#000000" stroke-width="1.5" stroke-linecap="round"/><path d="M313.02646,179.25904c0,0 -24.51496,13.70505 -58.25037,13.66528c-39.33443,-0.30683 -75.83136,-13.55613 -75.83136,-13.55613" data-paper-data="{&quot;index&quot;:null}" fill="none" stroke="#000000" stroke-width="1.5" stroke-linecap="round"/><path d="M312.62478,178.72324c0,0 -20.31621,25.79846 -58.20461,26.24081c-34.35139,0.46026 -75.46062,-25.07604 -75.46062,-25.07604" data-paper-data="{&quot;index&quot;:null}" fill="none" stroke="#000000" stroke-width="1.5" stroke-linecap="round"/><path d="M293.05924,158.03202c4.09124,3.11419 21.2625,12.91413 20.44667,22.12983c-0.83448,9.42641 -16.69061,18.9915 -20.75218,20.64265c-3.24099,3.39188 -7.65434,-12.10512 -7.58103,-21.99945c0.0755,-10.19024 4.65241,-23.69853 7.88654,-20.77304z" fill="url(#color-26)" stroke="#98e300" stroke-width="1.5" stroke-linecap="butt"/><path d="M313.3348,179.64983c0,0 -19.77326,0.15838 -28.3426,0.15838" fill="none" stroke="#98e300" stroke-width="1.5" stroke-linecap="round"/><path d="M286.40083,169.74788c15.33612,3.73906 26.29725,9.31748 26.29725,9.31748" fill="none" stroke="#98e300" stroke-width="1.5" stroke-linecap="round"/><path d="M288.60652,161.67421c14.17413,6.55459 24.40004,16.5443 24.40004,16.5443" fill="none" stroke="#98e300" stroke-width="1.5" stroke-linecap="round"/><path d="M313.08396,179.72702c0,0 -13.84967,7.5391 -26.77678,9.22466" data-paper-data="{&quot;index&quot;:null}" fill="none" stroke="#98e300" stroke-width="1.5" stroke-linecap="round"/><path d="M312.63649,181.71173c0,0 -11.59392,10.46123 -24.09919,14.82152" data-paper-data="{&quot;index&quot;:null}" fill="none" stroke="#98e300" stroke-width="1.5" stroke-linecap="round"/><path d="M203.13759,196.99866c0,0 -1.74086,-10.2776 -1.77668,-17.514c-0.04175,-8.43288 1.72594,-17.37868 1.72594,-17.37868l4.67381,-2.96386c0,0 -1.03709,8.27682 -1.03588,20.20816c0.00126,12.39439 1.61066,20.88168 1.61066,20.88168z" fill="url(#color-27)" stroke="#98e300" stroke-width="1.5" stroke-linecap="butt"/><path d="M202.06916,169.53125l4.98404,-2.71966" fill="none" stroke="#98e300" stroke-width="1.5" stroke-linecap="round"/><path d="M206.77579,172.78024l-5.10709,1.47162" fill="none" stroke="#98e300" stroke-width="1.5" stroke-linecap="round"/><path d="M201.36434,179.47687l5.26,-0.0388" fill="none" stroke="#98e300" stroke-width="1.5" stroke-linecap="round"/><path d="M206.81001,186.18088l-5.07725,-1.67391" fill="none" stroke="#98e300" stroke-width="1.5" stroke-linecap="round"/><path d="M202.16091,189.96662l5.04738,2.87671" fill="none" stroke="#98e300" stroke-width="1.5" stroke-linecap="round"/><path d="M212.1301,202.20061c0,0 -1.67212,-13.37154 -1.70653,-22.78639c-0.0401,-10.97152 1.65778,-22.61037 1.65778,-22.61037l4.69325,-2.34049c0,0 -1.20013,9.25287 -1.19897,24.776c0.00122,16.12557 1.95504,25.6523 1.95504,25.6523z" fill="url(#color-28)" stroke="#98e300" stroke-width="1.5" stroke-linecap="butt"/><path d="M215.79029,188.32371l-4.96418,-1.03077" fill="none" stroke="#98e300" stroke-width="1.5" stroke-linecap="round"/><path d="M216.29384,196.69928l-4.76067,-2.14751" fill="none" stroke="#98e300" stroke-width="1.5" stroke-linecap="round"/><path d="M211.29816,165.10731l4.49701,-2.1853" fill="none" stroke="#98e300" stroke-width="1.5" stroke-linecap="round"/><path d="M210.91353,171.89094l4.72918,-1.14888" fill="none" stroke="#98e300" stroke-width="1.5" stroke-linecap="round"/><path d="M215.26294,179.4521l-4.81731,0.07936" fill="none" stroke="#98e300" stroke-width="1.5" stroke-linecap="round"/><path d="M181.38138,184.56993c-11.85206,-2.15027 -20.25877,-3.75845 -20.25877,-5.2702c0,-1.68672 9.33445,-3.53729 22.45968,-5.89796c5.05235,-0.90869 15.49441,2.46895 15.62509,5.82204c0.13198,3.38624 -10.11019,6.74599 -17.82601,5.34612z" data-paper-data="{&quot;index&quot;:null}" fill="url(#color-29)" stroke="#000000" stroke-width="1.5" stroke-linecap="butt"/><path d="M277.38525,162.10534c-0.8052,1.38332 -3.93017,-1.67394 -7.5438,-3.75477c-3.70276,-2.13215 -7.87647,-3.32326 -7.05143,-4.74071c1.63023,-2.80076 6.21906,-3.16944 10.24942,-0.82348c4.03036,2.34596 5.97604,6.5182 4.3458,9.31896z" fill="url(#color-30)" stroke="#000000" stroke-width="1.5" stroke-linecap="butt"/><path d="M285.98765,205.71717c0,0 -7.15154,-10.04352 -7.06979,-26.05353c0.08307,-16.27029 7.72442,-25.39892 7.72442,-25.39892" fill="none" stroke="#98e300" stroke-width="1.5" stroke-linecap="round"/><path d="M271.90536,172.40672c0,0.45329 4.90841,-0.42306 4.92976,0.20276c0.02651,0.77713 0.64727,3.47137 -0.59666,4.35471c-0.86879,0.61694 -3.58738,-0.69414 -4.07153,0.26548c-0.57767,1.14497 -0.3077,2.351 -0.2829,3.73993c0.01383,0.77452 4.36135,-0.29312 4.42838,0.4187c0.04198,0.44584 0.8928,3.15212 -0.16839,4.0171c-1.20593,0.98297 -4.34614,0.12298 -4.35471,0.45945c-0.06905,2.71014 -0.32713,5.07622 -0.97691,6.24472c-1.11332,2.00209 -13.35255,6.19956 -18.89475,6.19956c-4.70533,0 -10.16903,0.71325 -13.73147,-3.00421c-3.26012,-3.40198 -4.82854,-11.01179 -4.82854,-15.96371c0,-5.68168 1.44256,-13.15972 5.52086,-16.54526c3.36029,-2.78949 9.3763,-2.42265 13.44706,-2.42265c5.88369,0 17.97453,4.19322 18.80551,6.30043c1.18754,3.01138 0.77428,2.13618 0.77428,5.73298z" fill="#ffffff" stroke="#ffffff" stroke-width="1.5" stroke-linecap="butt"/><path d="M267.05564,172.08112c-0.99794,2.55916 -4.54222,3.72696 -7.91637,2.60835c-3.37415,-1.11861 -5.30045,-4.10004 -4.30252,-6.6592c0.99794,-2.55916 4.54222,-3.72696 7.91637,-2.60835c3.37415,1.11861 5.30045,4.10004 4.30252,6.6592z" fill="url(#color-31)" stroke="#3e3e3e" stroke-width="2.5" stroke-linecap="butt"/><path d="M267.13903,186.90877c0.68361,2.70681 -1.6099,5.53222 -5.12271,6.31072c-3.51281,0.7785 -6.91468,-0.78471 -7.5983,-3.49152c-0.68361,-2.70681 1.6099,-5.53222 5.12271,-6.31072c3.51281,-0.7785 6.91469,0.78471 7.5983,3.49152z" fill="url(#color-32)" stroke="#3e3e3e" stroke-width="2.5" stroke-linecap="butt"/><path d="M271.37613,205.38867c-4.03036,2.34596 -8.61918,1.97727 -10.24941,-0.82349c-0.82504,-1.41745 3.34866,-2.60856 7.05142,-4.74071c3.61363,-2.08084 6.73859,-5.13809 7.54379,-3.75477c1.63024,2.80076 -0.31545,6.973 -4.3458,9.31896z" data-paper-data="{&quot;index&quot;:null}" fill="url(#color-33)" stroke="#000000" stroke-width="1.5" stroke-linecap="butt"/></g></g></g></svg>